<svg xmlns="http://www.w3.org/2000/svg" width="210mm" height="297mm" viewBox="0 0 793.70 1122.52">
<rect x="0" y="0" width="793.70" height="1122.52" fill="#ffffff"/>
<text x="92.00" y="24.00" font-family="Helvetica Neue, Helvetica, Arial, sans-serif" font-size="15" fill="#1f2937" text-anchor="start" font-weight="bold" letter-spacing="1.2">HOSPITAL OF DR. AMAN KHANNA</text>
<text x="92.00" y="39.00" font-family="Helvetica Neue, Helvetica, Arial, sans-serif" font-size="9.5" fill="#6b7280" text-anchor="start" font-weight="normal" letter-spacing="0.9">7TH FLOOR, SOLARIS SHINE, ALTHAN, SURAT</text>
<line x1="92.00" y1="46.00" x2="769.70" y2="46.00" stroke="#1f2937" stroke-width="0.7" stroke-linecap="butt"/>
<text x="92.00" y="60.00" font-family="Helvetica Neue, Helvetica, Arial, sans-serif" font-size="11" fill="#1f2937" text-anchor="start" font-weight="bold" letter-spacing="0.6">FLOOR PLATE OUTLINE — 4'-0" SKETCHING GRID</text>
<text x="769.70" y="24.00" font-family="Helvetica Neue, Helvetica, Arial, sans-serif" font-size="9.5" fill="#6b7280" text-anchor="end" font-weight="normal" letter-spacing="0.8">SHEET 2 OF 3</text>
<text x="769.70" y="39.00" font-family="Helvetica Neue, Helvetica, Arial, sans-serif" font-size="9.5" fill="#1f2937" text-anchor="end" font-weight="normal" letter-spacing="0.4">SCALE  1 cm = 4'-0"   (≈ 1:122)   A4</text>
<text x="769.70" y="60.00" font-family="Helvetica Neue, Helvetica, Arial, sans-serif" font-size="9" fill="#b45309" text-anchor="end" font-weight="normal" letter-spacing="0.3">PRINT AT 100% / ACTUAL SIZE — do not 'fit to page'</text>
<line x1="554.83" y1="92.55" x2="543.50" y2="187.04" stroke="#1d4ed8" stroke-width="1.7" stroke-linecap="butt"/>
<line x1="543.48" y1="187.17" x2="529.31" y2="281.66" stroke="#1d4ed8" stroke-width="1.7" stroke-linecap="butt"/>
<line x1="529.31" y1="281.66" x2="515.13" y2="376.15" stroke="#1d4ed8" stroke-width="1.7" stroke-linecap="butt"/>
<line x1="515.18" y1="375.68" x2="508.56" y2="517.41" stroke="#1d4ed8" stroke-width="1.7" stroke-linecap="butt"/>
<line x1="508.21" y1="518.98" x2="488.37" y2="566.22" stroke="#1d4ed8" stroke-width="1.7" stroke-linecap="butt"/>
<line x1="488.67" y1="565.17" x2="473.55" y2="659.66" stroke="#1d4ed8" stroke-width="1.7" stroke-linecap="butt"/>
<line x1="473.56" y1="659.57" x2="460.34" y2="754.06" stroke="#1d4ed8" stroke-width="1.7" stroke-linecap="butt"/>
<line x1="460.34" y1="754.06" x2="447.11" y2="848.54" stroke="#1d4ed8" stroke-width="1.7" stroke-linecap="butt"/>
<line x1="366.02" y1="1050.93" x2="186.49" y2="1050.93" stroke="#1d4ed8" stroke-width="1.7" stroke-linecap="butt"/>
<line x1="129.80" y1="92.00" x2="129.80" y2="1046.33" stroke="#d8dce1" stroke-width="0.35" stroke-linecap="butt"/>
<line x1="167.59" y1="92.00" x2="167.59" y2="1046.33" stroke="#d8dce1" stroke-width="0.35" stroke-linecap="butt"/>
<line x1="205.39" y1="92.00" x2="205.39" y2="1046.33" stroke="#d8dce1" stroke-width="0.35" stroke-linecap="butt"/>
<line x1="243.18" y1="92.00" x2="243.18" y2="1046.33" stroke="#d8dce1" stroke-width="0.35" stroke-linecap="butt"/>
<line x1="280.98" y1="92.00" x2="280.98" y2="1046.33" stroke="#d8dce1" stroke-width="0.35" stroke-linecap="butt"/>
<line x1="318.77" y1="92.00" x2="318.77" y2="1046.33" stroke="#d8dce1" stroke-width="0.35" stroke-linecap="butt"/>
<line x1="356.57" y1="92.00" x2="356.57" y2="1046.33" stroke="#d8dce1" stroke-width="0.35" stroke-linecap="butt"/>
<line x1="394.36" y1="92.00" x2="394.36" y2="957.51" stroke="#d8dce1" stroke-width="0.35" stroke-linecap="butt"/>
<line x1="432.16" y1="92.00" x2="432.16" y2="902.24" stroke="#d8dce1" stroke-width="0.35" stroke-linecap="butt"/>
<line x1="469.95" y1="92.00" x2="469.95" y2="653.02" stroke="#d8dce1" stroke-width="0.35" stroke-linecap="butt"/>
<line x1="507.75" y1="92.00" x2="507.75" y2="436.21" stroke="#d8dce1" stroke-width="0.35" stroke-linecap="butt"/>
<line x1="545.54" y1="92.00" x2="545.54" y2="131.37" stroke="#d8dce1" stroke-width="0.35" stroke-linecap="butt"/>
<line x1="92.00" y1="129.80" x2="545.73" y2="129.80" stroke="#d8dce1" stroke-width="0.35" stroke-linecap="butt"/>
<line x1="92.00" y1="167.59" x2="541.20" y2="167.59" stroke="#d8dce1" stroke-width="0.35" stroke-linecap="butt"/>
<line x1="92.00" y1="205.39" x2="536.09" y2="205.39" stroke="#d8dce1" stroke-width="0.35" stroke-linecap="butt"/>
<line x1="92.00" y1="243.18" x2="530.43" y2="243.18" stroke="#d8dce1" stroke-width="0.35" stroke-linecap="butt"/>
<line x1="92.00" y1="280.98" x2="524.76" y2="280.98" stroke="#d8dce1" stroke-width="0.35" stroke-linecap="butt"/>
<line x1="92.00" y1="318.77" x2="519.09" y2="318.77" stroke="#d8dce1" stroke-width="0.35" stroke-linecap="butt"/>
<line x1="92.00" y1="356.57" x2="513.42" y2="356.57" stroke="#d8dce1" stroke-width="0.35" stroke-linecap="butt"/>
<line x1="92.00" y1="394.36" x2="509.70" y2="394.36" stroke="#d8dce1" stroke-width="0.35" stroke-linecap="butt"/>
<line x1="92.00" y1="432.16" x2="507.94" y2="432.16" stroke="#d8dce1" stroke-width="0.35" stroke-linecap="butt"/>
<line x1="92.00" y1="469.95" x2="506.17" y2="469.95" stroke="#d8dce1" stroke-width="0.35" stroke-linecap="butt"/>
<line x1="92.00" y1="507.75" x2="504.41" y2="507.75" stroke="#d8dce1" stroke-width="0.35" stroke-linecap="butt"/>
<line x1="92.00" y1="545.54" x2="492.06" y2="545.54" stroke="#d8dce1" stroke-width="0.35" stroke-linecap="butt"/>
<line x1="92.00" y1="583.34" x2="481.10" y2="583.34" stroke="#d8dce1" stroke-width="0.35" stroke-linecap="butt"/>
<line x1="92.00" y1="621.13" x2="475.06" y2="621.13" stroke="#d8dce1" stroke-width="0.35" stroke-linecap="butt"/>
<line x1="92.00" y1="658.93" x2="469.01" y2="658.93" stroke="#d8dce1" stroke-width="0.35" stroke-linecap="butt"/>
<line x1="92.00" y1="696.72" x2="463.72" y2="696.72" stroke="#d8dce1" stroke-width="0.35" stroke-linecap="butt"/>
<line x1="92.00" y1="734.52" x2="458.43" y2="734.52" stroke="#d8dce1" stroke-width="0.35" stroke-linecap="butt"/>
<line x1="92.00" y1="772.31" x2="453.13" y2="772.31" stroke="#d8dce1" stroke-width="0.35" stroke-linecap="butt"/>
<line x1="92.00" y1="810.11" x2="447.84" y2="810.11" stroke="#d8dce1" stroke-width="0.35" stroke-linecap="butt"/>
<line x1="92.00" y1="847.91" x2="442.55" y2="847.91" stroke="#d8dce1" stroke-width="0.35" stroke-linecap="butt"/>
<line x1="92.00" y1="885.70" x2="435.75" y2="885.70" stroke="#d8dce1" stroke-width="0.35" stroke-linecap="butt"/>
<line x1="92.00" y1="923.50" x2="426.49" y2="923.50" stroke="#d8dce1" stroke-width="0.35" stroke-linecap="butt"/>
<line x1="92.00" y1="961.29" x2="384.91" y2="961.29" stroke="#d8dce1" stroke-width="0.35" stroke-linecap="butt"/>
<line x1="92.00" y1="999.09" x2="384.91" y2="999.09" stroke="#d8dce1" stroke-width="0.35" stroke-linecap="butt"/>
<line x1="92.00" y1="1036.88" x2="384.91" y2="1036.88" stroke="#d8dce1" stroke-width="0.35" stroke-linecap="butt"/>
<polygon points="92.00,92.00 550.27,92.00 538.93,186.49 524.76,280.98 510.58,375.46 503.97,517.20 484.13,564.44 469.01,658.93 455.78,753.42 442.55,847.91 434.05,895.15 422.71,937.67 408.54,951.84 384.91,961.29 92.00,961.29" fill="none" stroke="#1f2937" stroke-width="2.2" stroke-linejoin="miter"/>
<polygon points="333.89,469.95 507.75,469.95 495.46,545.54 333.89,545.54" fill="#eef0f2" stroke="#9ca3af" stroke-width="1.2" stroke-linejoin="miter"/>
<text x="420.82" y="503.95" font-family="Helvetica Neue, Helvetica, Arial, sans-serif" font-size="8.2" fill="#1f2937" text-anchor="middle" font-weight="bold">CUT-OUT /</text>
<text x="420.82" y="514.95" font-family="Helvetica Neue, Helvetica, Arial, sans-serif" font-size="8.2" fill="#1f2937" text-anchor="middle" font-weight="bold">SERVICE AREA</text>
<text x="420.82" y="526.95" font-family="Helvetica Neue, Helvetica, Arial, sans-serif" font-size="7.4" fill="#1f2937" text-anchor="middle" font-weight="normal">≈18'-4" × 8'-0"</text>
<polygon points="92.00,575.78 129.80,575.78 129.80,615.46 92.00,615.46" fill="#f3f4f6" stroke="#9ca3af" stroke-width="0.9" stroke-linejoin="miter" stroke-dasharray="4 3"/>
<text x="110.90" y="598.62" font-family="Helvetica Neue, Helvetica, Arial, sans-serif" font-size="7.6" fill="#1f2937" text-anchor="middle" font-weight="normal">DUCT</text>
<line x1="92.00" y1="498.30" x2="92.00" y2="545.54" stroke="#ffffff" stroke-width="3.6" stroke-linecap="butt"/>
<line x1="89.60" y1="498.30" x2="89.60" y2="545.54" stroke="#b45309" stroke-width="1.6" stroke-linecap="butt"/>
<text x="100.00" y="524.92" font-family="Helvetica Neue, Helvetica, Arial, sans-serif" font-size="8.6" fill="#b45309" text-anchor="start" font-weight="normal">MAIN ENTRY  4'-0"</text>
<line x1="92.00" y1="82.00" x2="550.27" y2="82.00" stroke="#1f2937" stroke-width="0.55" stroke-linecap="butt"/>
<line x1="88.60" y1="85.40" x2="95.40" y2="78.60" stroke="#1f2937" stroke-width="0.6" stroke-linecap="butt"/>
<line x1="546.87" y1="85.40" x2="553.67" y2="78.60" stroke="#1f2937" stroke-width="0.6" stroke-linecap="butt"/>
<line x1="92.00" y1="82.00" x2="92.00" y2="89.00" stroke="#6b7280" stroke-width="0.4" stroke-linecap="butt"/>
<line x1="550.27" y1="82.00" x2="550.27" y2="89.00" stroke="#6b7280" stroke-width="0.4" stroke-linecap="butt"/>
<text x="321.13" y="77.50" font-family="Helvetica Neue, Helvetica, Arial, sans-serif" font-size="10.5" fill="#1f2937" text-anchor="middle" font-weight="normal">48'-6"</text>
<line x1="50.00" y1="92.00" x2="50.00" y2="1046.33" stroke="#1f2937" stroke-width="0.55" stroke-linecap="butt"/>
<line x1="46.60" y1="95.40" x2="53.40" y2="88.60" stroke="#1f2937" stroke-width="0.6" stroke-linecap="butt"/>
<line x1="46.60" y1="1049.73" x2="53.40" y2="1042.93" stroke="#1f2937" stroke-width="0.6" stroke-linecap="butt"/>
<line x1="50.00" y1="92.00" x2="89.00" y2="92.00" stroke="#6b7280" stroke-width="0.4" stroke-linecap="butt"/>
<line x1="50.00" y1="1046.33" x2="89.00" y2="1046.33" stroke="#6b7280" stroke-width="0.4" stroke-linecap="butt"/>
<text x="45.50" y="569.17" font-family="Helvetica Neue, Helvetica, Arial, sans-serif" font-size="10.5" fill="#1f2937" text-anchor="middle" font-weight="normal" transform="rotate(-90 45.50 569.17)">92'-0"</text>
<line x1="92.00" y1="1066.33" x2="366.02" y2="1066.33" stroke="#1f2937" stroke-width="0.55" stroke-linecap="butt"/>
<line x1="88.60" y1="1069.73" x2="95.40" y2="1062.93" stroke="#1f2937" stroke-width="0.6" stroke-linecap="butt"/>
<line x1="362.62" y1="1069.73" x2="369.42" y2="1062.93" stroke="#1f2937" stroke-width="0.6" stroke-linecap="butt"/>
<line x1="92.00" y1="1066.33" x2="92.00" y2="1049.33" stroke="#6b7280" stroke-width="0.4" stroke-linecap="butt"/>
<line x1="366.02" y1="1066.33" x2="366.02" y2="1049.33" stroke="#6b7280" stroke-width="0.4" stroke-linecap="butt"/>
<text x="229.01" y="1061.83" font-family="Helvetica Neue, Helvetica, Arial, sans-serif" font-size="10" fill="#1f2937" text-anchor="middle" font-weight="normal">≈31'-0"</text>
<line x1="74.00" y1="92.00" x2="74.00" y2="498.30" stroke="#1f2937" stroke-width="0.55" stroke-linecap="butt"/>
<line x1="70.60" y1="95.40" x2="77.40" y2="88.60" stroke="#1f2937" stroke-width="0.6" stroke-linecap="butt"/>
<line x1="70.60" y1="501.70" x2="77.40" y2="494.90" stroke="#1f2937" stroke-width="0.6" stroke-linecap="butt"/>
<text x="69.50" y="295.15" font-family="Helvetica Neue, Helvetica, Arial, sans-serif" font-size="8.6" fill="#1f2937" text-anchor="middle" font-weight="normal" transform="rotate(-90 69.50 295.15)">43'-0"</text>
<line x1="74.00" y1="498.30" x2="74.00" y2="545.54" stroke="#1f2937" stroke-width="0.55" stroke-linecap="butt"/>
<line x1="70.60" y1="501.70" x2="77.40" y2="494.90" stroke="#1f2937" stroke-width="0.6" stroke-linecap="butt"/>
<line x1="70.60" y1="548.94" x2="77.40" y2="542.14" stroke="#1f2937" stroke-width="0.6" stroke-linecap="butt"/>
<text x="69.50" y="521.92" font-family="Helvetica Neue, Helvetica, Arial, sans-serif" font-size="8.0" fill="#1f2937" text-anchor="middle" font-weight="normal" transform="rotate(-90 69.50 521.92)">5'-0"</text>
<line x1="83.00" y1="280.98" x2="92.00" y2="280.98" stroke="#6b7280" stroke-width="0.45" stroke-linecap="butt"/>
<text x="80.00" y="283.98" font-family="Helvetica Neue, Helvetica, Arial, sans-serif" font-size="8.0" fill="#6b7280" text-anchor="end" font-weight="normal">20'-0"</text>
<line x1="524.76" y1="280.98" x2="531.76" y2="280.98" stroke="#6b7280" stroke-width="0.45" stroke-linecap="butt"/>
<text x="534.76" y="283.98" font-family="Helvetica Neue, Helvetica, Arial, sans-serif" font-size="8.6" fill="#1f2937" text-anchor="start" font-weight="normal">45'-9½"</text>
<line x1="83.00" y1="469.95" x2="92.00" y2="469.95" stroke="#6b7280" stroke-width="0.45" stroke-linecap="butt"/>
<text x="80.00" y="472.95" font-family="Helvetica Neue, Helvetica, Arial, sans-serif" font-size="8.0" fill="#6b7280" text-anchor="end" font-weight="normal">40'-0"</text>
<line x1="506.17" y1="469.95" x2="513.17" y2="469.95" stroke="#6b7280" stroke-width="0.45" stroke-linecap="butt"/>
<text x="516.17" y="472.95" font-family="Helvetica Neue, Helvetica, Arial, sans-serif" font-size="8.6" fill="#1f2937" text-anchor="start" font-weight="normal">43'-10"</text>
<line x1="83.00" y1="658.93" x2="92.00" y2="658.93" stroke="#6b7280" stroke-width="0.45" stroke-linecap="butt"/>
<text x="80.00" y="661.93" font-family="Helvetica Neue, Helvetica, Arial, sans-serif" font-size="8.0" fill="#6b7280" text-anchor="end" font-weight="normal">60'-0"</text>
<line x1="469.01" y1="658.93" x2="476.01" y2="658.93" stroke="#6b7280" stroke-width="0.45" stroke-linecap="butt"/>
<text x="479.01" y="661.93" font-family="Helvetica Neue, Helvetica, Arial, sans-serif" font-size="8.6" fill="#1f2937" text-anchor="start" font-weight="normal">39'-11"</text>
<line x1="83.00" y1="847.91" x2="92.00" y2="847.91" stroke="#6b7280" stroke-width="0.45" stroke-linecap="butt"/>
<text x="80.00" y="850.91" font-family="Helvetica Neue, Helvetica, Arial, sans-serif" font-size="8.0" fill="#6b7280" text-anchor="end" font-weight="normal">80'-0"</text>
<line x1="442.55" y1="847.91" x2="449.55" y2="847.91" stroke="#6b7280" stroke-width="0.45" stroke-linecap="butt"/>
<text x="452.55" y="850.91" font-family="Helvetica Neue, Helvetica, Arial, sans-serif" font-size="8.6" fill="#1f2937" text-anchor="start" font-weight="normal">37'-1"</text>
<line x1="83.00" y1="942.39" x2="92.00" y2="942.39" stroke="#6b7280" stroke-width="0.45" stroke-linecap="butt"/>
<text x="80.00" y="945.39" font-family="Helvetica Neue, Helvetica, Arial, sans-serif" font-size="8.0" fill="#6b7280" text-anchor="end" font-weight="normal">90'-0"</text>
<line x1="417.98" y1="942.39" x2="424.98" y2="942.39" stroke="#6b7280" stroke-width="0.45" stroke-linecap="butt"/>
<text x="427.98" y="945.39" font-family="Helvetica Neue, Helvetica, Arial, sans-serif" font-size="8.6" fill="#1f2937" text-anchor="start" font-weight="normal">34'-6"</text>
<text x="444.16" y="1033.10" font-family="Helvetica Neue, Helvetica, Arial, sans-serif" font-size="7.8" fill="#6b7280" text-anchor="start" font-weight="normal">curved corner</text>
<text x="562.27" y="86.00" font-family="Helvetica Neue, Helvetica, Arial, sans-serif" font-size="9.5" fill="#6b7280" text-anchor="start" font-weight="bold" letter-spacing="1.4">SOUTH</text>
<text x="229.01" y="1090.33" font-family="Helvetica Neue, Helvetica, Arial, sans-serif" font-size="9.5" fill="#6b7280" text-anchor="middle" font-weight="bold" letter-spacing="1.4">NORTH</text>
<text x="34.00" y="392.00" font-family="Helvetica Neue, Helvetica, Arial, sans-serif" font-size="9.5" fill="#6b7280" text-anchor="middle" font-weight="bold" letter-spacing="1.4" transform="rotate(-90 34.00 392.00)">EAST</text>
<text x="642.27" y="342.00" font-family="Helvetica Neue, Helvetica, Arial, sans-serif" font-size="9.5" fill="#1d4ed8" text-anchor="middle" font-weight="bold" letter-spacing="1.0" transform="rotate(-90 642.27 342.00)">WEST — openable glass, views</text>
<text x="520.00" y="946.00" font-family="Helvetica Neue, Helvetica, Arial, sans-serif" font-size="8.4" fill="#6b7280" text-anchor="start" font-weight="normal" letter-spacing="1.2">SCALE</text>
<polygon points="520.00,958.00 567.24,958.00 567.24,963.40 520.00,963.40" fill="#1f2937" stroke="#1f2937" stroke-width="0.5" stroke-linejoin="miter"/>
<polygon points="567.24,958.00 614.49,958.00 614.49,963.40 567.24,963.40" fill="#ffffff" stroke="#1f2937" stroke-width="0.5" stroke-linejoin="miter"/>
<polygon points="614.49,958.00 661.73,958.00 661.73,963.40 614.49,963.40" fill="#1f2937" stroke="#1f2937" stroke-width="0.5" stroke-linejoin="miter"/>
<polygon points="661.73,958.00 708.98,958.00 708.98,963.40 661.73,963.40" fill="#ffffff" stroke="#1f2937" stroke-width="0.5" stroke-linejoin="miter"/>
<text x="520.00" y="975.00" font-family="Helvetica Neue, Helvetica, Arial, sans-serif" font-size="7.6" fill="#1f2937" text-anchor="middle" font-weight="normal">0</text>
<text x="567.24" y="975.00" font-family="Helvetica Neue, Helvetica, Arial, sans-serif" font-size="7.6" fill="#1f2937" text-anchor="middle" font-weight="normal">5</text>
<text x="614.49" y="975.00" font-family="Helvetica Neue, Helvetica, Arial, sans-serif" font-size="7.6" fill="#1f2937" text-anchor="middle" font-weight="normal">10</text>
<text x="661.73" y="975.00" font-family="Helvetica Neue, Helvetica, Arial, sans-serif" font-size="7.6" fill="#1f2937" text-anchor="middle" font-weight="normal">15</text>
<text x="708.98" y="975.00" font-family="Helvetica Neue, Helvetica, Arial, sans-serif" font-size="7.6" fill="#1f2937" text-anchor="middle" font-weight="normal">20</text>
<text x="714.98" y="975.00" font-family="Helvetica Neue, Helvetica, Arial, sans-serif" font-size="7.6" fill="#1f2937" text-anchor="start" font-weight="normal">ft</text>
<line x1="520.00" y1="978.00" x2="769.70" y2="978.00" stroke="#6b7280" stroke-width="0.5" stroke-linecap="butt"/>
<text x="520.00" y="992.00" font-family="Helvetica Neue, Helvetica, Arial, sans-serif" font-size="8.4" fill="#b45309" text-anchor="start" font-weight="bold" letter-spacing="1.0">CHECK YOUR PRINT</text>
<text x="520.00" y="1005.00" font-family="Helvetica Neue, Helvetica, Arial, sans-serif" font-size="8.6" fill="#1f2937" text-anchor="start" font-weight="normal">92'-0" east wall  =  230.0 mm</text>
<text x="520.00" y="1017.00" font-family="Helvetica Neue, Helvetica, Arial, sans-serif" font-size="8.6" fill="#1f2937" text-anchor="start" font-weight="normal">48'-6" south wall  =  121.3 mm</text>
<text x="520.00" y="1031.00" font-family="Helvetica Neue, Helvetica, Arial, sans-serif" font-size="8.0" fill="#6b7280" text-anchor="start" font-weight="normal">1'-0" = 2.5 mm · 5'-0" corridor = 12.5 mm</text>
<text x="520.00" y="1045.00" font-family="Helvetica Neue, Helvetica, Arial, sans-serif" font-size="8.0" fill="#b45309" text-anchor="start" font-weight="normal">REV B — length corrected 101'-0" → 92'-0"</text>
<text x="520.00" y="1057.00" font-family="Helvetica Neue, Helvetica, Arial, sans-serif" font-size="8.0" fill="#6b7280" text-anchor="start" font-weight="normal">1 square = 4'-0"</text>
</svg>