  0
SECTION
  2
HEADER
  9
$ACADVER
  1
AC1032
  9
$ACADMAINTVER
 90
4
  9
$DWGCODEPAGE
  3
ANSI_1252
  9
$LASTSAVEDBY
  1
ezdxf
  9
$REQUIREDVERSIONS
160
0
  9
$INSBASE
 10
0.0
 20
0.0
 30
0.0
  9
$EXTMIN
 10
1e+20
 20
1e+20
 30
1e+20
  9
$EXTMAX
 10
-1e+20
 20
-1e+20
 30
-1e+20
  9
$LIMMIN
 10
0.0
 20
0.0
  9
$LIMMAX
 10
420.0
 20
297.0
  9
$ORTHOMODE
 70
0
  9
$REGENMODE
 70
1
  9
$FILLMODE
 70
1
  9
$QTEXTMODE
 70
0
  9
$MIRRTEXT
 70
1
  9
$LTSCALE
 40
1.0
  9
$ATTMODE
 70
1
  9
$TEXTSIZE
 40
2.5
  9
$TRACEWID
 40
1.0
  9
$TEXTSTYLE
  7
OpenSans
  9
$CLAYER
  8
0
  9
$CELTYPE
  6
ByLayer
  9
$CECOLOR
 62
256
  9
$CELTSCALE
 40
1.0
  9
$DISPSILH
 70
0
  9
$DIMSCALE
 40
1.0
  9
$DIMASZ
 40
0.175
  9
$DIMEXO
 40
0.125
  9
$DIMDLI
 40
3.75
  9
$DIMRND
 40
0.0
  9
$DIMDLE
 40
0.0
  9
$DIMEXE
 40
0.375
  9
$DIMTP
 40
0.0
  9
$DIMTM
 40
0.0
  9
$DIMTXT
 40
0.25
  9
$DIMCEN
 40
2.5
  9
$DIMTSZ
 40
0.0
  9
$DIMTOL
 70
0
  9
$DIMLIM
 70
0
  9
$DIMTIH
 70
0
  9
$DIMTOH
 70
0
  9
$DIMSE1
 70
0
  9
$DIMSE2
 70
0
  9
$DIMTAD
 70
1
  9
$DIMZIN
 70
12
  9
$DIMBLK
  1
ARCHTICK
  9
$DIMASO
 70
1
  9
$DIMSHO
 70
1
  9
$DIMPOST
  1

  9
$DIMAPOST
  1

  9
$DIMALT
 70
0
  9
$DIMALTD
 70
3
  9
$DIMALTF
 40
0.03937007874
  9
$DIMLFAC
 40
100.0
  9
$DIMTOFL
 70
1
  9
$DIMTVP
 40
0.0
  9
$DIMTIX
 70
0
  9
$DIMSOXD
 70
0
  9
$DIMSAH
 70
0
  9
$DIMBLK1
  1

  9
$DIMBLK2
  1

  9
$DIMSTYLE
  2
EZDXF
  9
$DIMCLRD
 70
0
  9
$DIMCLRE
 70
0
  9
$DIMCLRT
 70
0
  9
$DIMTFAC
 40
0.5
  9
$DIMGAP
 40
0.1
  9
$DIMJUST
 70
0
  9
$DIMSD1
 70
0
  9
$DIMSD2
 70
0
  9
$DIMTOLJ
 70
0
  9
$DIMTZIN
 70
8
  9
$DIMALTZ
 70
0
  9
$DIMALTTZ
 70
0
  9
$DIMUPT
 70
1
  9
$DIMDEC
 70
2
  9
$DIMTDEC
 70
2
  9
$DIMALTU
 70
2
  9
$DIMALTTD
 70
3
  9
$DIMTXSTY
  7
OpenSansCondensed-Light
  9
$DIMAUNIT
 70
0
  9
$DIMADEC
 70
2
  9
$DIMALTRND
 40
0.0
  9
$DIMAZIN
 70
3
  9
$DIMDSEP
 70
46
  9
$DIMATFIT
 70
3
  9
$DIMFRAC
 70
0
  9
$DIMLDRBLK
  1

  9
$DIMLUNIT
 70
2
  9
$DIMLWD
 70
-2
  9
$DIMLWE
 70
-2
  9
$DIMTMOVE
 70
2
  9
$DIMFXL
 40
1.0
  9
$DIMFXLON
 70
0
  9
$DIMJOGANG
 40
0.785398163397
  9
$DIMTFILL
 70
0
  9
$DIMTFILLCLR
 70
0
  9
$DIMARCSYM
 70
0
  9
$DIMLTYPE
  6

  9
$DIMLTEX1
  6

  9
$DIMLTEX2
  6

  9
$DIMTXTDIRECTION
 70
0
  9
$LUNITS
 70
2
  9
$LUPREC
 70
4
  9
$SKETCHINC
 40
1.0
  9
$FILLETRAD
 40
10.0
  9
$AUNITS
 70
0
  9
$AUPREC
 70
2
  9
$MENU
  1
.
  9
$ELEVATION
 40
0.0
  9
$PELEVATION
 40
0.0
  9
$THICKNESS
 40
0.0
  9
$LIMCHECK
 70
0
  9
$CHAMFERA
 40
0.0
  9
$CHAMFERB
 40
0.0
  9
$CHAMFERC
 40
0.0
  9
$CHAMFERD
 40
0.0
  9
$SKPOLY
 70
0
  9
$TDCREATE
 40
2461277.4602314816
  9
$TDUCREATE
 40
2458532.153996898
  9
$TDUPDATE
 40
2461277.4602314816
  9
$TDUUPDATE
 40
2458532.1544311
  9
$TDINDWG
 40
0.0
  9
$TDUSRTIMER
 40
0.0
  9
$USRTIMER
 70
1
  9
$ANGBASE
 50
0.0
  9
$ANGDIR
 70
0
  9
$PDMODE
 70
0
  9
$PDSIZE
 40
0.0
  9
$PLINEWID
 40
0.0
  9
$SPLFRAME
 70
0
  9
$SPLINETYPE
 70
6
  9
$SPLINESEGS
 70
8
  9
$HANDSEED
  5
18C
  9
$SURFTAB1
 70
6
  9
$SURFTAB2
 70
6
  9
$SURFTYPE
 70
6
  9
$SURFU
 70
6
  9
$SURFV
 70
6
  9
$UCSBASE
  2

  9
$UCSNAME
  2

  9
$UCSORG
 10
0.0
 20
0.0
 30
0.0
  9
$UCSXDIR
 10
1.0
 20
0.0
 30
0.0
  9
$UCSYDIR
 10
0.0
 20
1.0
 30
0.0
  9
$UCSORTHOREF
  2

  9
$UCSORTHOVIEW
 70
0
  9
$UCSORGTOP
 10
0.0
 20
0.0
 30
0.0
  9
$UCSORGBOTTOM
 10
0.0
 20
0.0
 30
0.0
  9
$UCSORGLEFT
 10
0.0
 20
0.0
 30
0.0
  9
$UCSORGRIGHT
 10
0.0
 20
0.0
 30
0.0
  9
$UCSORGFRONT
 10
0.0
 20
0.0
 30
0.0
  9
$UCSORGBACK
 10
0.0
 20
0.0
 30
0.0
  9
$PUCSBASE
  2

  9
$PUCSNAME
  2

  9
$PUCSORG
 10
0.0
 20
0.0
 30
0.0
  9
$PUCSXDIR
 10
1.0
 20
0.0
 30
0.0
  9
$PUCSYDIR
 10
0.0
 20
1.0
 30
0.0
  9
$PUCSORTHOREF
  2

  9
$PUCSORTHOVIEW
 70
0
  9
$PUCSORGTOP
 10
0.0
 20
0.0
 30
0.0
  9
$PUCSORGBOTTOM
 10
0.0
 20
0.0
 30
0.0
  9
$PUCSORGLEFT
 10
0.0
 20
0.0
 30
0.0
  9
$PUCSORGRIGHT
 10
0.0
 20
0.0
 30
0.0
  9
$PUCSORGFRONT
 10
0.0
 20
0.0
 30
0.0
  9
$PUCSORGBACK
 10
0.0
 20
0.0
 30
0.0
  9
$USERI1
 70
0
  9
$USERI2
 70
0
  9
$USERI3
 70
0
  9
$USERI4
 70
0
  9
$USERI5
 70
0
  9
$USERR1
 40
0.0
  9
$USERR2
 40
0.0
  9
$USERR3
 40
0.0
  9
$USERR4
 40
0.0
  9
$USERR5
 40
0.0
  9
$WORLDVIEW
 70
1
  9
$SHADEDGE
 70
3
  9
$SHADEDIF
 70
70
  9
$TILEMODE
 70
1
  9
$MAXACTVP
 70
64
  9
$PINSBASE
 10
0.0
 20
0.0
 30
0.0
  9
$PLIMCHECK
 70
0
  9
$PEXTMIN
 10
1e+20
 20
1e+20
 30
1e+20
  9
$PEXTMAX
 10
-1e+20
 20
-1e+20
 30
-1e+20
  9
$PLIMMIN
 10
0.0
 20
0.0
  9
$PLIMMAX
 10
420.0
 20
297.0
  9
$UNITMODE
 70
0
  9
$VISRETAIN
 70
1
  9
$PLINEGEN
 70
0
  9
$PSLTSCALE
 70
1
  9
$TREEDEPTH
 70
3020
  9
$CMLSTYLE
  2
Standard
  9
$CMLJUST
 70
0
  9
$CMLSCALE
 40
20.0
  9
$PROXYGRAPHICS
 70
1
  9
$MEASUREMENT
 70
1
  9
$CELWEIGHT
370
-1
  9
$ENDCAPS
280
0
  9
$JOINSTYLE
280
0
  9
$LWDISPLAY
290
0
  9
$INSUNITS
 70
2
  9
$HYPERLINKBASE
  1

  9
$STYLESHEET
  1

  9
$XEDIT
290
1
  9
$CEPSNTYPE
380
0
  9
$PSTYLEMODE
290
1
  9
$FINGERPRINTGUID
  2
{C7ABF230-8A3A-4F79-BCC4-B6650B572A29}
  9
$VERSIONGUID
  2
{501181B1-36BA-478F-9FCF-1B1B2EF59F30}
  9
$EXTNAMES
290
1
  9
$PSVPSCALE
 40
0.0
  9
$OLESTARTUP
290
0
  9
$SORTENTS
280
127
  9
$INDEXCTL
280
0
  9
$HIDETEXT
280
1
  9
$XCLIPFRAME
280
1
  9
$HALOGAP
280
0
  9
$OBSCOLOR
 70
257
  9
$OBSLTYPE
280
0
  9
$INTERSECTIONDISPLAY
280
0
  9
$INTERSECTIONCOLOR
 70
257
  9
$DIMASSOC
280
2
  9
$PROJECTNAME
  1

  9
$CAMERADISPLAY
290
0
  9
$LENSLENGTH
 40
50.0
  9
$CAMERAHEIGHT
 40
0.0
  9
$STEPSPERSEC
 40
24.0
  9
$STEPSIZE
 40
100.0
  9
$3DDWFPREC
 40
2.0
  9
$PSOLWIDTH
 40
0.005
  9
$PSOLHEIGHT
 40
0.08
  9
$LOFTANG1
 40
1.570796326795
  9
$LOFTANG2
 40
1.570796326795
  9
$LOFTMAG1
 40
0.0
  9
$LOFTMAG2
 40
0.0
  9
$LOFTPARAM
 70
7
  9
$LOFTNORMALS
280
1
  9
$LATITUDE
 40
37.795
  9
$LONGITUDE
 40
-122.394
  9
$NORTHDIRECTION
 40
0.0
  9
$TIMEZONE
 70
-8000
  9
$LIGHTGLYPHDISPLAY
280
1
  9
$TILEMODELIGHTSYNCH
280
1
  9
$CMATERIAL
347
20
  9
$SOLIDHIST
280
0
  9
$SHOWHIST
280
1
  9
$DWFFRAME
280
2
  9
$DGNFRAME
280
2
  9
$REALWORLDSCALE
290
1
  9
$INTERFERECOLOR
 62
256
  9
$CSHADOW
280
0
  9
$SHADOWPLANELOCATION
 40
0.0
  0
ENDSEC
  0
SECTION
  2
CLASSES
  0
CLASS
  1
ACDBDICTIONARYWDFLT
  2
AcDbDictionaryWithDefault
  3
ObjectDBX Classes
 90
0
 91
0
280
0
281
0
  0
CLASS
  1
SUN
  2
AcDbSun
  3
SCENEOE
 90
1153
 91
0
280
0
281
0
  0
CLASS
  1
VISUALSTYLE
  2
AcDbVisualStyle
  3
ObjectDBX Classes
 90
4095
 91
0
280
0
281
0
  0
CLASS
  1
MATERIAL
  2
AcDbMaterial
  3
ObjectDBX Classes
 90
1153
 91
0
280
0
281
0
  0
CLASS
  1
SCALE
  2
AcDbScale
  3
ObjectDBX Classes
 90
1153
 91
0
280
0
281
0
  0
CLASS
  1
TABLESTYLE
  2
AcDbTableStyle
  3
ObjectDBX Classes
 90
4095
 91
0
280
0
281
0
  0
CLASS
  1
MLEADERSTYLE
  2
AcDbMLeaderStyle
  3
ACDB_MLEADERSTYLE_CLASS
 90
4095
 91
0
280
0
281
0
  0
CLASS
  1
DICTIONARYVAR
  2
AcDbDictionaryVar
  3
ObjectDBX Classes
 90
0
 91
0
280
0
281
0
  0
CLASS
  1
CELLSTYLEMAP
  2
AcDbCellStyleMap
  3
ObjectDBX Classes
 90
1152
 91
0
280
0
281
0
  0
CLASS
  1
MENTALRAYRENDERSETTINGS
  2
AcDbMentalRayRenderSettings
  3
SCENEOE
 90
1024
 91
0
280
0
281
0
  0
CLASS
  1
ACDBDETAILVIEWSTYLE
  2
AcDbDetailViewStyle
  3
ObjectDBX Classes
 90
1025
 91
0
280
0
281
0
  0
CLASS
  1
ACDBSECTIONVIEWSTYLE
  2
AcDbSectionViewStyle
  3
ObjectDBX Classes
 90
1025
 91
0
280
0
281
0
  0
CLASS
  1
RASTERVARIABLES
  2
AcDbRasterVariables
  3
ISM
 90
0
 91
0
280
0
281
0
  0
CLASS
  1
LAYOUT
  2
AcDbLayout
  3
ObjectDBX Classes
 90
0
 91
0
280
0
281
0
  0
CLASS
  1
ACDBPLACEHOLDER
  2
AcDbPlaceHolder
  3
ObjectDBX Classes
 90
0
 91
0
280
0
281
0
  0
ENDSEC
  0
SECTION
  2
TABLES
  0
TABLE
  2
VPORT
  5
8
330
0
100
AcDbSymbolTable
 70
1
  0
VPORT
  5
23
330
8
100
AcDbSymbolTableRecord
100
AcDbViewportTableRecord
  2
*Active
 70
0
 10
0.0
 20
0.0
 11
1.0
 21
1.0
 12
0.0
 22
0.0
 13
0.0
 23
0.0
 14
0.5
 24
0.5
 15
0.5
 25
0.5
 16
0.0
 26
0.0
 36
1.0
 17
0.0
 27
0.0
 37
0.0
 40
1000.0
 41
1.34
 42
50.0
 43
0.0
 44
0.0
 50
0.0
 51
0.0
 71
0
 72
1000
 73
1
 74
3
 75
0
 76
0
 77
0
 78
0
281
0
 65
0
146
0.0
  0
ENDTAB
  0
TABLE
  2
LTYPE
  5
2
330
0
100
AcDbSymbolTable
 70
21
  0
LTYPE
  5
24
330
2
100
AcDbSymbolTableRecord
100
AcDbLinetypeTableRecord
  2
ByBlock
 70
0
  3

 72
65
 73
0
 40
0.0
  0
LTYPE
  5
25
330
2
100
AcDbSymbolTableRecord
100
AcDbLinetypeTableRecord
  2
ByLayer
 70
0
  3

 72
65
 73
0
 40
0.0
  0
LTYPE
  5
26
330
2
100
AcDbSymbolTableRecord
100
AcDbLinetypeTableRecord
  2
Continuous
 70
0
  3

 72
65
 73
0
 40
0.0
  0
LTYPE
  5
2F
330
2
100
AcDbSymbolTableRecord
100
AcDbLinetypeTableRecord
  2
CENTER
 70
0
  3
Center ____ _ ____ _ ____ _ ____ _ ____ _ ____
 72
65
 73
4
 40
5.08
 49
3.175
 74
0
 49
-0.635
 74
0
 49
0.635
 74
0
 49
-0.635
 74
0
  0
LTYPE
  5
30
330
2
100
AcDbSymbolTableRecord
100
AcDbLinetypeTableRecord
  2
CENTERX2
 70
0
  3
Center (2x) ________  __  ________  __  ________
 72
65
 73
4
 40
8.89
 49
6.35
 74
0
 49
-0.635
 74
0
 49
1.27
 74
0
 49
-0.635
 74
0
  0
LTYPE
  5
31
330
2
100
AcDbSymbolTableRecord
100
AcDbLinetypeTableRecord
  2
CENTER2
 70
0
  3
Center (.5x) ____ _ ____ _ ____ _ ____ _ ____
 72
65
 73
4
 40
2.54
 49
1.587
 74
0
 49
-0.318
 74
0
 49
0.318
 74
0
 49
-0.318
 74
0
  0
LTYPE
  5
32
330
2
100
AcDbSymbolTableRecord
100
AcDbLinetypeTableRecord
  2
DASHED
 70
0
  3
Dashed __ __ __ __ __ __ __ __ __ __ __ __ __ _
 72
65
 73
2
 40
1.524
 49
1.27
 74
0
 49
-0.254
 74
0
  0
LTYPE
  5
33
330
2
100
AcDbSymbolTableRecord
100
AcDbLinetypeTableRecord
  2
DASHEDX2
 70
0
  3
Dashed (2x) ____  ____  ____  ____  ____  ____
 72
65
 73
2
 40
3.048
 49
2.54
 74
0
 49
-0.508
 74
0
  0
LTYPE
  5
34
330
2
100
AcDbSymbolTableRecord
100
AcDbLinetypeTableRecord
  2
DASHED2
 70
0
  3
Dashed (.5x) _ _ _ _ _ _ _ _ _ _ _ _ _ _
 72
65
 73
2
 40
0.762
 49
0.635
 74
0
 49
-0.127
 74
0
  0
LTYPE
  5
35
330
2
100
AcDbSymbolTableRecord
100
AcDbLinetypeTableRecord
  2
PHANTOM
 70
0
  3
Phantom ______  __  __  ______  __  __  ______
 72
65
 73
6
 40
6.35
 49
3.175
 74
0
 49
-0.635
 74
0
 49
0.635
 74
0
 49
-0.635
 74
0
 49
0.635
 74
0
 49
-0.635
 74
0
  0
LTYPE
  5
36
330
2
100
AcDbSymbolTableRecord
100
AcDbLinetypeTableRecord
  2
PHANTOMX2
 70
0
  3
Phantom (2x)____________    ____    ____    ____________
 72
65
 73
6
 40
10.795
 49
6.35
 74
0
 49
-0.635
 74
0
 49
1.27
 74
0
 49
-0.635
 74
0
 49
1.27
 74
0
 49
-0.635
 74
0
  0
LTYPE
  5
37
330
2
100
AcDbSymbolTableRecord
100
AcDbLinetypeTableRecord
  2
PHANTOM2
 70
0
  3
Phantom (.5x) ___ _ _ ___ _ _ ___ _ _ ___ _ _ ___
 72
65
 73
6
 40
3.175
 49
1.587
 74
0
 49
-0.318
 74
0
 49
0.318
 74
0
 49
-0.318
 74
0
 49
0.318
 74
0
 49
-0.318
 74
0
  0
LTYPE
  5
38
330
2
100
AcDbSymbolTableRecord
100
AcDbLinetypeTableRecord
  2
DASHDOT
 70
0
  3
Dash dot __ . __ . __ . __ . __ . __ . __ . __
 72
65
 73
4
 40
3.556
 49
2.54
 74
0
 49
-0.508
 74
0
 49
0.0
 74
0
 49
-0.508
 74
0
  0
LTYPE
  5
39
330
2
100
AcDbSymbolTableRecord
100
AcDbLinetypeTableRecord
  2
DASHDOTX2
 70
0
  3
Dash dot (2x) ____  .  ____  .  ____  .  ____
 72
65
 73
4
 40
6.096
 49
5.08
 74
0
 49
-0.508
 74
0
 49
0.0
 74
0
 49
-0.508
 74
0
  0
LTYPE
  5
3A
330
2
100
AcDbSymbolTableRecord
100
AcDbLinetypeTableRecord
  2
DASHDOT2
 70
0
  3
Dash dot (.5x) _ . _ . _ . _ . _ . _ . _ . _
 72
65
 73
4
 40
1.778
 49
1.27
 74
0
 49
-0.254
 74
0
 49
0.0
 74
0
 49
-0.254
 74
0
  0
LTYPE
  5
3B
330
2
100
AcDbSymbolTableRecord
100
AcDbLinetypeTableRecord
  2
DOT
 70
0
  3
Dot .  .  .  .  .  .  .  .  .  .  .  .  .  .  .  .
 72
65
 73
2
 40
0.508
 49
0.0
 74
0
 49
-0.508
 74
0
  0
LTYPE
  5
3C
330
2
100
AcDbSymbolTableRecord
100
AcDbLinetypeTableRecord
  2
DOTX2
 70
0
  3
Dot (2x) .    .    .    .    .    .    .    . 
 72
65
 73
2
 40
1.016
 49
0.0
 74
0
 49
-1.016
 74
0
  0
LTYPE
  5
3D
330
2
100
AcDbSymbolTableRecord
100
AcDbLinetypeTableRecord
  2
DOT2
 70
0
  3
Dot (.5) . . . . . . . . . . . . . . . . . . . 
 72
65
 73
2
 40
0.254
 49
0.0
 74
0
 49
-0.254
 74
0
  0
LTYPE
  5
3E
330
2
100
AcDbSymbolTableRecord
100
AcDbLinetypeTableRecord
  2
DIVIDE
 70
0
  3
Divide __ . . __ . . __ . . __ . . __ . . __
 72
65
 73
6
 40
4.064
 49
2.54
 74
0
 49
-0.508
 74
0
 49
0.0
 74
0
 49
-0.508
 74
0
 49
0.0
 74
0
 49
-0.508
 74
0
  0
LTYPE
  5
3F
330
2
100
AcDbSymbolTableRecord
100
AcDbLinetypeTableRecord
  2
DIVIDEX2
 70
0
  3
Divide (2x) ____  . .  ____  . .  ____  . .  ____
 72
65
 73
6
 40
6.604
 49
5.08
 74
0
 49
-0.508
 74
0
 49
0.0
 74
0
 49
-0.508
 74
0
 49
0.0
 74
0
 49
-0.508
 74
0
  0
LTYPE
  5
40
330
2
100
AcDbSymbolTableRecord
100
AcDbLinetypeTableRecord
  2
DIVIDE2
 70
0
  3
Divide(.5x) _ . _ . _ . _ . _ . _ . _ . _
 72
65
 73
6
 40
2.032
 49
1.27
 74
0
 49
-0.254
 74
0
 49
0.0
 74
0
 49
-0.254
 74
0
 49
0.0
 74
0
 49
-0.254
 74
0
  0
ENDTAB
  0
TABLE
  2
LAYER
  5
1
330
0
100
AcDbSymbolTable
 70
10
  0
LAYER
  5
27
330
1
100
AcDbSymbolTableRecord
100
AcDbLayerTableRecord
  2
0
 70
0
 62
7
  6
Continuous
370
-3
390
13
347
21
  0
LAYER
  5
28
330
1
100
AcDbSymbolTableRecord
100
AcDbLayerTableRecord
  2
Defpoints
 70
0
 62
7
  6
Continuous
290
0
370
-3
390
13
347
21
  0
LAYER
  5
8A
330
1
100
AcDbSymbolTableRecord
100
AcDbLayerTableRecord
  2
PLATE
 70
0
 62
7
  6
Continuous
370
-3
390
13
347
21
  0
LAYER
  5
8B
330
1
100
AcDbSymbolTableRecord
100
AcDbLayerTableRecord
  2
WALLS
 70
0
 62
7
  6
Continuous
370
-3
390
13
347
21
  0
LAYER
  5
8C
330
1
100
AcDbSymbolTableRecord
100
AcDbLayerTableRecord
  2
WALL_FILL
 70
0
 62
8
  6
Continuous
370
-3
390
13
347
21
  0
LAYER
  5
8D
330
1
100
AcDbSymbolTableRecord
100
AcDbLayerTableRecord
  2
GLASS
 70
0
 62
5
  6
Continuous
370
-3
390
13
347
21
  0
LAYER
  5
8E
330
1
100
AcDbSymbolTableRecord
100
AcDbLayerTableRecord
  2
DOORS
 70
0
 62
1
  6
Continuous
370
-3
390
13
347
21
  0
LAYER
  5
8F
330
1
100
AcDbSymbolTableRecord
100
AcDbLayerTableRecord
  2
TEXT
 70
0
 62
7
  6
Continuous
370
-3
390
13
347
21
  0
LAYER
  5
90
330
1
100
AcDbSymbolTableRecord
100
AcDbLayerTableRecord
  2
FURNITURE
 70
0
 62
8
  6
Continuous
370
-3
390
13
347
21
  0
LAYER
  5
91
330
1
100
AcDbSymbolTableRecord
100
AcDbLayerTableRecord
  2
VOID
 70
0
 62
6
  6
Continuous
370
-3
390
13
347
21
  0
ENDTAB
  0
TABLE
  2
STYLE
  5
5
330
0
100
AcDbSymbolTable
 70
26
  0
STYLE
  5
29
330
5
100
AcDbSymbolTableRecord
100
AcDbTextStyleTableRecord
  2
Standard
 70
0
 40
0.0
 41
1.0
 50
0.0
 71
0
 42
2.5
  3
txt
  4

  0
STYLE
  5
41
330
5
100
AcDbSymbolTableRecord
100
AcDbTextStyleTableRecord
  2
OpenSans-Light
 70
0
 40
0.0
 41
1.0
 50
0.0
 71
0
 42
2.5
  3
OpenSans-Light.ttf
  4

  0
STYLE
  5
42
330
5
100
AcDbSymbolTableRecord
100
AcDbTextStyleTableRecord
  2
OpenSans-Light-Italic
 70
0
 40
0.0
 41
1.0
 50
0.0
 71
0
 42
2.5
  3
OpenSans-LightItalic.ttf
  4

  0
STYLE
  5
43
330
5
100
AcDbSymbolTableRecord
100
AcDbTextStyleTableRecord
  2
OpenSans
 70
0
 40
0.0
 41
1.0
 50
0.0
 71
0
 42
2.5
  3
OpenSans-Regular.ttf
  4

  0
STYLE
  5
44
330
5
100
AcDbSymbolTableRecord
100
AcDbTextStyleTableRecord
  2
OpenSans-Italic
 70
0
 40
0.0
 41
1.0
 50
0.0
 71
0
 42
2.5
  3
OpenSans-Italic.ttf
  4

  0
STYLE
  5
45
330
5
100
AcDbSymbolTableRecord
100
AcDbTextStyleTableRecord
  2
OpenSans-SemiBold
 70
0
 40
0.0
 41
1.0
 50
0.0
 71
0
 42
2.5
  3
OpenSans-SemiBold.ttf
  4

  0
STYLE
  5
46
330
5
100
AcDbSymbolTableRecord
100
AcDbTextStyleTableRecord
  2
OpenSans-SemiBoldItalic
 70
0
 40
0.0
 41
1.0
 50
0.0
 71
0
 42
2.5
  3
OpenSans-SemiBoldItalic.ttf
  4

  0
STYLE
  5
47
330
5
100
AcDbSymbolTableRecord
100
AcDbTextStyleTableRecord
  2
OpenSans-Bold
 70
0
 40
0.0
 41
1.0
 50
0.0
 71
0
 42
2.5
  3
OpenSans-Bold.ttf
  4

  0
STYLE
  5
48
330
5
100
AcDbSymbolTableRecord
100
AcDbTextStyleTableRecord
  2
OpenSans-BoldItalic
 70
0
 40
0.0
 41
1.0
 50
0.0
 71
0
 42
2.5
  3
OpenSans-BoldItalic.ttf
  4

  0
STYLE
  5
49
330
5
100
AcDbSymbolTableRecord
100
AcDbTextStyleTableRecord
  2
OpenSans-ExtraBold
 70
0
 40
0.0
 41
1.0
 50
0.0
 71
0
 42
2.5
  3
OpenSans-ExtraBold.ttf
  4

  0
STYLE
  5
4A
330
5
100
AcDbSymbolTableRecord
100
AcDbTextStyleTableRecord
  2
OpenSans-ExtraBoldItalic
 70
0
 40
0.0
 41
1.0
 50
0.0
 71
0
 42
2.5
  3
OpenSans-ExtraBoldItalic.ttf
  4

  0
STYLE
  5
4B
330
5
100
AcDbSymbolTableRecord
100
AcDbTextStyleTableRecord
  2
OpenSansCondensed-Bold
 70
0
 40
0.0
 41
1.0
 50
0.0
 71
0
 42
2.5
  3
OpenSansCondensed-Bold.ttf
  4

  0
STYLE
  5
4C
330
5
100
AcDbSymbolTableRecord
100
AcDbTextStyleTableRecord
  2
OpenSansCondensed-Light
 70
0
 40
0.0
 41
1.0
 50
0.0
 71
0
 42
2.5
  3
OpenSansCondensed-Light.ttf
  4

  0
STYLE
  5
4D
330
5
100
AcDbSymbolTableRecord
100
AcDbTextStyleTableRecord
  2
OpenSansCondensed-Italic
 70
0
 40
0.0
 41
1.0
 50
0.0
 71
0
 42
2.5
  3
OpenSansCondensed-LightItalic.ttf
  4

  0
STYLE
  5
4E
330
5
100
AcDbSymbolTableRecord
100
AcDbTextStyleTableRecord
  2
LiberationSans
 70
0
 40
0.0
 41
1.0
 50
0.0
 71
0
 42
2.5
  3
LiberationSans-Regular.ttf
  4

  0
STYLE
  5
4F
330
5
100
AcDbSymbolTableRecord
100
AcDbTextStyleTableRecord
  2
LiberationSans-Bold
 70
0
 40
0.0
 41
1.0
 50
0.0
 71
0
 42
2.5
  3
LiberationSans-Bold.ttf
  4

  0
STYLE
  5
50
330
5
100
AcDbSymbolTableRecord
100
AcDbTextStyleTableRecord
  2
LiberationSans-BoldItalic
 70
0
 40
0.0
 41
1.0
 50
0.0
 71
0
 42
2.5
  3
LiberationSans-BoldItalic.ttf
  4

  0
STYLE
  5
51
330
5
100
AcDbSymbolTableRecord
100
AcDbTextStyleTableRecord
  2
LiberationSans-Italic
 70
0
 40
0.0
 41
1.0
 50
0.0
 71
0
 42
2.5
  3
LiberationSans-Italic.ttf
  4

  0
STYLE
  5
52
330
5
100
AcDbSymbolTableRecord
100
AcDbTextStyleTableRecord
  2
LiberationSerif
 70
0
 40
0.0
 41
1.0
 50
0.0
 71
0
 42
2.5
  3
LiberationSerif-Regular.ttf
  4

  0
STYLE
  5
53
330
5
100
AcDbSymbolTableRecord
100
AcDbTextStyleTableRecord
  2
LiberationSerif-Bold
 70
0
 40
0.0
 41
1.0
 50
0.0
 71
0
 42
2.5
  3
LiberationSerif-Bold.ttf
  4

  0
STYLE
  5
54
330
5
100
AcDbSymbolTableRecord
100
AcDbTextStyleTableRecord
  2
LiberationSerif-BoldItalic
 70
0
 40
0.0
 41
1.0
 50
0.0
 71
0
 42
2.5
  3
LiberationSerif-BoldItalic.ttf
  4

  0
STYLE
  5
55
330
5
100
AcDbSymbolTableRecord
100
AcDbTextStyleTableRecord
  2
LiberationSerif-Italic
 70
0
 40
0.0
 41
1.0
 50
0.0
 71
0
 42
2.5
  3
LiberationSerif-Italic.ttf
  4

  0
STYLE
  5
56
330
5
100
AcDbSymbolTableRecord
100
AcDbTextStyleTableRecord
  2
LiberationMono
 70
0
 40
0.0
 41
1.0
 50
0.0
 71
0
 42
2.5
  3
LiberationMono-Regular.ttf
  4

  0
STYLE
  5
57
330
5
100
AcDbSymbolTableRecord
100
AcDbTextStyleTableRecord
  2
LiberationMono-Bold
 70
0
 40
0.0
 41
1.0
 50
0.0
 71
0
 42
2.5
  3
LiberationMono-Bold.ttf
  4

  0
STYLE
  5
58
330
5
100
AcDbSymbolTableRecord
100
AcDbTextStyleTableRecord
  2
LiberationMono-BoldItalic
 70
0
 40
0.0
 41
1.0
 50
0.0
 71
0
 42
2.5
  3
LiberationMono-BoldItalic.ttf
  4

  0
STYLE
  5
59
330
5
100
AcDbSymbolTableRecord
100
AcDbTextStyleTableRecord
  2
LiberationMono-Italic
 70
0
 40
0.0
 41
1.0
 50
0.0
 71
0
 42
2.5
  3
LiberationMono-Italic.ttf
  4

  0
ENDTAB
  0
TABLE
  2
VIEW
  5
7
330
0
100
AcDbSymbolTable
 70
0
  0
ENDTAB
  0
TABLE
  2
UCS
  5
6
330
0
100
AcDbSymbolTable
 70
0
  0
ENDTAB
  0
TABLE
  2
APPID
  5
3
330
0
100
AcDbSymbolTable
 70
3
  0
APPID
  5
2A
330
3
100
AcDbSymbolTableRecord
100
AcDbRegAppTableRecord
  2
ACAD
 70
0
  0
APPID
  5
189
330
3
100
AcDbSymbolTableRecord
100
AcDbRegAppTableRecord
  2
HATCHBACKGROUNDCOLOR
 70
0
  0
APPID
  5
18A
330
3
100
AcDbSymbolTableRecord
100
AcDbRegAppTableRecord
  2
EZDXF
 70
0
  0
ENDTAB
  0
TABLE
  2
DIMSTYLE
  5
4
330
0
100
AcDbSymbolTable
 70
12
100
AcDbDimStyleTable
  0
DIMSTYLE
105
2B
330
4
100
AcDbSymbolTableRecord
100
AcDbDimStyleTableRecord
  2
Standard
 70
0
 40
1.0
 41
2.5
 42
0.625
 43
3.75
 44
1.25
 45
0.0
 46
0.0
 47
0.0
 48
0.0
 49
2.5
140
2.5
141
2.5
142
0.0
143
0.03937007874
144
1.0
145
0.0
146
1.0
147
0.625
148
0.0
 69
0
 70
0
 71
0
 72
0
 73
0
 74
0
 75
0
 76
0
 77
1
 78
8
 79
3
170
0
171
3
172
1
173
0
174
0
175
0
176
0
177
0
178
0
179
2
271
2
272
2
273
2
274
3
275
0
276
0
277
2
278
44
279
0
280
0
281
0
282
0
283
0
284
8
285
0
286
0
288
0
289
3
290
0
371
-2
372
-2
  0
DIMSTYLE
105
73
330
4
100
AcDbSymbolTableRecord
100
AcDbDimStyleTableRecord
  2
EZDXF
 70
0
 40
1.0
 41
0.175
 42
0.125
 43
3.75
 44
0.375
 45
0.0
 46
0.0
 47
0.0
 48
0.0
 49
2.5
140
0.25
141
2.5
142
0.0
143
0.03937007874
144
100.0
145
0.0
146
0.5
147
0.1
148
0.0
 69
0
 70
0
 71
0
 72
0
 73
0
 74
0
 75
0
 76
0
 77
1
 78
12
 79
3
170
0
171
3
172
1
173
0
174
0
175
0
176
0
177
0
178
0
179
2
271
2
272
2
273
2
274
3
275
0
276
0
277
2
278
46
279
2
280
0
281
0
282
0
283
0
284
8
285
0
286
0
288
1
289
3
290
0
340
4C
342
74
371
-2
372
-2
  0
DIMSTYLE
105
7C
330
4
100
AcDbSymbolTableRecord
100
AcDbDimStyleTableRecord
  2
EZ_M_100_H25_CM
 70
0
 40
1.0
 41
0.25
 42
0.125
 43
3.75
 44
0.375
 45
0.0
 46
0.0
 47
0.0
 48
0.0
 49
2.5
140
0.25
141
2.5
142
0.125
143
0.03937007874
144
100.0
145
0.0
146
0.5
147
0.1
148
0.0
 69
0
 70
0
 71
0
 72
0
 73
0
 74
0
 75
0
 76
0
 77
1
 78
12
 79
3
170
0
171
3
172
1
173
0
174
0
175
0
176
0
177
0
178
0
179
2
271
2
272
2
273
2
274
3
275
0
276
0
277
2
278
46
279
2
280
0
281
0
282
0
283
0
284
8
285
0
286
0
288
1
289
3
290
0
340
4C
371
-2
372
-2
  0
DIMSTYLE
105
7D
330
4
100
AcDbSymbolTableRecord
100
AcDbDimStyleTableRecord
  2
EZ_M_50_H25_CM
 70
0
 40
1.0
 41
0.125
 42
0.0625
 43
3.75
 44
0.1875
 45
0.0
 46
0.0
 47
0.0
 48
0.0
 49
2.5
140
0.125
141
2.5
142
0.0625
143
0.03937007874
144
100.0
145
0.0
146
0.5
147
0.05
148
0.0
 69
0
 70
0
 71
0
 72
0
 73
0
 74
0
 75
0
 76
0
 77
1
 78
12
 79
3
170
0
171
3
172
1
173
0
174
0
175
0
176
0
177
0
178
0
179
2
271
2
272
2
273
2
274
3
275
0
276
0
277
2
278
46
279
2
280
0
281
0
282
0
283
0
284
8
285
0
286
0
288
1
289
3
290
0
340
4C
371
-2
372
-2
  0
DIMSTYLE
105
7E
330
4
100
AcDbSymbolTableRecord
100
AcDbDimStyleTableRecord
  2
EZ_M_25_H25_CM
 70
0
 40
1.0
 41
0.0625
 42
0.03125
 43
3.75
 44
0.09375
 45
0.0
 46
0.0
 47
0.0
 48
0.0
 49
2.5
140
0.0625
141
2.5
142
0.03125
143
0.03937007874
144
100.0
145
0.0
146
0.5
147
0.025
148
0.0
 69
0
 70
0
 71
0
 72
0
 73
0
 74
0
 75
0
 76
0
 77
1
 78
12
 79
3
170
0
171
3
172
1
173
0
174
0
175
0
176
0
177
0
178
0
179
2
271
2
272
2
273
2
274
3
275
0
276
0
277
2
278
46
279
2
280
0
281
0
282
0
283
0
284
8
285
0
286
0
288
1
289
3
290
0
340
4C
371
-2
372
-2
  0
DIMSTYLE
105
7F
330
4
100
AcDbSymbolTableRecord
100
AcDbDimStyleTableRecord
  2
EZ_M_20_H25_CM
 70
0
 40
1.0
 41
0.05
 42
0.025
 43
3.75
 44
0.07500000000000001
 45
0.0
 46
0.0
 47
0.0
 48
0.0
 49
2.5
140
0.05
141
2.5
142
0.025
143
0.03937007874
144
100.0
145
0.0
146
0.5
147
0.020000000000000004
148
0.0
 69
0
 70
0
 71
0
 72
0
 73
0
 74
0
 75
0
 76
0
 77
1
 78
12
 79
3
170
0
171
3
172
1
173
0
174
0
175
0
176
0
177
0
178
0
179
2
271
2
272
2
273
2
274
3
275
0
276
0
277
2
278
46
279
2
280
0
281
0
282
0
283
0
284
8
285
0
286
0
288
1
289
3
290
0
340
4C
371
-2
372
-2
  0
DIMSTYLE
105
80
330
4
100
AcDbSymbolTableRecord
100
AcDbDimStyleTableRecord
  2
EZ_M_10_H25_CM
 70
0
 40
1.0
 41
0.025
 42
0.0125
 43
3.75
 44
0.037500000000000006
 45
0.0
 46
0.0
 47
0.0
 48
0.0
 49
2.5
140
0.025
141
2.5
142
0.0125
143
0.03937007874
144
100.0
145
0.0
146
0.5
147
0.010000000000000002
148
0.0
 69
0
 70
0
 71
0
 72
0
 73
0
 74
0
 75
0
 76
0
 77
1
 78
12
 79
3
170
0
171
3
172
1
173
0
174
0
175
0
176
0
177
0
178
0
179
2
271
2
272
2
273
2
274
3
275
0
276
0
277
2
278
46
279
2
280
0
281
0
282
0
283
0
284
8
285
0
286
0
288
1
289
3
290
0
340
4C
371
-2
372
-2
  0
DIMSTYLE
105
81
330
4
100
AcDbSymbolTableRecord
100
AcDbDimStyleTableRecord
  2
EZ_M_5_H25_CM
 70
0
 40
1.0
 41
0.0125
 42
0.00625
 43
3.75
 44
0.018750000000000003
 45
0.0
 46
0.0
 47
0.0
 48
0.0
 49
2.5
140
0.0125
141
2.5
142
0.00625
143
0.03937007874
144
100.0
145
0.0
146
0.5
147
0.005000000000000001
148
0.0
 69
0
 70
0
 71
0
 72
0
 73
0
 74
0
 75
0
 76
0
 77
1
 78
12
 79
3
170
0
171
3
172
1
173
0
174
0
175
0
176
0
177
0
178
0
179
2
271
2
272
2
273
2
274
3
275
0
276
0
277
2
278
46
279
2
280
0
281
0
282
0
283
0
284
8
285
0
286
0
288
1
289
3
290
0
340
4C
371
-2
372
-2
  0
DIMSTYLE
105
82
330
4
100
AcDbSymbolTableRecord
100
AcDbDimStyleTableRecord
  2
EZ_M_1_H25_CM
 70
0
 40
1.0
 41
0.0025
 42
0.00125
 43
3.75
 44
0.00375
 45
0.0
 46
0.0
 47
0.0
 48
0.0
 49
2.5
140
0.0025
141
2.5
142
0.00125
143
0.03937007874
144
100.0
145
0.0
146
0.5
147
0.001
148
0.0
 69
0
 70
0
 71
0
 72
0
 73
0
 74
0
 75
0
 76
0
 77
1
 78
12
 79
3
170
0
171
3
172
1
173
0
174
0
175
0
176
0
177
0
178
0
179
2
271
2
272
2
273
2
274
3
275
0
276
0
277
2
278
46
279
2
280
0
281
0
282
0
283
0
284
8
285
0
286
0
288
1
289
3
290
0
340
4C
371
-2
372
-2
  0
DIMSTYLE
105
83
330
4
100
AcDbSymbolTableRecord
100
AcDbDimStyleTableRecord
  2
EZ_RADIUS
 70
0
 40
1.0
 41
0.25
 42
0.125
 43
3.75
 44
0.375
 45
0.0
 46
0.0
 47
0.0
 48
0.0
 49
2.5
140
0.25
141
0.0
142
0.0
143
0.03937007874
144
100.0
145
0.0
146
0.5
147
0.1
148
0.0
 69
0
 70
0
 71
0
 72
0
 73
0
 74
0
 75
0
 76
0
 77
1
 78
12
 79
3
170
0
171
3
172
0
173
0
174
0
175
0
176
0
177
0
178
0
179
2
271
2
272
2
273
2
274
3
275
0
276
0
277
2
278
46
279
1
280
0
281
0
282
0
283
0
284
8
285
0
286
0
288
1
289
3
290
0
340
4C
342
84
371
-2
372
-2
  0
DIMSTYLE
105
88
330
4
100
AcDbSymbolTableRecord
100
AcDbDimStyleTableRecord
  2
EZ_RADIUS_INSIDE
 70
0
 40
1.0
 41
0.25
 42
0.125
 43
3.75
 44
0.375
 45
0.0
 46
0.0
 47
0.0
 48
0.0
 49
2.5
140
0.25
141
0.0
142
0.0
143
0.03937007874
144
100.0
145
0.0
146
0.5
147
0.1
148
0.0
 69
0
 70
0
 71
0
 72
0
 73
0
 74
0
 75
0
 76
0
 77
0
 78
12
 79
3
170
0
171
3
172
0
173
0
174
1
175
0
176
0
177
0
178
0
179
2
271
2
272
2
273
2
274
3
275
0
276
0
277
2
278
46
279
0
280
0
281
0
282
0
283
0
284
8
285
0
286
0
288
1
289
0
290
0
340
4C
342
84
371
-2
372
-2
  0
DIMSTYLE
105
89
330
4
100
AcDbSymbolTableRecord
100
AcDbDimStyleTableRecord
  2
EZ_CURVED
 70
0
 40
1.0
 41
0.25
 42
0.125
 43
3.75
 44
0.375
 45
0.0
 46
0.0
 47
0.0
 48
0.0
 49
2.5
140
0.25
141
2.5
142
0.0
143
0.03937007874
144
100.0
145
0.0
146
0.5
147
0.1
148
0.0
 69
0
 70
0
 71
0
 72
0
 73
0
 74
0
 75
0
 76
0
 77
1
 78
12
 79
2
 90
2
170
0
171
3
172
1
173
0
174
0
175
0
176
0
177
0
178
0
179
2
271
2
272
2
273
2
274
3
275
0
276
0
277
2
278
46
279
2
280
0
281
0
282
0
283
0
284
8
285
0
286
0
288
1
289
3
290
0
340
4C
371
-2
372
-2
  0
ENDTAB
  0
TABLE
  2
BLOCK_RECORD
  5
9
330
0
100
AcDbSymbolTable
 70
5
  0
BLOCK_RECORD
  5
17
330
9
100
AcDbSymbolTableRecord
100
AcDbBlockTableRecord
  2
*Model_Space
340
1A
 70
0
280
1
281
0
  0
BLOCK_RECORD
  5
1B
330
9
100
AcDbSymbolTableRecord
100
AcDbBlockTableRecord
  2
*Paper_Space
340
1E
 70
0
280
1
281
0
  0
BLOCK_RECORD
  5
74
330
9
100
AcDbSymbolTableRecord
100
AcDbBlockTableRecord
  2
_ARCHTICK
340
0
 70
0
280
1
281
0
  0
BLOCK_RECORD
  5
78
330
9
100
AcDbSymbolTableRecord
100
AcDbBlockTableRecord
  2
_CLOSEDFILLED
340
0
 70
0
280
1
281
0
  0
BLOCK_RECORD
  5
84
330
9
100
AcDbSymbolTableRecord
100
AcDbBlockTableRecord
  2
_CLOSEDBLANK
340
0
 70
0
280
1
281
0
  0
ENDTAB
  0
ENDSEC
  0
SECTION
  2
BLOCKS
  0
BLOCK
  5
18
330
17
100
AcDbEntity
  8
0
100
AcDbBlockBegin
  2
*Model_Space
 70
0
 10
0.0
 20
0.0
 30
0.0
  3
*Model_Space
  1

  0
ENDBLK
  5
19
330
17
100
AcDbEntity
  8
0
100
AcDbBlockEnd
  0
BLOCK
  5
1C
330
1B
100
AcDbEntity
  8
0
100
AcDbBlockBegin
  2
*Paper_Space
 70
0
 10
0.0
 20
0.0
 30
0.0
  3
*Paper_Space
  1

  0
ENDBLK
  5
1D
330
1B
100
AcDbEntity
  8
0
100
AcDbBlockEnd
  0
BLOCK
  5
75
330
74
100
AcDbEntity
  8
0
100
AcDbBlockBegin
  2
_ARCHTICK
 70
0
 10
0.0
 20
0.0
 30
0.0
  3
_ARCHTICK
  1

  0
LWPOLYLINE
  5
77
330
74
100
AcDbEntity
  8
0
  6
BYBLOCK
 62
0
100
AcDbPolyline
 90
2
 70
0
 43
0.15
 10
-0.5
 20
-0.5
 10
0.5
 20
0.5
  0
ENDBLK
  5
76
330
74
100
AcDbEntity
  8
0
100
AcDbBlockEnd
  0
BLOCK
  5
79
330
78
100
AcDbEntity
  8
0
100
AcDbBlockBegin
  2
_CLOSEDFILLED
 70
0
 10
0.0
 20
0.0
 30
0.0
  3
_CLOSEDFILLED
  1

  0
SOLID
  5
7B
330
78
100
AcDbEntity
  8
0
  6
BYBLOCK
 62
0
100
AcDbTrace
 10
-1.0
 20
0.16439898372402537
 30
0.0
 11
0.0
 21
0.0
 31
0.0
 12
-1.0
 22
-0.16439898372402537
 32
0.0
 13
-1.0
 23
-0.16439898372402537
 33
0.0
  0
ENDBLK
  5
7A
330
78
100
AcDbEntity
  8
0
100
AcDbBlockEnd
  0
BLOCK
  5
85
330
84
100
AcDbEntity
  8
0
100
AcDbBlockBegin
  2
_CLOSEDBLANK
 70
0
 10
0.0
 20
0.0
 30
0.0
  3
_CLOSEDBLANK
  1

  0
LWPOLYLINE
  5
87
330
84
100
AcDbEntity
  8
0
  6
BYBLOCK
 62
0
100
AcDbPolyline
 90
3
 70
1
 10
-1.0
 20
0.16439898372402537
 10
0.0
 20
0.0
 10
-1.0
 20
-0.16439898372402537
  0
ENDBLK
  5
86
330
84
100
AcDbEntity
  8
0
100
AcDbBlockEnd
  0
ENDSEC
  0
SECTION
  2
ENTITIES
  0
LWPOLYLINE
  5
92
330
17
100
AcDbEntity
  8
PLATE
100
AcDbPolyline
 90
16
 70
1
 10
0.0
 20
0.0
 10
48.5
 20
0.0
 10
47.3
 20
10.0
 10
45.8
 20
20.0
 10
44.3
 20
30.0
 10
43.6
 20
45.0
 10
41.5
 20
50.0
 10
39.9
 20
60.0
 10
38.5
 20
70.0
 10
37.1
 20
80.0
 10
36.2
 20
85.0
 10
35.0
 20
89.5
 10
33.5
 20
91.0
 10
31.0
 20
92.0
 10
0.0
 20
92.0
 10
0.0
 20
0.0
  0
LWPOLYLINE
  5
93
330
17
100
AcDbEntity
  8
VOID
100
AcDbPolyline
 90
5
 70
1
 10
25.6
 20
40.0
 10
44.0
 20
40.0
 10
42.7
 20
48.0
 10
25.6
 20
48.0
 10
25.6
 20
40.0
  0
HATCH
  5
94
330
17
100
AcDbEntity
  8
WALL_FILL
 62
8
100
AcDbHatch
 10
0.0
 20
0.0
 30
0.0
210
0.0
220
0.0
230
1.0
  2
SOLID
 70
1
 71
0
 91
5
 92
3
 72
0
 73
1
 93
282
 10
36.2
 20
85.0
 10
36.55
 20
83.05555555555559
 10
37.1
 20
80.0
 10
37.107000000000006
 20
79.94999999999999
 10
38.5
 20
70.0
 10
39.9
 20
60.0
 10
41.5
 20
50.0
 10
42.34
 20
48.0
 10
42.6775
 20
47.19642857142857
 10
42.92718446601942
 20
46.60194174757281
 10
43.6
 20
45.0
 10
43.76618705035971
 20
41.43884892086331
 10
43.7895230942546
 20
40.93879083740143
 10
43.833333333333336
 20
40.0
 10
44.3
 20
30.0
 10
44.95
 20
25.66666666666663
 10
45.8
 20
20.0
 10
47.3
 20
10.0
 10
47.306
 20
9.950000000000001
 10
47.849999999999994
 20
5.416666666666702
 10
48.5
 20
0.0
 10
47.849999999999994
 20
0.0
 10
25.95
 20
0.0
 10
20.95
 20
0.0
 10
0.0
 20
0.0
 10
0.0
 20
42.949999999999996
 10
0.0
 20
43.0
 10
0.75
 20
43.0
 10
0.75
 20
42.949999999999996
 10
5.0
 20
42.949999999999996
 10
5.0
 20
42.4
 10
0.75
 20
42.4
 10
0.75
 20
34.8
 10
12.4
 20
34.8
 10
12.4
 20
37.2
 10
12.950000000000001
 20
37.2
 10
12.950000000000001
 20
34.949999999999996
 10
12.950000000000001
 20
34.25
 10
12.950000000000001
 20
32.15
 10
12.4
 20
32.15
 10
12.4
 20
34.4
 10
0.75
 20
34.4
 10
0.75
 20
26.4
 10
4.5
 20
26.4
 10
4.5
 20
26.0
 10
0.75
 20
26.0
 10
0.75
 20
6.0
 10
3.8
 20
6.0
 10
3.8
 20
5.6000000000000005
 10
0.75
 20
5.6000000000000005
 10
0.75
 20
0.75
 10
10.200000000000001
 20
0.75
 10
10.200000000000001
 20
5.6000000000000005
 10
6.2
 20
5.6000000000000005
 10
6.2
 20
6.0
 10
15.3
 20
6.0
 10
15.3
 20
5.6000000000000005
 10
10.6
 20
5.6000000000000005
 10
10.6
 20
0.75
 10
20.4
 20
0.75
 10
20.4
 20
5.6000000000000005
 10
17.7
 20
5.6000000000000005
 10
17.7
 20
6.0
 10
19.7
 20
6.0
 10
19.7
 20
5.9
 10
20.9
 20
5.9
 10
20.9
 20
2.0
 10
26.099999999999998
 20
2.0
 10
26.099999999999998
 20
9.0
 10
24.7
 20
9.0
 10
24.7
 20
9.55
 10
25.95
 20
9.55
 10
25.95
 20
9.950000000000001
 10
27.3
 20
9.950000000000001
 10
27.3
 20
9.4
 10
26.5
 20
9.4
 10
26.5
 20
5.4
 10
26.5
 20
0.75
 10
40.1
 20
0.75
 10
40.1
 20
9.4
 10
29.900000000000002
 20
9.4
 10
29.900000000000002
 20
9.950000000000001
 10
31.05
 20
9.950000000000001
 10
31.05
 20
12.45
 10
20.95
 20
12.45
 10
20.95
 20
9.55
 10
22.3
 20
9.55
 10
22.3
 20
9.0
 10
20.9
 20
9.0
 10
20.9
 20
8.5
 10
20.4
 20
8.5
 10
20.4
 20
26.0
 10
7.5
 20
26.0
 10
7.5
 20
26.4
 10
12.4
 20
26.4
 10
12.4
 20
28.65
 10
12.950000000000001
 20
28.65
 10
12.950000000000001
 20
26.55
 10
20.349999999999998
 20
26.55
 10
20.349999999999998
 20
33.949999999999996
 10
30.599999999999998
 20
33.949999999999996
 10
30.599999999999998
 20
33.9
 10
31.6
 20
33.9
 10
31.6
 20
22.7
 10
31.05
 20
22.7
 10
31.05
 20
25.25
 10
25.8
 20
25.25
 10
25.8
 20
25.8
 10
31.099999999999998
 20
25.8
 10
31.099999999999998
 20
33.4
 10
20.9
 20
33.4
 10
20.9
 20
25.8
 10
23.2
 20
25.8
 10
23.2
 20
25.25
 10
20.95
 20
25.25
 10
20.95
 20
20.95
 10
23.2
 20
20.95
 10
23.2
 20
20.4
 10
20.9
 20
20.4
 10
20.9
 20
13.0
 10
31.099999999999998
 20
13.0
 10
31.099999999999998
 20
20.099999999999998
 10
31.6
 20
20.099999999999998
 10
31.6
 20
9.8
 10
41.0
 20
9.8
 10
41.0
 20
9.4
 10
40.5
 20
9.4
 10
40.5
 20
0.75
 10
47.3
 20
0.75
 10
47.3
 20
3.7051608439929247
 10
46.61661930127915
 20
9.4
 10
43.400000000000006
 20
9.4
 10
43.400000000000006
 20
9.8
 10
44.2
 20
9.8
 10
44.2
 20
22.1
 10
32.6
 20
22.1
 10
32.6
 20
22.5
 10
44.400000000000006
 20
22.5
 10
44.400000000000006
 20
24.277396229294105
 10
43.55829773534877
 20
29.888744660302315
 10
43.55081533519393
 20
29.965038048975718
 10
43.10118377747947
 20
39.6
 10
31.6
 20
39.6
 10
31.6
 20
37.1
 10
31.05
 20
37.1
 10
31.05
 20
39.45
 10
25.05
 20
39.45
 10
25.05
 20
48.25
 10
17.65
 20
48.25
 10
17.65
 20
54.1
 10
18.2
 20
54.1
 10
18.2
 20
48.8
 10
41.190535188222626
 20
48.8
 10
40.808513420794476
 20
49.70957563673368
 10
40.778824487196445
 20
49.79407312042249
 10
40.75941952606247
 20
49.88150712416999
 10
39.30046066592967
 20
59.0
 10
18.2
 20
59.0
 10
18.2
 20
56.9
 10
17.65
 20
56.9
 10
17.65
 20
58.85
 10
17.65
 20
59.55
 10
17.65
 20
64.6
 10
18.2
 20
64.6
 10
18.2
 20
59.4
 10
39.23646066592967
 20
59.4
 10
39.15941952606247
 20
59.88150712416999
 10
39.15724368999425
 20
59.8960141165992
 10
37.82668566631814
 20
69.4
 10
18.2
 20
69.4
 10
18.2
 20
67.4
 10
17.65
 20
67.4
 10
17.65
 20
69.25
 10
17.65
 20
69.95
 10
17.65
 20
74.6
 10
18.2
 20
74.6
 10
18.2
 20
69.8
 10
37.770685666318144
 20
69.8
 10
36.42668566631815
 20
79.39999999999999
 10
18.2
 20
79.39999999999999
 10
18.2
 20
77.4
 10
17.65
 20
77.4
 10
17.65
 20
79.25
 10
17.45
 20
79.25
 10
17.45
 20
79.5
 10
18.900000000000002
 20
79.5
 10
18.900000000000002
 20
79.8
 10
36.0
 20
79.8
 10
36.0
 20
81.87748251248429
 10
35.467346917679826
 20
84.83666630315192
 10
34.327228151356756
 20
89.11211167686342
 10
33.07852424881726
 20
90.36081557940291
 10
30.855563197324546
 20
91.25
 10
18.0
 20
91.25
 10
18.0
 20
82.1
 10
17.45
 20
82.1
 10
17.45
 20
83.45
 10
16.3
 20
83.45
 10
16.3
 20
84.0
 10
17.5
 20
84.0
 10
17.5
 20
89.2
 10
13.0
 20
89.2
 10
13.0
 20
84.0
 10
14.1
 20
84.0
 10
14.1
 20
83.45
 10
13.15
 20
83.45
 10
13.15
 20
82.85000000000001
 10
7.5
 20
82.85000000000001
 10
7.5
 20
83.4
 10
12.6
 20
83.4
 10
12.6
 20
91.25
 10
0.75
 20
91.25
 10
0.75
 20
83.4
 10
4.5
 20
83.4
 10
4.5
 20
82.85000000000001
 10
0.75
 20
82.85000000000001
 10
0.75
 20
80.75
 10
12.750000000000002
 20
80.75
 10
12.750000000000002
 20
78.7
 10
12.200000000000001
 20
78.7
 10
12.200000000000001
 20
80.2
 10
0.75
 20
80.2
 10
0.75
 20
74.8
 10
12.200000000000001
 20
74.8
 10
12.200000000000001
 20
76.3
 10
12.750000000000002
 20
76.3
 10
12.750000000000002
 20
74.95
 10
12.750000000000002
 20
74.25
 10
12.750000000000002
 20
73.10000000000001
 10
12.200000000000001
 20
73.10000000000001
 10
12.200000000000001
 20
74.4
 10
0.75
 20
74.4
 10
0.75
 20
69.4
 10
12.200000000000001
 20
69.4
 10
12.200000000000001
 20
70.7
 10
12.750000000000002
 20
70.7
 10
12.750000000000002
 20
69.55
 10
12.750000000000002
 20
68.85000000000001
 10
12.750000000000002
 20
66.60000000000001
 10
12.200000000000001
 20
66.60000000000001
 10
12.200000000000001
 20
69.0
 10
0.75
 20
69.0
 10
0.75
 20
61.4
 10
12.200000000000001
 20
61.4
 10
12.200000000000001
 20
63.800000000000004
 10
12.750000000000002
 20
63.800000000000004
 10
12.750000000000002
 20
61.55
 10
12.750000000000002
 20
60.85
 10
12.750000000000002
 20
59.5
 10
12.200000000000001
 20
59.5
 10
12.200000000000001
 20
61.0
 10
0.75
 20
61.0
 10
0.75
 20
55.4
 10
12.200000000000001
 20
55.4
 10
12.200000000000001
 20
56.900000000000006
 10
12.750000000000002
 20
56.900000000000006
 10
12.750000000000002
 20
55.349999999999994
 10
12.950000000000001
 20
55.349999999999994
 10
12.950000000000001
 20
48.25
 10
9.9
 20
48.25
 10
9.9
 20
48.8
 10
12.4
 20
48.8
 10
12.4
 20
54.8
 10
5.0
 20
54.8
 10
5.0
 20
48.8
 10
7.3
 20
48.8
 10
7.3
 20
48.25
 10
4.45
 20
48.25
 10
4.45
 20
54.85
 10
0.75
 20
54.85
 10
0.75
 20
48.0
 10
0.0
 20
48.0
 10
0.0
 20
54.85
 10
0.0
 20
80.75
 10
0.0
 20
82.85000000000001
 10
0.0
 20
92.0
 10
13.15
 20
92.0
 10
17.45
 20
92.0
 10
31.0
 20
92.0
 10
33.5
 20
91.0
 10
35.0
 20
89.5
 10
36.2
 20
85.0
 97
0
 92
18
 72
0
 73
1
 93
4
 10
44.75
 20
9.950000000000001
 10
46.549109434394126
 20
9.950000000000001
 10
44.75
 20
21.94406289596081
 10
44.75
 20
9.950000000000001
 97
0
 92
18
 72
0
 73
1
 93
6
 10
43.0825171108128
 20
40.0
 10
42.857014851136576
 20
44.83219127877631
 10
41.526535188222624
 20
48.0
 10
25.6
 20
48.0
 10
25.6
 20
40.0
 10
43.0825171108128
 20
40.0
 97
0
 92
18
 72
0
 73
1
 93
5
 10
17.45
 20
89.75
 10
17.45
 20
91.25
 10
13.15
 20
91.25
 10
13.15
 20
89.75
 10
17.45
 20
89.75
 97
0
 92
18
 72
0
 73
1
 93
5
 10
20.95
 20
1.45
 10
20.95
 20
0.75
 10
25.95
 20
0.75
 10
25.95
 20
1.45
 10
20.95
 20
1.45
 97
0
 75
0
 76
1
 98
0
  0
HATCH
  5
95
330
17
100
AcDbEntity
  8
WALL_FILL
 62
8
100
AcDbHatch
 10
0.0
 20
0.0
 30
0.0
210
0.0
220
0.0
230
1.0
  2
SOLID
 70
1
 71
0
 91
1
 92
3
 72
0
 73
1
 93
5
 10
30.4
 20
20.95
 10
30.4
 20
20.4
 10
25.8
 20
20.4
 10
25.8
 20
20.95
 10
30.4
 20
20.95
 97
0
 75
0
 76
1
 98
0
  0
HATCH
  5
96
330
17
100
AcDbEntity
  8
WALL_FILL
 62
8
100
AcDbHatch
 10
0.0
 20
0.0
 30
0.0
210
0.0
220
0.0
230
1.0
  2
SOLID
 70
1
 71
0
 91
1
 92
3
 72
0
 73
1
 93
7
 10
8.0
 20
42.4
 10
8.0
 20
42.949999999999996
 10
12.950000000000001
 20
42.949999999999996
 10
12.950000000000001
 20
39.8
 10
12.4
 20
39.8
 10
12.4
 20
42.4
 10
8.0
 20
42.4
 97
0
 75
0
 76
1
 98
0
  0
LINE
  5
97
330
17
100
AcDbEntity
  8
GLASS
100
AcDbLine
 10
48.5
 20
0.0
 30
0.0
 11
47.3
 21
10.0
 31
0.0
  0
LINE
  5
98
330
17
100
AcDbEntity
  8
GLASS
100
AcDbLine
 10
47.3
 20
10.0
 30
0.0
 11
45.8
 21
20.0
 31
0.0
  0
LINE
  5
99
330
17
100
AcDbEntity
  8
GLASS
100
AcDbLine
 10
45.8
 20
20.0
 30
0.0
 11
44.3
 21
30.0
 31
0.0
  0
LINE
  5
9A
330
17
100
AcDbEntity
  8
GLASS
100
AcDbLine
 10
44.3
 20
30.0
 30
0.0
 11
43.6
 21
45.0
 31
0.0
  0
LINE
  5
9B
330
17
100
AcDbEntity
  8
GLASS
100
AcDbLine
 10
43.6
 20
45.0
 30
0.0
 11
41.5
 21
50.0
 31
0.0
  0
LINE
  5
9C
330
17
100
AcDbEntity
  8
GLASS
100
AcDbLine
 10
41.5
 20
50.0
 30
0.0
 11
39.9
 21
60.0
 31
0.0
  0
LINE
  5
9D
330
17
100
AcDbEntity
  8
GLASS
100
AcDbLine
 10
39.9
 20
60.0
 30
0.0
 11
38.5
 21
70.0
 31
0.0
  0
LINE
  5
9E
330
17
100
AcDbEntity
  8
GLASS
100
AcDbLine
 10
38.5
 20
70.0
 30
0.0
 11
37.1
 21
80.0
 31
0.0
  0
LINE
  5
9F
330
17
100
AcDbEntity
  8
GLASS
100
AcDbLine
 10
37.1
 20
80.0
 30
0.0
 11
36.2
 21
85.0
 31
0.0
  0
LINE
  5
A0
330
17
100
AcDbEntity
  8
GLASS
100
AcDbLine
 10
36.2
 20
85.0
 30
0.0
 11
35.0
 21
89.5
 31
0.0
  0
LINE
  5
A1
330
17
100
AcDbEntity
  8
GLASS
100
AcDbLine
 10
35.0
 20
89.5
 30
0.0
 11
33.5
 21
91.0
 31
0.0
  0
LINE
  5
A2
330
17
100
AcDbEntity
  8
GLASS
100
AcDbLine
 10
33.5
 20
91.0
 30
0.0
 11
31.0
 21
92.0
 31
0.0
  0
LINE
  5
A3
330
17
100
AcDbEntity
  8
GLASS
100
AcDbLine
 10
31.0
 20
92.0
 30
0.0
 11
10.0
 21
92.0
 31
0.0
  0
LWPOLYLINE
  5
A4
330
17
100
AcDbEntity
  8
WALLS
100
AcDbPolyline
 90
5
 70
1
 10
0.4
 20
0.4
 10
0.4
 20
5.6000000000000005
 10
10.200000000000001
 20
5.6000000000000005
 10
10.200000000000001
 20
0.4
 10
0.4
 20
0.4
  0
TEXT
  5
A5
330
17
100
AcDbEntity
  8
TEXT
100
AcDbText
 10
5.300000000000001
 20
3.0000000000000004
 30
0.0
 40
0.7
  1
Autoclave 9'-10" x 5'-2"
 72
1
 11
5.300000000000001
 21
3.0000000000000004
 31
0.0
100
AcDbText
 73
2
  0
LINE
  5
A6
330
17
100
AcDbEntity
  8
DOORS
100
AcDbLine
 10
3.8
 20
5.8
 30
0.0
 11
6.2
 21
5.8
 31
0.0
  0
LWPOLYLINE
  5
A7
330
17
100
AcDbEntity
  8
FURNITURE
100
AcDbPolyline
 90
4
 70
1
 10
0.7
 20
0.7
 10
9.7
 20
0.7
 10
9.7
 20
2.3
 10
0.7
 20
2.3
  0
LWPOLYLINE
  5
A8
330
17
100
AcDbEntity
  8
WALLS
100
AcDbPolyline
 90
5
 70
1
 10
10.6
 20
0.4
 10
10.6
 20
5.6000000000000005
 10
20.4
 20
5.6000000000000005
 10
20.4
 20
0.4
 10
10.6
 20
0.4
  0
TEXT
  5
A9
330
17
100
AcDbEntity
  8
TEXT
100
AcDbText
 10
15.5
 20
3.0000000000000004
 30
0.0
 40
0.7
  1
Sterile Store / Change 9'-6" x 5'-2"
 72
1
 11
15.5
 21
3.0000000000000004
 31
0.0
100
AcDbText
 73
2
  0
LINE
  5
AA
330
17
100
AcDbEntity
  8
DOORS
100
AcDbLine
 10
15.3
 20
5.8
 30
0.0
 11
17.7
 21
5.8
 31
0.0
  0
LWPOLYLINE
  5
AB
330
17
100
AcDbEntity
  8
FURNITURE
100
AcDbPolyline
 90
4
 70
1
 10
10.9
 20
0.7
 10
12.1
 20
0.7
 10
12.1
 20
5.1000000000000005
 10
10.9
 20
5.1000000000000005
  0
LWPOLYLINE
  5
AC
330
17
100
AcDbEntity
  8
FURNITURE
100
AcDbPolyline
 90
4
 70
1
 10
18.9
 20
0.7
 10
20.099999999999998
 20
0.7
 10
20.099999999999998
 20
5.1000000000000005
 10
18.9
 20
5.1000000000000005
  0
LWPOLYLINE
  5
AD
330
17
100
AcDbEntity
  8
WALLS
100
AcDbPolyline
 90
5
 70
1
 10
0.4
 20
6.0
 10
0.4
 20
26.0
 10
20.4
 20
26.0
 10
20.4
 20
6.0
 10
0.4
 20
6.0
  0
TEXT
  5
AE
330
17
100
AcDbEntity
  8
TEXT
100
AcDbText
 10
10.399999999999999
 20
16.0
 30
0.0
 40
1.1
  1
OPERATION THEATRE 20'-0" x 20'-0"
 72
1
 11
10.399999999999999
 21
16.0
 31
0.0
100
AcDbText
 73
2
  0
LWPOLYLINE
  5
AF
330
17
100
AcDbEntity
  8
FURNITURE
100
AcDbPolyline
 90
4
 70
1
 10
8.6
 20
13.0
 10
11.2
 20
13.0
 10
11.2
 20
19.5
 10
8.6
 20
19.5
  0
LWPOLYLINE
  5
B0
330
17
100
AcDbEntity
  8
FURNITURE
100
AcDbPolyline
 90
4
 70
1
 10
1.0
 20
6.3
 10
7.0
 20
6.3
 10
7.0
 20
7.8
 10
1.0
 20
7.8
  0
LWPOLYLINE
  5
B1
330
17
100
AcDbEntity
  8
FURNITURE
100
AcDbPolyline
 90
4
 70
1
 10
16.6
 20
9.0
 10
18.400000000000002
 20
9.0
 10
18.400000000000002
 20
11.6
 10
16.6
 20
11.6
  0
LWPOLYLINE
  5
B2
330
17
100
AcDbEntity
  8
FURNITURE
100
AcDbPolyline
 90
4
 70
1
 10
16.6
 20
20.0
 10
18.400000000000002
 20
20.0
 10
18.400000000000002
 20
22.6
 10
16.6
 20
22.6
  0
LWPOLYLINE
  5
B3
330
17
100
AcDbEntity
  8
FURNITURE
100
AcDbPolyline
 90
4
 70
1
 10
4.0
 20
22.4
 10
5.8
 20
22.4
 10
5.8
 20
25.0
 10
4.0
 20
25.0
  0
LWPOLYLINE
  5
B4
330
17
100
AcDbEntity
  8
FURNITURE
100
AcDbPolyline
 90
4
 70
1
 10
13.0
 20
24.2
 10
18.5
 20
24.2
 10
18.5
 20
25.599999999999998
 10
13.0
 20
25.599999999999998
  0
LWPOLYLINE
  5
B5
330
17
100
AcDbEntity
  8
FURNITURE
100
AcDbPolyline
 90
4
 70
1
 10
10.4
 20
11.0
 10
11.9
 20
11.0
 10
11.9
 20
12.5
 10
10.4
 20
12.5
  0
LWPOLYLINE
  5
B6
330
17
100
AcDbEntity
  8
WALLS
100
AcDbPolyline
 90
5
 70
1
 10
20.9
 20
2.0
 10
20.9
 20
9.0
 10
26.099999999999998
 20
9.0
 10
26.099999999999998
 20
2.0
 10
20.9
 20
2.0
  0
TEXT
  5
B7
330
17
100
AcDbEntity
  8
TEXT
100
AcDbText
 10
23.5
 20
5.5
 30
0.0
 40
0.7
  1
Scrub 5'-2" x 7'-0"
 72
1
 11
23.5
 21
5.5
 31
0.0
100
AcDbText
 73
2
  0
LINE
  5
B8
330
17
100
AcDbEntity
  8
DOORS
100
AcDbLine
 10
20.8
 20
5.9
 30
0.0
 11
20.8
 21
8.5
 31
0.0
  0
LINE
  5
B9
330
17
100
AcDbEntity
  8
DOORS
100
AcDbLine
 10
22.3
 20
9.1
 30
0.0
 11
24.7
 21
9.1
 31
0.0
  0
LWPOLYLINE
  5
BA
330
17
100
AcDbEntity
  8
FURNITURE
100
AcDbPolyline
 90
4
 70
1
 10
21.3
 20
2.3
 10
22.7
 20
2.3
 10
22.7
 20
3.5
 10
21.3
 20
3.5
  0
LWPOLYLINE
  5
BB
330
17
100
AcDbEntity
  8
FURNITURE
100
AcDbPolyline
 90
4
 70
1
 10
23.0
 20
2.3
 10
24.4
 20
2.3
 10
24.4
 20
3.5
 10
23.0
 20
3.5
  0
LWPOLYLINE
  5
BC
330
17
100
AcDbEntity
  8
WALLS
100
AcDbPolyline
 90
5
 70
1
 10
0.4
 20
26.4
 10
0.4
 20
34.4
 10
12.4
 20
34.4
 10
12.4
 20
26.4
 10
0.4
 20
26.4
  0
TEXT
  5
BD
330
17
100
AcDbEntity
  8
TEXT
100
AcDbText
 10
6.4
 20
30.4
 30
0.0
 40
1.1
  1
RECOVERY / PRE-OP 12'-0" x 8'-0"
 72
1
 11
6.4
 21
30.4
 31
0.0
100
AcDbText
 73
2
  0
LINE
  5
BE
330
17
100
AcDbEntity
  8
DOORS
100
AcDbLine
 10
4.5
 20
26.3
 30
0.0
 11
7.5
 21
26.3
 31
0.0
  0
LINE
  5
BF
330
17
100
AcDbEntity
  8
DOORS
100
AcDbLine
 10
12.5
 20
28.65
 30
0.0
 11
12.5
 21
32.15
 31
0.0
  0
LWPOLYLINE
  5
C0
330
17
100
AcDbEntity
  8
FURNITURE
100
AcDbPolyline
 90
4
 70
1
 10
1.2
 20
27.2
 10
4.4
 20
27.2
 10
4.4
 20
33.8
 10
1.2
 20
33.8
  0
LWPOLYLINE
  5
C1
330
17
100
AcDbEntity
  8
FURNITURE
100
AcDbPolyline
 90
4
 70
1
 10
9.8
 20
27.0
 10
11.600000000000001
 20
27.0
 10
11.600000000000001
 20
29.2
 10
9.8
 20
29.2
  0
LWPOLYLINE
  5
C2
330
17
100
AcDbEntity
  8
WALLS
100
AcDbPolyline
 90
5
 70
1
 10
0.4
 20
34.8
 10
0.4
 20
42.4
 10
12.4
 20
42.4
 10
12.4
 20
34.8
 10
0.4
 20
34.8
  0
TEXT
  5
C3
330
17
100
AcDbEntity
  8
TEXT
100
AcDbText
 10
6.4
 20
38.599999999999994
 30
0.0
 40
1.1
  1
X-RAY / EMERGENCY 12'-0" x 7'-7"
 72
1
 11
6.4
 21
38.599999999999994
 31
0.0
100
AcDbText
 73
2
  0
LINE
  5
C4
330
17
100
AcDbEntity
  8
DOORS
100
AcDbLine
 10
5.0
 20
42.5
 30
0.0
 11
8.0
 21
42.5
 31
0.0
  0
LINE
  5
C5
330
17
100
AcDbEntity
  8
DOORS
100
AcDbLine
 10
12.5
 20
37.2
 30
0.0
 11
12.5
 21
39.8
 31
0.0
  0
LWPOLYLINE
  5
C6
330
17
100
AcDbEntity
  8
FURNITURE
100
AcDbPolyline
 90
4
 70
1
 10
1.2
 20
35.4
 10
3.45
 20
35.4
 10
3.45
 20
40.9
 10
1.2
 20
40.9
  0
LWPOLYLINE
  5
C7
330
17
100
AcDbEntity
  8
FURNITURE
100
AcDbPolyline
 90
4
 70
1
 10
7.2
 20
35.2
 10
11.600000000000001
 20
35.2
 10
11.600000000000001
 20
36.5
 10
7.2
 20
36.5
  0
LWPOLYLINE
  5
C8
330
17
100
AcDbEntity
  8
WALLS
100
AcDbPolyline
 90
5
 70
1
 10
26.5
 20
0.4
 10
26.5
 20
5.4
 10
29.5
 20
5.4
 10
29.5
 20
0.4
 10
26.5
 20
0.4
  0
TEXT
  5
C9
330
17
100
AcDbEntity
  8
TEXT
100
AcDbText
 10
28.0
 20
2.9000000000000004
 30
0.0
 40
0.7
  1
WC 3'-0" x 5'-0"
 72
1
 11
28.0
 21
2.9000000000000004
 31
0.0
100
AcDbText
 73
2
  0
LINE
  5
CA
330
17
100
AcDbEntity
  8
DOORS
100
AcDbLine
 10
29.6
 20
1.7999999999999998
 30
0.0
 11
29.6
 21
3.8
 31
0.0
  0
LWPOLYLINE
  5
CB
330
17
100
AcDbEntity
  8
FURNITURE
100
AcDbPolyline
 90
4
 70
1
 10
27.0
 20
0.8
 10
28.4
 20
0.8
 10
28.4
 20
2.7
 10
27.0
 20
2.7
  0
LWPOLYLINE
  5
CC
330
17
100
AcDbEntity
  8
FURNITURE
100
AcDbPolyline
 90
4
 70
1
 10
27.1
 20
3.6
 10
28.400000000000002
 20
3.6
 10
28.400000000000002
 20
4.7
 10
27.1
 20
4.7
  0
LWPOLYLINE
  5
CD
330
17
100
AcDbEntity
  8
WALLS
100
AcDbPolyline
 90
7
 70
1
 10
26.5
 20
9.4
 10
40.1
 20
9.4
 10
40.1
 20
0.4
 10
29.5
 20
0.4
 10
29.5
 20
5.4
 10
26.5
 20
5.4
 10
26.5
 20
9.4
  0
TEXT
  5
CE
330
17
100
AcDbEntity
  8
TEXT
100
AcDbText
 10
34.8
 20
2.9000000000000004
 30
0.0
 40
1.1
  1
OPD 4 10'-2" x 9'-0" + WC
 72
1
 11
34.8
 21
2.9000000000000004
 31
0.0
100
AcDbText
 73
2
  0
LINE
  5
CF
330
17
100
AcDbEntity
  8
DOORS
100
AcDbLine
 10
27.3
 20
9.5
 30
0.0
 11
29.900000000000002
 21
9.5
 31
0.0
  0
LWPOLYLINE
  5
D0
330
17
100
AcDbEntity
  8
FURNITURE
100
AcDbPolyline
 90
4
 70
1
 10
33.0
 20
4.9
 10
37.6
 20
4.9
 10
37.6
 20
6.9
 10
33.0
 20
6.9
  0
LWPOLYLINE
  5
D1
330
17
100
AcDbEntity
  8
FURNITURE
100
AcDbPolyline
 90
4
 70
1
 10
34.4
 20
7.2
 10
35.8
 20
7.2
 10
35.8
 20
8.6
 10
34.4
 20
8.6
  0
LWPOLYLINE
  5
D2
330
17
100
AcDbEntity
  8
FURNITURE
100
AcDbPolyline
 90
4
 70
1
 10
34.2
 20
2.9
 10
35.6
 20
2.9
 10
35.6
 20
4.3
 10
34.2
 20
4.3
  0
LWPOLYLINE
  5
D3
330
17
100
AcDbEntity
  8
FURNITURE
100
AcDbPolyline
 90
4
 70
1
 10
36.4
 20
2.9
 10
37.8
 20
2.9
 10
37.8
 20
4.3
 10
36.4
 20
4.3
  0
LWPOLYLINE
  5
D4
330
17
100
AcDbEntity
  8
FURNITURE
100
AcDbPolyline
 90
4
 70
1
 10
37.6
 20
0.7
 10
39.85
 20
0.7
 10
39.85
 20
5.9
 10
37.6
 20
5.9
  0
LWPOLYLINE
  5
D5
330
17
100
AcDbEntity
  8
FURNITURE
100
AcDbPolyline
 90
4
 70
1
 10
26.9
 20
6.4
 10
28.299999999999997
 20
6.4
 10
28.299999999999997
 20
7.6000000000000005
 10
26.9
 20
7.6000000000000005
  0
LWPOLYLINE
  5
D6
330
17
100
AcDbEntity
  8
WALLS
100
AcDbPolyline
 90
5
 70
1
 10
44.3
 20
0.4
 10
44.3
 20
5.4
 10
47.3
 20
5.4
 10
47.3
 20
0.4
 10
44.3
 20
0.4
  0
TEXT
  5
D7
330
17
100
AcDbEntity
  8
TEXT
100
AcDbText
 10
45.8
 20
2.9000000000000004
 30
0.0
 40
0.7
  1
Bath 3'-0" x 5'-0"
 72
1
 11
45.8
 21
2.9000000000000004
 31
0.0
100
AcDbText
 73
2
  0
LINE
  5
D8
330
17
100
AcDbEntity
  8
DOORS
100
AcDbLine
 10
44.3
 20
1.7999999999999998
 30
0.0
 11
44.3
 21
3.8
 31
0.0
  0
LWPOLYLINE
  5
D9
330
17
100
AcDbEntity
  8
FURNITURE
100
AcDbPolyline
 90
4
 70
1
 10
44.8
 20
0.8
 10
46.199999999999996
 20
0.8
 10
46.199999999999996
 20
2.7
 10
44.8
 20
2.7
  0
LWPOLYLINE
  5
DA
330
17
100
AcDbEntity
  8
FURNITURE
100
AcDbPolyline
 90
4
 70
1
 10
44.9
 20
3.4
 10
46.1
 20
3.4
 10
46.1
 20
4.6
 10
44.9
 20
4.6
  0
LWPOLYLINE
  5
DB
330
17
100
AcDbEntity
  8
WALLS
100
AcDbPolyline
 90
7
 70
1
 10
40.5
 20
9.4
 10
47.3
 20
9.4
 10
47.3
 20
5.4
 10
44.3
 20
5.4
 10
44.3
 20
0.4
 10
40.5
 20
0.4
 10
40.5
 20
9.4
  0
TEXT
  5
DC
330
17
100
AcDbEntity
  8
TEXT
100
AcDbText
 10
42.4
 20
2.9000000000000004
 30
0.0
 40
0.7
  1
DRS' LOUNGE (w/ bath)
 72
1
 11
42.4
 21
2.9000000000000004
 31
0.0
100
AcDbText
 73
2
  0
LWPOLYLINE
  5
DD
330
17
100
AcDbEntity
  8
FURNITURE
100
AcDbPolyline
 90
4
 70
1
 10
41.2
 20
6.6
 10
46.400000000000006
 20
6.6
 10
46.400000000000006
 20
8.8
 10
41.2
 20
8.8
  0
LWPOLYLINE
  5
DE
330
17
100
AcDbEntity
  8
FURNITURE
100
AcDbPolyline
 90
4
 70
1
 10
40.9
 20
1.0
 10
42.3
 20
1.0
 10
42.3
 20
2.6
 10
40.9
 20
2.6
  0
LWPOLYLINE
  5
DF
330
17
100
AcDbEntity
  8
FURNITURE
100
AcDbPolyline
 90
4
 70
1
 10
41.2
 20
3.6
 10
42.6
 20
3.6
 10
42.6
 20
5.0
 10
41.2
 20
5.0
  0
LWPOLYLINE
  5
E0
330
17
100
AcDbEntity
  8
WALLS
100
AcDbPolyline
 90
5
 70
1
 10
20.9
 20
13.0
 10
20.9
 20
20.4
 10
31.099999999999998
 20
20.4
 10
31.099999999999998
 20
13.0
 10
20.9
 20
13.0
  0
TEXT
  5
E1
330
17
100
AcDbEntity
  8
TEXT
100
AcDbText
 10
26.0
 20
16.7
 30
0.0
 40
1.1
  1
OPD 2 10'-2" x 7'-5"
 72
1
 11
26.0
 21
16.7
 31
0.0
100
AcDbText
 73
2
  0
LINE
  5
E2
330
17
100
AcDbEntity
  8
DOORS
100
AcDbLine
 10
23.2
 20
20.5
 30
0.0
 11
25.8
 21
20.5
 31
0.0
  0
LWPOLYLINE
  5
E3
330
17
100
AcDbEntity
  8
FURNITURE
100
AcDbPolyline
 90
4
 70
1
 10
22.0
 20
16.4
 10
26.6
 20
16.4
 10
26.6
 20
18.4
 10
22.0
 20
18.4
  0
LWPOLYLINE
  5
E4
330
17
100
AcDbEntity
  8
FURNITURE
100
AcDbPolyline
 90
4
 70
1
 10
23.4
 20
14.4
 10
24.799999999999997
 20
14.4
 10
24.799999999999997
 20
15.8
 10
23.4
 20
15.8
  0
LWPOLYLINE
  5
E5
330
17
100
AcDbEntity
  8
FURNITURE
100
AcDbPolyline
 90
4
 70
1
 10
28.4
 20
13.3
 10
30.65
 20
13.3
 10
30.65
 20
18.5
 10
28.4
 20
18.5
  0
LWPOLYLINE
  5
E6
330
17
100
AcDbEntity
  8
WALLS
100
AcDbPolyline
 90
5
 70
1
 10
20.9
 20
25.8
 10
20.9
 20
33.4
 10
31.099999999999998
 20
33.4
 10
31.099999999999998
 20
25.8
 10
20.9
 20
25.8
  0
TEXT
  5
E7
330
17
100
AcDbEntity
  8
TEXT
100
AcDbText
 10
26.0
 20
29.6
 30
0.0
 40
1.1
  1
OPD 1 10'-2" x 7'-7"
 72
1
 11
26.0
 21
29.6
 31
0.0
100
AcDbText
 73
2
  0
LINE
  5
E8
330
17
100
AcDbEntity
  8
DOORS
100
AcDbLine
 10
23.2
 20
25.7
 30
0.0
 11
25.8
 21
25.7
 31
0.0
  0
LWPOLYLINE
  5
E9
330
17
100
AcDbEntity
  8
FURNITURE
100
AcDbPolyline
 90
4
 70
1
 10
22.0
 20
29.4
 10
26.6
 20
29.4
 10
26.6
 20
31.4
 10
22.0
 20
31.4
  0
LWPOLYLINE
  5
EA
330
17
100
AcDbEntity
  8
FURNITURE
100
AcDbPolyline
 90
4
 70
1
 10
23.4
 20
27.4
 10
24.799999999999997
 20
27.4
 10
24.799999999999997
 20
28.799999999999997
 10
23.4
 20
28.799999999999997
  0
LWPOLYLINE
  5
EB
330
17
100
AcDbEntity
  8
FURNITURE
100
AcDbPolyline
 90
4
 70
1
 10
28.4
 20
27.6
 10
30.65
 20
27.6
 10
30.65
 20
32.800000000000004
 10
28.4
 20
32.800000000000004
  0
LWPOLYLINE
  5
EC
330
17
100
AcDbEntity
  8
WALLS
100
AcDbPolyline
 90
5
 70
1
 10
31.6
 20
9.8
 10
31.6
 20
22.1
 10
44.2
 20
22.1
 10
44.2
 20
9.8
 10
31.6
 20
9.8
  0
TEXT
  5
ED
330
17
100
AcDbEntity
  8
TEXT
100
AcDbText
 10
37.900000000000006
 20
15.950000000000001
 30
0.0
 40
1.1
  1
OPD 3 (Sr. Consultant) ≈12' x 12'-4"
 72
1
 11
37.900000000000006
 21
15.950000000000001
 31
0.0
100
AcDbText
 73
2
  0
LINE
  5
EE
330
17
100
AcDbEntity
  8
DOORS
100
AcDbLine
 10
41.0
 20
9.6
 30
0.0
 11
43.400000000000006
 21
9.6
 31
0.0
  0
LINE
  5
EF
330
17
100
AcDbEntity
  8
DOORS
100
AcDbLine
 10
31.5
 20
20.099999999999998
 30
0.0
 11
31.5
 21
22.7
 31
0.0
  0
LWPOLYLINE
  5
F0
330
17
100
AcDbEntity
  8
FURNITURE
100
AcDbPolyline
 90
4
 70
1
 10
33.2
 20
15.0
 10
37.800000000000004
 20
15.0
 10
37.800000000000004
 20
17.2
 10
33.2
 20
17.2
  0
LWPOLYLINE
  5
F1
330
17
100
AcDbEntity
  8
FURNITURE
100
AcDbPolyline
 90
4
 70
1
 10
34.6
 20
13.0
 10
36.0
 20
13.0
 10
36.0
 20
14.4
 10
34.6
 20
14.4
  0
LWPOLYLINE
  5
F2
330
17
100
AcDbEntity
  8
FURNITURE
100
AcDbPolyline
 90
4
 70
1
 10
37.2
 20
13.0
 10
38.6
 20
13.0
 10
38.6
 20
14.4
 10
37.2
 20
14.4
  0
LWPOLYLINE
  5
F3
330
17
100
AcDbEntity
  8
FURNITURE
100
AcDbPolyline
 90
4
 70
1
 10
40.2
 20
10.2
 10
42.45
 20
10.2
 10
42.45
 20
15.7
 10
40.2
 20
15.7
  0
LWPOLYLINE
  5
F4
330
17
100
AcDbEntity
  8
WALLS
100
AcDbPolyline
 90
7
 70
1
 10
44.400000000000006
 20
22.5
 10
31.6
 20
22.5
 10
31.6
 20
39.6
 10
43.852
 20
39.6
 10
44.3
 20
30.0
 10
44.400000000000006
 20
29.333333333333275
 10
44.400000000000006
 20
22.5
  0
TEXT
  5
F5
330
17
100
AcDbEntity
  8
TEXT
100
AcDbText
 10
37.838
 20
34.8
 30
0.0
 40
1.1
  1
WAITING AREA ≈12' x 17' (16 seats)
 72
1
 11
37.838
 21
34.8
 31
0.0
100
AcDbText
 73
2
  0
LINE
  5
F6
330
17
100
AcDbEntity
  8
DOORS
100
AcDbLine
 10
31.7
 20
33.9
 30
0.0
 11
31.7
 21
37.1
 31
0.0
  0
LWPOLYLINE
  5
F7
330
17
100
AcDbEntity
  8
FURNITURE
100
AcDbPolyline
 90
4
 70
1
 10
33.0
 20
23.6
 10
34.4
 20
23.6
 10
34.4
 20
25.0
 10
33.0
 20
25.0
  0
LWPOLYLINE
  5
F8
330
17
100
AcDbEntity
  8
FURNITURE
100
AcDbPolyline
 90
4
 70
1
 10
34.8
 20
23.6
 10
36.199999999999996
 20
23.6
 10
36.199999999999996
 20
25.0
 10
34.8
 20
25.0
  0
LWPOLYLINE
  5
F9
330
17
100
AcDbEntity
  8
FURNITURE
100
AcDbPolyline
 90
4
 70
1
 10
36.6
 20
23.6
 10
38.0
 20
23.6
 10
38.0
 20
25.0
 10
36.6
 20
25.0
  0
LWPOLYLINE
  5
FA
330
17
100
AcDbEntity
  8
FURNITURE
100
AcDbPolyline
 90
4
 70
1
 10
38.4
 20
23.6
 10
39.8
 20
23.6
 10
39.8
 20
25.0
 10
38.4
 20
25.0
  0
LWPOLYLINE
  5
FB
330
17
100
AcDbEntity
  8
FURNITURE
100
AcDbPolyline
 90
4
 70
1
 10
33.0
 20
27.0
 10
34.4
 20
27.0
 10
34.4
 20
28.4
 10
33.0
 20
28.4
  0
LWPOLYLINE
  5
FC
330
17
100
AcDbEntity
  8
FURNITURE
100
AcDbPolyline
 90
4
 70
1
 10
34.8
 20
27.0
 10
36.199999999999996
 20
27.0
 10
36.199999999999996
 20
28.4
 10
34.8
 20
28.4
  0
LWPOLYLINE
  5
FD
330
17
100
AcDbEntity
  8
FURNITURE
100
AcDbPolyline
 90
4
 70
1
 10
36.6
 20
27.0
 10
38.0
 20
27.0
 10
38.0
 20
28.4
 10
36.6
 20
28.4
  0
LWPOLYLINE
  5
FE
330
17
100
AcDbEntity
  8
FURNITURE
100
AcDbPolyline
 90
4
 70
1
 10
38.4
 20
27.0
 10
39.8
 20
27.0
 10
39.8
 20
28.4
 10
38.4
 20
28.4
  0
LWPOLYLINE
  5
FF
330
17
100
AcDbEntity
  8
FURNITURE
100
AcDbPolyline
 90
4
 70
1
 10
33.0
 20
30.4
 10
34.4
 20
30.4
 10
34.4
 20
31.799999999999997
 10
33.0
 20
31.799999999999997
  0
LWPOLYLINE
  5
100
330
17
100
AcDbEntity
  8
FURNITURE
100
AcDbPolyline
 90
4
 70
1
 10
34.8
 20
30.4
 10
36.199999999999996
 20
30.4
 10
36.199999999999996
 20
31.799999999999997
 10
34.8
 20
31.799999999999997
  0
LWPOLYLINE
  5
101
330
17
100
AcDbEntity
  8
FURNITURE
100
AcDbPolyline
 90
4
 70
1
 10
36.6
 20
30.4
 10
38.0
 20
30.4
 10
38.0
 20
31.799999999999997
 10
36.6
 20
31.799999999999997
  0
LWPOLYLINE
  5
102
330
17
100
AcDbEntity
  8
FURNITURE
100
AcDbPolyline
 90
4
 70
1
 10
38.4
 20
30.4
 10
39.8
 20
30.4
 10
39.8
 20
31.799999999999997
 10
38.4
 20
31.799999999999997
  0
LWPOLYLINE
  5
103
330
17
100
AcDbEntity
  8
FURNITURE
100
AcDbPolyline
 90
4
 70
1
 10
33.0
 20
33.8
 10
34.4
 20
33.8
 10
34.4
 20
35.199999999999996
 10
33.0
 20
35.199999999999996
  0
LWPOLYLINE
  5
104
330
17
100
AcDbEntity
  8
FURNITURE
100
AcDbPolyline
 90
4
 70
1
 10
34.8
 20
33.8
 10
36.199999999999996
 20
33.8
 10
36.199999999999996
 20
35.199999999999996
 10
34.8
 20
35.199999999999996
  0
LWPOLYLINE
  5
105
330
17
100
AcDbEntity
  8
FURNITURE
100
AcDbPolyline
 90
4
 70
1
 10
36.6
 20
33.8
 10
38.0
 20
33.8
 10
38.0
 20
35.199999999999996
 10
36.6
 20
35.199999999999996
  0
LWPOLYLINE
  5
106
330
17
100
AcDbEntity
  8
FURNITURE
100
AcDbPolyline
 90
4
 70
1
 10
38.2
 20
33.8
 10
39.6
 20
33.8
 10
39.6
 20
35.199999999999996
 10
38.2
 20
35.199999999999996
  0
LWPOLYLINE
  5
107
330
17
100
AcDbEntity
  8
FURNITURE
100
AcDbPolyline
 90
4
 70
1
 10
32.0
 20
37.6
 10
32.8
 20
37.6
 10
32.8
 20
41.2
 10
32.0
 20
41.2
  0
LWPOLYLINE
  5
108
330
17
100
AcDbEntity
  8
FURNITURE
100
AcDbPolyline
 90
4
 70
1
 10
35.0
 20
38.0
 10
36.4
 20
38.0
 10
36.4
 20
39.4
 10
35.0
 20
39.4
  0
LWPOLYLINE
  5
109
330
17
100
AcDbEntity
  8
FURNITURE
100
AcDbPolyline
 90
4
 70
1
 10
41.8
 20
23.0
 10
43.4
 20
23.0
 10
43.4
 20
24.6
 10
41.8
 20
24.6
  0
LWPOLYLINE
  5
10A
330
17
100
AcDbEntity
  8
WALLS
100
AcDbPolyline
 90
5
 70
1
 10
13.0
 20
44.0
 10
13.0
 20
48.0
 10
19.5
 20
48.0
 10
19.5
 20
44.0
 10
13.0
 20
44.0
  0
TEXT
  5
10B
330
17
100
AcDbEntity
  8
TEXT
100
AcDbText
 10
16.25
 20
46.0
 30
0.0
 40
0.7
  1
RECEPTION
 72
1
 11
16.25
 21
46.0
 31
0.0
100
AcDbText
 73
2
  0
LWPOLYLINE
  5
10C
330
17
100
AcDbEntity
  8
FURNITURE
100
AcDbPolyline
 90
4
 70
1
 10
13.4
 20
44.6
 10
19.0
 20
44.6
 10
19.0
 20
46.5
 10
13.4
 20
46.5
  0
LWPOLYLINE
  5
10D
330
17
100
AcDbEntity
  8
WALLS
100
AcDbPolyline
 90
5
 70
1
 10
5.0
 20
48.8
 10
5.0
 20
54.8
 10
12.4
 20
54.8
 10
12.4
 20
48.8
 10
5.0
 20
48.8
  0
TEXT
  5
10E
330
17
100
AcDbEntity
  8
TEXT
100
AcDbText
 10
8.7
 20
51.8
 30
0.0
 40
0.7
  1
PHARMACY 7'-5" x 6'-0"
 72
1
 11
8.7
 21
51.8
 31
0.0
100
AcDbText
 73
2
  0
LINE
  5
10F
330
17
100
AcDbEntity
  8
DOORS
100
AcDbLine
 10
7.3
 20
48.7
 30
0.0
 11
9.9
 21
48.7
 31
0.0
  0
LWPOLYLINE
  5
110
330
17
100
AcDbEntity
  8
FURNITURE
100
AcDbPolyline
 90
4
 70
1
 10
5.3
 20
49.0
 10
11.899999999999999
 20
49.0
 10
11.899999999999999
 20
50.4
 10
5.3
 20
50.4
  0
LWPOLYLINE
  5
111
330
17
100
AcDbEntity
  8
FURNITURE
100
AcDbPolyline
 90
4
 70
1
 10
5.3
 20
53.2
 10
11.899999999999999
 20
53.2
 10
11.899999999999999
 20
54.5
 10
5.3
 20
54.5
  0
LWPOLYLINE
  5
112
330
17
100
AcDbEntity
  8
WALLS
100
AcDbPolyline
 90
5
 70
1
 10
0.4
 20
55.4
 10
0.4
 20
61.0
 10
12.200000000000001
 20
61.0
 10
12.200000000000001
 20
55.4
 10
0.4
 20
55.4
  0
TEXT
  5
113
330
17
100
AcDbEntity
  8
TEXT
100
AcDbText
 10
6.300000000000001
 20
58.2
 30
0.0
 40
1.1
  1
BP / Exam Room 11'-10" x 5'-7"
 72
1
 11
6.300000000000001
 21
58.2
 31
0.0
100
AcDbText
 73
2
  0
LINE
  5
114
330
17
100
AcDbEntity
  8
DOORS
100
AcDbLine
 10
12.3
 20
56.900000000000006
 30
0.0
 11
12.3
 21
59.5
 31
0.0
  0
LWPOLYLINE
  5
115
330
17
100
AcDbEntity
  8
FURNITURE
100
AcDbPolyline
 90
4
 70
1
 10
0.8
 20
55.8
 10
4.4
 20
55.8
 10
4.4
 20
57.699999999999996
 10
0.8
 20
57.699999999999996
  0
LWPOLYLINE
  5
116
330
17
100
AcDbEntity
  8
FURNITURE
100
AcDbPolyline
 90
4
 70
1
 10
8.6
 20
55.7
 10
10.85
 20
55.7
 10
10.85
 20
60.900000000000006
 10
8.6
 20
60.900000000000006
  0
LWPOLYLINE
  5
117
330
17
100
AcDbEntity
  8
WALLS
100
AcDbPolyline
 90
5
 70
1
 10
0.4
 20
61.4
 10
0.4
 20
69.0
 10
12.200000000000001
 20
69.0
 10
12.200000000000001
 20
61.4
 10
0.4
 20
61.4
  0
TEXT
  5
118
330
17
100
AcDbEntity
  8
TEXT
100
AcDbText
 10
6.300000000000001
 20
65.2
 30
0.0
 40
1.1
  1
NURSING STN. + Obs Bed 11'-10" x 7'-7"
 72
1
 11
6.300000000000001
 21
65.2
 31
0.0
100
AcDbText
 73
2
  0
LINE
  5
119
330
17
100
AcDbEntity
  8
DOORS
100
AcDbLine
 10
12.3
 20
63.800000000000004
 30
0.0
 11
12.3
 21
66.60000000000001
 31
0.0
  0
LWPOLYLINE
  5
11A
330
17
100
AcDbEntity
  8
FURNITURE
100
AcDbPolyline
 90
4
 70
1
 10
0.8
 20
61.7
 10
8.8
 20
61.7
 10
8.8
 20
63.400000000000006
 10
0.8
 20
63.400000000000006
  0
LWPOLYLINE
  5
11B
330
17
100
AcDbEntity
  8
FURNITURE
100
AcDbPolyline
 90
4
 70
1
 10
2.6
 20
63.9
 10
4.0
 20
63.9
 10
4.0
 20
65.3
 10
2.6
 20
65.3
  0
LWPOLYLINE
  5
11C
330
17
100
AcDbEntity
  8
FURNITURE
100
AcDbPolyline
 90
4
 70
1
 10
8.2
 20
63.9
 10
11.2
 20
63.9
 10
11.2
 20
68.5
 10
8.2
 20
68.5
  0
LWPOLYLINE
  5
11D
330
17
100
AcDbEntity
  8
FURNITURE
100
AcDbPolyline
 90
4
 70
1
 10
5.4
 20
66.6
 10
7.0
 20
66.6
 10
7.0
 20
68.6
 10
5.4
 20
68.6
  0
LWPOLYLINE
  5
11E
330
17
100
AcDbEntity
  8
WALLS
100
AcDbPolyline
 90
5
 70
1
 10
0.4
 20
69.4
 10
0.4
 20
74.4
 10
12.200000000000001
 20
74.4
 10
12.200000000000001
 20
69.4
 10
0.4
 20
69.4
  0
TEXT
  5
11F
330
17
100
AcDbEntity
  8
TEXT
100
AcDbText
 10
6.300000000000001
 20
71.9
 30
0.0
 40
0.7
  1
Wash + Bath (2) 11'-10" x 5'-0"
 72
1
 11
6.300000000000001
 21
71.9
 31
0.0
100
AcDbText
 73
2
  0
LINE
  5
120
330
17
100
AcDbEntity
  8
DOORS
100
AcDbLine
 10
12.3
 20
70.7
 30
0.0
 11
12.3
 21
73.10000000000001
 31
0.0
  0
LWPOLYLINE
  5
121
330
17
100
AcDbEntity
  8
FURNITURE
100
AcDbPolyline
 90
4
 70
1
 10
1.2
 20
70.0
 10
2.7
 20
70.0
 10
2.7
 20
72.0
 10
1.2
 20
72.0
  0
LWPOLYLINE
  5
122
330
17
100
AcDbEntity
  8
FURNITURE
100
AcDbPolyline
 90
4
 70
1
 10
4.4
 20
70.0
 10
5.7
 20
70.0
 10
5.7
 20
71.3
 10
4.4
 20
71.3
  0
LWPOLYLINE
  5
123
330
17
100
AcDbEntity
  8
FURNITURE
100
AcDbPolyline
 90
4
 70
1
 10
8.8
 20
70.0
 10
10.200000000000001
 20
70.0
 10
10.200000000000001
 20
71.2
 10
8.8
 20
71.2
  0
LWPOLYLINE
  5
124
330
17
100
AcDbEntity
  8
WALLS
100
AcDbPolyline
 90
5
 70
1
 10
0.4
 20
74.8
 10
0.4
 20
80.2
 10
12.200000000000001
 20
80.2
 10
12.200000000000001
 20
74.8
 10
0.4
 20
74.8
  0
TEXT
  5
125
330
17
100
AcDbEntity
  8
TEXT
100
AcDbText
 10
6.300000000000001
 20
77.5
 30
0.0
 40
1.1
  1
Stores 11'-10" x 5'-5"
 72
1
 11
6.300000000000001
 21
77.5
 31
0.0
100
AcDbText
 73
2
  0
LINE
  5
126
330
17
100
AcDbEntity
  8
DOORS
100
AcDbLine
 10
12.3
 20
76.3
 30
0.0
 11
12.3
 21
78.7
 31
0.0
  0
LWPOLYLINE
  5
127
330
17
100
AcDbEntity
  8
FURNITURE
100
AcDbPolyline
 90
4
 70
1
 10
0.8
 20
75.1
 10
2.0
 20
75.1
 10
2.0
 20
79.69999999999999
 10
0.8
 20
79.69999999999999
  0
LWPOLYLINE
  5
128
330
17
100
AcDbEntity
  8
FURNITURE
100
AcDbPolyline
 90
4
 70
1
 10
10.8
 20
75.1
 10
12.0
 20
75.1
 10
12.0
 20
79.69999999999999
 10
10.8
 20
79.69999999999999
  0
LWPOLYLINE
  5
129
330
17
100
AcDbEntity
  8
WALLS
100
AcDbPolyline
 90
5
 70
1
 10
13.0
 20
84.0
 10
13.0
 20
89.2
 10
17.5
 20
89.2
 10
17.5
 20
84.0
 10
13.0
 20
84.0
  0
TEXT
  5
12A
330
17
100
AcDbEntity
  8
TEXT
100
AcDbText
 10
15.25
 20
86.6
 30
0.0
 40
0.7
  1
Pantry 4'-6" x 5'-2"
 72
1
 11
15.25
 21
86.6
 31
0.0
100
AcDbText
 73
2
  0
LINE
  5
12B
330
17
100
AcDbEntity
  8
DOORS
100
AcDbLine
 10
14.1
 20
83.9
 30
0.0
 11
16.3
 21
83.9
 31
0.0
  0
LWPOLYLINE
  5
12C
330
17
100
AcDbEntity
  8
FURNITURE
100
AcDbPolyline
 90
4
 70
1
 10
13.3
 20
87.6
 10
17.2
 20
87.6
 10
17.2
 20
88.89999999999999
 10
13.3
 20
88.89999999999999
  0
LWPOLYLINE
  5
12D
330
17
100
AcDbEntity
  8
WALLS
100
AcDbPolyline
 90
6
 70
1
 10
18.2
 20
59.0
 10
40.06
 20
59.0
 10
41.5
 20
50.0
 10
42.004000000000005
 20
48.8
 10
18.2
 20
48.8
 10
18.2
 20
59.0
  0
TEXT
  5
12E
330
17
100
AcDbEntity
  8
TEXT
100
AcDbText
 10
31.881999999999998
 20
52.1
 30
0.0
 40
1.1
  1
ROOM 1 ≈23' x 10'-2" (ensuite)
 72
1
 11
31.881999999999998
 21
52.1
 31
0.0
100
AcDbText
 73
2
  0
LINE
  5
12F
330
17
100
AcDbEntity
  8
DOORS
100
AcDbLine
 10
17.9
 20
54.1
 30
0.0
 11
17.9
 21
56.9
 31
0.0
  0
LWPOLYLINE
  5
130
330
17
100
AcDbEntity
  8
FURNITURE
100
AcDbPolyline
 90
4
 70
1
 10
24.0
 20
49.6
 10
27.2
 20
49.6
 10
27.2
 20
56.2
 10
24.0
 20
56.2
  0
LWPOLYLINE
  5
131
330
17
100
AcDbEntity
  8
FURNITURE
100
AcDbPolyline
 90
4
 70
1
 10
27.6
 20
49.4
 10
29.0
 20
49.4
 10
29.0
 20
51.0
 10
27.6
 20
51.0
  0
LWPOLYLINE
  5
132
330
17
100
AcDbEntity
  8
FURNITURE
100
AcDbPolyline
 90
4
 70
1
 10
30.4
 20
50.0
 10
31.799999999999997
 20
50.0
 10
31.799999999999997
 20
51.4
 10
30.4
 20
51.4
  0
LWPOLYLINE
  5
133
330
17
100
AcDbEntity
  8
FURNITURE
100
AcDbPolyline
 90
4
 70
1
 10
38.4
 20
49.3
 10
40.4
 20
49.3
 10
40.4
 20
53.8
 10
38.4
 20
53.8
  0
LWPOLYLINE
  5
134
330
17
100
AcDbEntity
  8
FURNITURE
100
AcDbPolyline
 90
4
 70
1
 10
33.0
 20
56.2
 10
38.5
 20
56.2
 10
38.5
 20
58.5
 10
33.0
 20
58.5
  0
LWPOLYLINE
  5
135
330
17
100
AcDbEntity
  8
FURNITURE
100
AcDbPolyline
 90
4
 70
1
 10
30.0
 20
49.1
 10
33.6
 20
49.1
 10
33.6
 20
49.800000000000004
 10
30.0
 20
49.800000000000004
  0
LWPOLYLINE
  5
136
330
17
100
AcDbEntity
  8
WALLS
100
AcDbPolyline
 90
5
 70
1
 10
18.4
 20
49.0
 10
18.4
 20
54.2
 10
22.599999999999998
 20
54.2
 10
22.599999999999998
 20
49.0
 10
18.4
 20
49.0
  0
TEXT
  5
137
330
17
100
AcDbEntity
  8
TEXT
100
AcDbText
 10
20.5
 20
51.6
 30
0.0
 40
0.7
  1
T
 72
1
 11
20.5
 21
51.6
 31
0.0
100
AcDbText
 73
2
  0
LINE
  5
138
330
17
100
AcDbEntity
  8
DOORS
100
AcDbLine
 10
19.4
 20
54.3
 30
0.0
 11
21.4
 21
54.3
 31
0.0
  0
LWPOLYLINE
  5
139
330
17
100
AcDbEntity
  8
FURNITURE
100
AcDbPolyline
 90
4
 70
1
 10
19.0
 20
49.6
 10
20.5
 20
49.6
 10
20.5
 20
51.6
 10
19.0
 20
51.6
  0
LWPOLYLINE
  5
13A
330
17
100
AcDbEntity
  8
FURNITURE
100
AcDbPolyline
 90
4
 70
1
 10
21.4
 20
49.4
 10
22.599999999999998
 20
49.4
 10
22.599999999999998
 20
50.6
 10
21.4
 20
50.6
  0
LWPOLYLINE
  5
13B
330
17
100
AcDbEntity
  8
FURNITURE
100
AcDbPolyline
 90
4
 70
1
 10
20.9
 20
52.4
 10
22.5
 20
52.4
 10
22.5
 20
54.0
 10
20.9
 20
54.0
  0
LWPOLYLINE
  5
13C
330
17
100
AcDbEntity
  8
WALLS
100
AcDbPolyline
 90
6
 70
1
 10
18.2
 20
69.4
 10
38.583999999999996
 20
69.4
 10
39.9
 20
60.0
 10
39.996
 20
59.4
 10
18.2
 20
59.4
 10
18.2
 20
69.4
  0
TEXT
  5
13D
330
17
100
AcDbEntity
  8
TEXT
100
AcDbText
 10
31.082
 20
62.4
 30
0.0
 40
1.1
  1
ROOM 2 ≈22' x 10'-0" (ensuite)
 72
1
 11
31.082
 21
62.4
 31
0.0
100
AcDbText
 73
2
  0
LINE
  5
13E
330
17
100
AcDbEntity
  8
DOORS
100
AcDbLine
 10
17.9
 20
64.6
 30
0.0
 11
17.9
 21
67.4
 31
0.0
  0
LWPOLYLINE
  5
13F
330
17
100
AcDbEntity
  8
FURNITURE
100
AcDbPolyline
 90
4
 70
1
 10
24.0
 20
60.2
 10
27.2
 20
60.2
 10
27.2
 20
66.8
 10
24.0
 20
66.8
  0
LWPOLYLINE
  5
140
330
17
100
AcDbEntity
  8
FURNITURE
100
AcDbPolyline
 90
4
 70
1
 10
27.6
 20
60.0
 10
29.0
 20
60.0
 10
29.0
 20
61.6
 10
27.6
 20
61.6
  0
LWPOLYLINE
  5
141
330
17
100
AcDbEntity
  8
FURNITURE
100
AcDbPolyline
 90
4
 70
1
 10
30.4
 20
60.6
 10
31.799999999999997
 20
60.6
 10
31.799999999999997
 20
62.0
 10
30.4
 20
62.0
  0
LWPOLYLINE
  5
142
330
17
100
AcDbEntity
  8
FURNITURE
100
AcDbPolyline
 90
4
 70
1
 10
37.4
 20
59.9
 10
39.4
 20
59.9
 10
39.4
 20
64.4
 10
37.4
 20
64.4
  0
LWPOLYLINE
  5
143
330
17
100
AcDbEntity
  8
FURNITURE
100
AcDbPolyline
 90
4
 70
1
 10
32.4
 20
66.6
 10
37.9
 20
66.6
 10
37.9
 20
68.89999999999999
 10
32.4
 20
68.89999999999999
  0
LWPOLYLINE
  5
144
330
17
100
AcDbEntity
  8
FURNITURE
100
AcDbPolyline
 90
4
 70
1
 10
30.0
 20
59.7
 10
33.6
 20
59.7
 10
33.6
 20
60.400000000000006
 10
30.0
 20
60.400000000000006
  0
LWPOLYLINE
  5
145
330
17
100
AcDbEntity
  8
WALLS
100
AcDbPolyline
 90
5
 70
1
 10
18.4
 20
59.6
 10
18.4
 20
64.8
 10
22.599999999999998
 20
64.8
 10
22.599999999999998
 20
59.6
 10
18.4
 20
59.6
  0
TEXT
  5
146
330
17
100
AcDbEntity
  8
TEXT
100
AcDbText
 10
20.5
 20
62.2
 30
0.0
 40
0.7
  1
T
 72
1
 11
20.5
 21
62.2
 31
0.0
100
AcDbText
 73
2
  0
LINE
  5
147
330
17
100
AcDbEntity
  8
DOORS
100
AcDbLine
 10
19.4
 20
64.9
 30
0.0
 11
21.4
 21
64.9
 31
0.0
  0
LWPOLYLINE
  5
148
330
17
100
AcDbEntity
  8
FURNITURE
100
AcDbPolyline
 90
4
 70
1
 10
19.0
 20
60.2
 10
20.5
 20
60.2
 10
20.5
 20
62.2
 10
19.0
 20
62.2
  0
LWPOLYLINE
  5
149
330
17
100
AcDbEntity
  8
FURNITURE
100
AcDbPolyline
 90
4
 70
1
 10
21.4
 20
60.0
 10
22.599999999999998
 20
60.0
 10
22.599999999999998
 20
61.2
 10
21.4
 20
61.2
  0
LWPOLYLINE
  5
14A
330
17
100
AcDbEntity
  8
FURNITURE
100
AcDbPolyline
 90
4
 70
1
 10
20.9
 20
63.0
 10
22.5
 20
63.0
 10
22.5
 20
64.6
 10
20.9
 20
64.6
  0
LWPOLYLINE
  5
14B
330
17
100
AcDbEntity
  8
WALLS
100
AcDbPolyline
 90
6
 70
1
 10
18.2
 20
79.39999999999999
 10
37.184000000000005
 20
79.39999999999999
 10
38.5
 20
70.0
 10
38.528
 20
69.8
 10
18.2
 20
69.8
 10
18.2
 20
79.39999999999999
  0
TEXT
  5
14C
330
17
100
AcDbEntity
  8
TEXT
100
AcDbText
 10
30.368000000000002
 20
72.6
 30
0.0
 40
1.1
  1
ROOM 3 ≈21' x 9'-6" (ensuite)
 72
1
 11
30.368000000000002
 21
72.6
 31
0.0
100
AcDbText
 73
2
  0
LINE
  5
14D
330
17
100
AcDbEntity
  8
DOORS
100
AcDbLine
 10
17.9
 20
74.6
 30
0.0
 11
17.9
 21
77.4
 31
0.0
  0
LWPOLYLINE
  5
14E
330
17
100
AcDbEntity
  8
FURNITURE
100
AcDbPolyline
 90
4
 70
1
 10
24.0
 20
70.6
 10
27.2
 20
70.6
 10
27.2
 20
77.19999999999999
 10
24.0
 20
77.19999999999999
  0
LWPOLYLINE
  5
14F
330
17
100
AcDbEntity
  8
FURNITURE
100
AcDbPolyline
 90
4
 70
1
 10
27.6
 20
70.4
 10
29.0
 20
70.4
 10
29.0
 20
72.0
 10
27.6
 20
72.0
  0
LWPOLYLINE
  5
150
330
17
100
AcDbEntity
  8
FURNITURE
100
AcDbPolyline
 90
4
 70
1
 10
30.4
 20
71.0
 10
31.799999999999997
 20
71.0
 10
31.799999999999997
 20
72.4
 10
30.4
 20
72.4
  0
LWPOLYLINE
  5
151
330
17
100
AcDbEntity
  8
FURNITURE
100
AcDbPolyline
 90
4
 70
1
 10
36.2
 20
70.3
 10
38.2
 20
70.3
 10
38.2
 20
74.8
 10
36.2
 20
74.8
  0
LWPOLYLINE
  5
152
330
17
100
AcDbEntity
  8
FURNITURE
100
AcDbPolyline
 90
4
 70
1
 10
31.4
 20
76.4
 10
36.9
 20
76.4
 10
36.9
 20
78.7
 10
31.4
 20
78.7
  0
LWPOLYLINE
  5
153
330
17
100
AcDbEntity
  8
FURNITURE
100
AcDbPolyline
 90
4
 70
1
 10
30.0
 20
70.1
 10
33.6
 20
70.1
 10
33.6
 20
70.8
 10
30.0
 20
70.8
  0
LWPOLYLINE
  5
154
330
17
100
AcDbEntity
  8
WALLS
100
AcDbPolyline
 90
5
 70
1
 10
18.4
 20
70.0
 10
18.4
 20
75.2
 10
22.599999999999998
 20
75.2
 10
22.599999999999998
 20
70.0
 10
18.4
 20
70.0
  0
TEXT
  5
155
330
17
100
AcDbEntity
  8
TEXT
100
AcDbText
 10
20.5
 20
72.6
 30
0.0
 40
0.7
  1
T
 72
1
 11
20.5
 21
72.6
 31
0.0
100
AcDbText
 73
2
  0
LINE
  5
156
330
17
100
AcDbEntity
  8
DOORS
100
AcDbLine
 10
19.4
 20
75.3
 30
0.0
 11
21.4
 21
75.3
 31
0.0
  0
LWPOLYLINE
  5
157
330
17
100
AcDbEntity
  8
FURNITURE
100
AcDbPolyline
 90
4
 70
1
 10
19.0
 20
70.6
 10
20.5
 20
70.6
 10
20.5
 20
72.6
 10
19.0
 20
72.6
  0
LWPOLYLINE
  5
158
330
17
100
AcDbEntity
  8
FURNITURE
100
AcDbPolyline
 90
4
 70
1
 10
21.4
 20
70.4
 10
22.599999999999998
 20
70.4
 10
22.599999999999998
 20
71.60000000000001
 10
21.4
 20
71.60000000000001
  0
LWPOLYLINE
  5
159
330
17
100
AcDbEntity
  8
FURNITURE
100
AcDbPolyline
 90
4
 70
1
 10
20.9
 20
73.4
 10
22.5
 20
73.4
 10
22.5
 20
75.0
 10
20.9
 20
75.0
  0
LWPOLYLINE
  5
15A
330
17
100
AcDbEntity
  8
WALLS
100
AcDbPolyline
 90
8
 70
1
 10
18.0
 20
79.8
 10
18.0
 20
91.6
 10
32.000000000000014
 20
91.6
 10
33.5
 20
91.0
 10
35.0
 20
89.5
 10
36.0
 20
85.75000000000001
 10
36.0
 20
79.8
 10
18.0
 20
79.8
  0
TEXT
  5
15B
330
17
100
AcDbEntity
  8
TEXT
100
AcDbText
 10
27.0
 20
85.47500000000001
 30
0.0
 40
1.1
  1
ROOM 4 ≈17' x 11'-10" (ensuite)
 72
1
 11
27.0
 21
85.47500000000001
 31
0.0
100
AcDbText
 73
2
  0
LINE
  5
15C
330
17
100
AcDbEntity
  8
DOORS
100
AcDbLine
 10
17.8
 20
79.5
 30
0.0
 11
17.8
 21
82.1
 31
0.0
  0
LWPOLYLINE
  5
15D
330
17
100
AcDbEntity
  8
FURNITURE
100
AcDbPolyline
 90
4
 70
1
 10
24.0
 20
80.8
 10
27.2
 20
80.8
 10
27.2
 20
87.39999999999999
 10
24.0
 20
87.39999999999999
  0
LWPOLYLINE
  5
15E
330
17
100
AcDbEntity
  8
FURNITURE
100
AcDbPolyline
 90
4
 70
1
 10
27.6
 20
80.6
 10
29.0
 20
80.6
 10
29.0
 20
82.19999999999999
 10
27.6
 20
82.19999999999999
  0
LWPOLYLINE
  5
15F
330
17
100
AcDbEntity
  8
FURNITURE
100
AcDbPolyline
 90
4
 70
1
 10
30.2
 20
81.2
 10
31.599999999999998
 20
81.2
 10
31.599999999999998
 20
82.60000000000001
 10
30.2
 20
82.60000000000001
  0
LWPOLYLINE
  5
160
330
17
100
AcDbEntity
  8
FURNITURE
100
AcDbPolyline
 90
4
 70
1
 10
32.4
 20
80.3
 10
34.4
 20
80.3
 10
34.4
 20
84.8
 10
32.4
 20
84.8
  0
LWPOLYLINE
  5
161
330
17
100
AcDbEntity
  8
FURNITURE
100
AcDbPolyline
 90
4
 70
1
 10
27.0
 20
88.8
 10
32.5
 20
88.8
 10
32.5
 20
91.1
 10
27.0
 20
91.1
  0
LWPOLYLINE
  5
162
330
17
100
AcDbEntity
  8
FURNITURE
100
AcDbPolyline
 90
4
 70
1
 10
24.0
 20
80.1
 10
27.6
 20
80.1
 10
27.6
 20
80.8
 10
24.0
 20
80.8
  0
LWPOLYLINE
  5
163
330
17
100
AcDbEntity
  8
WALLS
100
AcDbPolyline
 90
5
 70
1
 10
18.2
 20
80.0
 10
18.2
 20
85.2
 10
22.4
 20
85.2
 10
22.4
 20
80.0
 10
18.2
 20
80.0
  0
TEXT
  5
164
330
17
100
AcDbEntity
  8
TEXT
100
AcDbText
 10
20.299999999999997
 20
82.6
 30
0.0
 40
0.7
  1
T
 72
1
 11
20.299999999999997
 21
82.6
 31
0.0
100
AcDbText
 73
2
  0
LINE
  5
165
330
17
100
AcDbEntity
  8
DOORS
100
AcDbLine
 10
19.2
 20
85.3
 30
0.0
 11
21.2
 21
85.3
 31
0.0
  0
LWPOLYLINE
  5
166
330
17
100
AcDbEntity
  8
FURNITURE
100
AcDbPolyline
 90
4
 70
1
 10
18.8
 20
80.6
 10
20.3
 20
80.6
 10
20.3
 20
82.6
 10
18.8
 20
82.6
  0
LWPOLYLINE
  5
167
330
17
100
AcDbEntity
  8
FURNITURE
100
AcDbPolyline
 90
4
 70
1
 10
21.2
 20
80.4
 10
22.4
 20
80.4
 10
22.4
 20
81.60000000000001
 10
21.2
 20
81.60000000000001
  0
LWPOLYLINE
  5
168
330
17
100
AcDbEntity
  8
FURNITURE
100
AcDbPolyline
 90
4
 70
1
 10
20.7
 20
83.4
 10
22.3
 20
83.4
 10
22.3
 20
85.0
 10
20.7
 20
85.0
  0
LWPOLYLINE
  5
169
330
17
100
AcDbEntity
  8
WALLS
100
AcDbPolyline
 90
5
 70
1
 10
0.4
 20
83.4
 10
0.4
 20
92.0
 10
12.6
 20
92.0
 10
12.6
 20
83.4
 10
0.4
 20
83.4
  0
TEXT
  5
16A
330
17
100
AcDbEntity
  8
TEXT
100
AcDbText
 10
4.5
 20
89.3
 30
0.0
 40
1.1
  1
SUITE ROOM 5 12'-2" x 8'-7" (ensuite)
 72
1
 11
4.5
 21
89.3
 31
0.0
100
AcDbText
 73
2
  0
LINE
  5
16B
330
17
100
AcDbEntity
  8
DOORS
100
AcDbLine
 10
4.5
 20
83.3
 30
0.0
 11
7.5
 21
83.3
 31
0.0
  0
LWPOLYLINE
  5
16C
330
17
100
AcDbEntity
  8
FURNITURE
100
AcDbPolyline
 90
4
 70
1
 10
1.2
 20
84.6
 10
4.4
 20
84.6
 10
4.4
 20
91.19999999999999
 10
1.2
 20
91.19999999999999
  0
LWPOLYLINE
  5
16D
330
17
100
AcDbEntity
  8
FURNITURE
100
AcDbPolyline
 90
4
 70
1
 10
4.8
 20
84.4
 10
6.199999999999999
 20
84.4
 10
6.199999999999999
 20
86.0
 10
4.8
 20
86.0
  0
LWPOLYLINE
  5
16E
330
17
100
AcDbEntity
  8
FURNITURE
100
AcDbPolyline
 90
4
 70
1
 10
10.4
 20
83.8
 10
12.3
 20
83.8
 10
12.3
 20
86.6
 10
10.4
 20
86.6
  0
LWPOLYLINE
  5
16F
330
17
100
AcDbEntity
  8
FURNITURE
100
AcDbPolyline
 90
4
 70
1
 10
4.2
 20
89.4
 10
8.2
 20
89.4
 10
8.2
 20
91.60000000000001
 10
4.2
 20
91.60000000000001
  0
LWPOLYLINE
  5
170
330
17
100
AcDbEntity
  8
FURNITURE
100
AcDbPolyline
 90
4
 70
1
 10
0.9
 20
83.9
 10
4.1000000000000005
 20
83.9
 10
4.1000000000000005
 20
84.60000000000001
 10
0.9
 20
84.60000000000001
  0
LWPOLYLINE
  5
171
330
17
100
AcDbEntity
  8
WALLS
100
AcDbPolyline
 90
5
 70
1
 10
8.6
 20
86.8
 10
8.6
 20
91.8
 10
12.399999999999999
 20
91.8
 10
12.399999999999999
 20
86.8
 10
8.6
 20
86.8
  0
TEXT
  5
172
330
17
100
AcDbEntity
  8
TEXT
100
AcDbText
 10
10.5
 20
89.3
 30
0.0
 40
0.7
  1
T
 72
1
 11
10.5
 21
89.3
 31
0.0
100
AcDbText
 73
2
  0
LINE
  5
173
330
17
100
AcDbEntity
  8
DOORS
100
AcDbLine
 10
8.5
 20
87.9
 30
0.0
 11
8.5
 21
89.9
 31
0.0
  0
LWPOLYLINE
  5
174
330
17
100
AcDbEntity
  8
FURNITURE
100
AcDbPolyline
 90
4
 70
1
 10
9.2
 20
87.4
 10
10.7
 20
87.4
 10
10.7
 20
89.4
 10
9.2
 20
89.4
  0
LWPOLYLINE
  5
175
330
17
100
AcDbEntity
  8
FURNITURE
100
AcDbPolyline
 90
4
 70
1
 10
11.2
 20
87.2
 10
12.399999999999999
 20
87.2
 10
12.399999999999999
 20
88.4
 10
11.2
 20
88.4
  0
LWPOLYLINE
  5
176
330
17
100
AcDbEntity
  8
FURNITURE
100
AcDbPolyline
 90
4
 70
1
 10
10.8
 20
90.1
 10
12.3
 20
90.1
 10
12.3
 20
91.6
 10
10.8
 20
91.6
  0
LWPOLYLINE
  5
177
330
17
100
AcDbEntity
  8
WALLS
100
AcDbPolyline
 90
5
 70
1
 10
20.9
 20
9.4
 10
20.9
 20
12.600000000000001
 10
31.099999999999998
 20
12.600000000000001
 10
31.099999999999998
 20
9.4
 10
20.9
 20
9.4
  0
TEXT
  5
178
330
17
100
AcDbEntity
  8
TEXT
100
AcDbText
 10
26.0
 20
11.0
 30
0.0
 40
0.7
  1
link
 72
1
 11
26.0
 21
11.0
 31
0.0
100
AcDbText
 73
2
  0
LWPOLYLINE
  5
179
330
17
100
AcDbEntity
  8
WALLS
100
AcDbPolyline
 90
5
 70
1
 10
12.8
 20
26.2
 10
12.8
 20
42.8
 10
20.5
 20
42.8
 10
20.5
 20
26.2
 10
12.8
 20
26.2
  0
TEXT
  5
17A
330
17
100
AcDbEntity
  8
TEXT
100
AcDbText
 10
16.65
 20
34.5
 30
0.0
 40
1.1
  1
7'-8" w. spine
 72
1
 11
16.65
 21
34.5
 31
0.0
100
AcDbText
 73
2
  0
LWPOLYLINE
  5
17B
330
17
100
AcDbEntity
  8
WALLS
100
AcDbPolyline
 90
5
 70
1
 10
20.9
 20
20.8
 10
20.9
 20
25.4
 10
31.099999999999998
 20
25.4
 10
31.099999999999998
 20
20.8
 10
20.9
 20
20.8
  0
TEXT
  5
17C
330
17
100
AcDbEntity
  8
TEXT
100
AcDbText
 10
26.0
 20
23.1
 30
0.0
 40
0.7
  1
OPD LOBBY
 72
1
 11
26.0
 21
23.1
 31
0.0
100
AcDbText
 73
2
  0
LWPOLYLINE
  5
17D
330
17
100
AcDbEntity
  8
WALLS
100
AcDbPolyline
 90
5
 70
1
 10
22.0
 20
34.0
 10
22.0
 20
39.5
 10
31.0
 20
39.5
 10
31.0
 20
34.0
 10
22.0
 20
34.0
  0
TEXT
  5
17E
330
17
100
AcDbEntity
  8
TEXT
100
AcDbText
 10
26.5
 20
36.75
 30
0.0
 40
0.7
  1
overflow seating
 72
1
 11
26.5
 21
36.75
 31
0.0
100
AcDbText
 73
2
  0
LWPOLYLINE
  5
17F
330
17
100
AcDbEntity
  8
FURNITURE
100
AcDbPolyline
 90
4
 70
1
 10
22.6
 20
34.6
 10
24.0
 20
34.6
 10
24.0
 20
36.0
 10
22.6
 20
36.0
  0
LWPOLYLINE
  5
180
330
17
100
AcDbEntity
  8
FURNITURE
100
AcDbPolyline
 90
4
 70
1
 10
24.4
 20
34.6
 10
25.799999999999997
 20
34.6
 10
25.799999999999997
 20
36.0
 10
24.4
 20
36.0
  0
LWPOLYLINE
  5
181
330
17
100
AcDbEntity
  8
FURNITURE
100
AcDbPolyline
 90
4
 70
1
 10
26.2
 20
34.6
 10
27.599999999999998
 20
34.6
 10
27.599999999999998
 20
36.0
 10
26.2
 20
36.0
  0
LWPOLYLINE
  5
182
330
17
100
AcDbEntity
  8
FURNITURE
100
AcDbPolyline
 90
4
 70
1
 10
28.0
 20
34.6
 10
29.4
 20
34.6
 10
29.4
 20
36.0
 10
28.0
 20
36.0
  0
LWPOLYLINE
  5
183
330
17
100
AcDbEntity
  8
FURNITURE
100
AcDbPolyline
 90
4
 70
1
 10
22.6
 20
37.2
 10
24.0
 20
37.2
 10
24.0
 20
38.6
 10
22.6
 20
38.6
  0
LWPOLYLINE
  5
184
330
17
100
AcDbEntity
  8
FURNITURE
100
AcDbPolyline
 90
4
 70
1
 10
24.4
 20
37.2
 10
25.799999999999997
 20
37.2
 10
25.799999999999997
 20
38.6
 10
24.4
 20
38.6
  0
LWPOLYLINE
  5
185
330
17
100
AcDbEntity
  8
WALLS
100
AcDbPolyline
 90
5
 70
1
 10
0.4
 20
42.8
 10
0.4
 20
48.4
 10
25.4
 20
48.4
 10
25.4
 20
42.8
 10
0.4
 20
42.8
  0
TEXT
  5
186
330
17
100
AcDbEntity
  8
TEXT
100
AcDbText
 10
12.899999999999999
 20
45.599999999999994
 30
0.0
 40
1.1
  1
ENTRY LOBBY
 72
1
 11
12.899999999999999
 21
45.599999999999994
 31
0.0
100
AcDbText
 73
2
  0
LWPOLYLINE
  5
187
330
17
100
AcDbEntity
  8
WALLS
100
AcDbPolyline
 90
5
 70
1
 10
12.6
 20
48.8
 10
12.6
 20
83.19999999999999
 10
17.6
 20
83.19999999999999
 10
17.6
 20
48.8
 10
12.6
 20
48.8
  0
TEXT
  5
188
330
17
100
AcDbEntity
  8
TEXT
100
AcDbText
 10
15.100000000000001
 20
66.0
 30
0.0
 40
1.1
  1
5'-0" w. Passage
 72
1
 11
15.100000000000001
 21
66.0
 31
0.0
100
AcDbText
 73
2
  0
ENDSEC
  0
SECTION
  2
OBJECTS
  0
DICTIONARY
  5
A
330
0
100
AcDbDictionary
281
1
  3
ACAD_COLOR
350
B
  3
ACAD_GROUP
350
C
  3
ACAD_LAYOUT
350
D
  3
ACAD_MATERIAL
350
E
  3
ACAD_MLEADERSTYLE
350
F
  3
ACAD_MLINESTYLE
350
10
  3
ACAD_PLOTSETTINGS
350
11
  3
ACAD_PLOTSTYLENAME
350
12
  3
ACAD_SCALELIST
350
14
  3
ACAD_TABLESTYLE
350
15
  3
ACAD_VISUALSTYLE
350
16
  3
EZDXF_META
350
2D
  0
DICTIONARY
  5
B
330
A
100
AcDbDictionary
281
1
  0
DICTIONARY
  5
C
330
A
100
AcDbDictionary
281
1
  0
DICTIONARY
  5
D
330
A
100
AcDbDictionary
281
1
  3
Model
350
1A
  3
Layout1
350
1E
  0
DICTIONARY
  5
E
330
A
100
AcDbDictionary
281
1
  3
ByBlock
350
1F
  3
ByLayer
350
20
  3
Global
350
21
  0
DICTIONARY
  5
F
330
A
100
AcDbDictionary
281
1
  3
Standard
350
2C
  0
DICTIONARY
  5
10
330
A
100
AcDbDictionary
281
1
  3
Standard
350
22
  0
DICTIONARY
  5
11
330
A
100
AcDbDictionary
281
1
  0
ACDBDICTIONARYWDFLT
  5
12
330
A
100
AcDbDictionary
281
1
  3
Normal
350
13
100
AcDbDictionaryWithDefault
340
13
  0
ACDBPLACEHOLDER
  5
13
330
12
  0
DICTIONARY
  5
14
330
A
100
AcDbDictionary
281
1
  0
DICTIONARY
  5
15
330
A
100
AcDbDictionary
281
1
  0
DICTIONARY
  5
16
330
A
100
AcDbDictionary
281
1
  3
2dWireframe
350
5A
  3
Basic
350
5B
  3
Brighten
350
5C
  3
ColorChange
350
5D
  3
Conceptual
350
5E
  3
Dim
350
5F
  3
EdgeColorOff
350
60
  3
Facepattern
350
61
  3
Flat
350
62
  3
FlatWithEdges
350
63
  3
Gouraud
350
64
  3
GouraudWithEdges
350
65
  3
Hidden
350
66
  3
JitterOff
350
67
  3
Linepattern
350
68
  3
Modeling
350
69
  3
OverhangOff
350
6A
  3
Realistic
350
6B
  3
Shaded
350
6C
  3
Shaded with edges
350
6D
  3
Shades of Gray
350
6E
  3
Sketchy
350
6F
  3
Thicken
350
70
  3
Wireframe
350
71
  3
X-Ray
350
72
  0
LAYOUT
  5
1A
330
D
100
AcDbPlotSettings
  1

  4
A3
  6

 40
7.5
 41
20.0
 42
7.5
 43
20.0
 44
420.0
 45
297.0
 46
0.0
 47
0.0
 48
0.0
 49
0.0
140
0.0
141
0.0
142
1.0
143
1.0
 70
1024
 72
1
 73
0
 74
5
  7

 75
16
 76
0
 77
2
 78
300
147
1.0
148
0.0
149
0.0
100
AcDbLayout
  1
Model
 70
1
 71
0
 10
0.0
 20
0.0
 11
420.0
 21
297.0
 12
0.0
 22
0.0
 32
0.0
 14
1e+20
 24
1e+20
 34
1e+20
 15
-1e+20
 25
-1e+20
 35
-1e+20
146
0.0
 13
0.0
 23
0.0
 33
0.0
 16
1.0
 26
0.0
 36
0.0
 17
0.0
 27
1.0
 37
0.0
 76
1
330
17
  0
LAYOUT
  5
1E
330
D
100
AcDbPlotSettings
  1

  4
A3
  6

 40
7.5
 41
20.0
 42
7.5
 43
20.0
 44
420.0
 45
297.0
 46
0.0
 47
0.0
 48
0.0
 49
0.0
140
0.0
141
0.0
142
1.0
143
1.0
 70
0
 72
1
 73
0
 74
5
  7

 75
16
 76
0
 77
2
 78
300
147
1.0
148
0.0
149
0.0
100
AcDbLayout
  1
Layout1
 70
1
 71
1
 10
0.0
 20
0.0
 11
420.0
 21
297.0
 12
0.0
 22
0.0
 32
0.0
 14
1e+20
 24
1e+20
 34
1e+20
 15
-1e+20
 25
-1e+20
 35
-1e+20
146
0.0
 13
0.0
 23
0.0
 33
0.0
 16
1.0
 26
0.0
 36
0.0
 17
0.0
 27
1.0
 37
0.0
 76
1
330
1B
  0
MATERIAL
  5
1F
102
{ACAD_REACTORS
330
E
102
}
330
E
100
AcDbMaterial
  1
ByBlock
  2

 70
0
 40
1.0
 71
1
 41
1.0
 91
-1023410177
 42
1.0
 72
1
  3

 73
1
 74
1
 75
1
 44
0.5
 73
0
 45
1.0
 46
1.0
 77
1
  4

 78
1
 79
1
170
1
 48
1.0
171
1
  6

172
1
173
1
174
1
140
1.0
141
1.0
175
1
  7

176
1
177
1
178
1
143
1.0
179
1
  8

270
1
271
1
272
1
145
1.0
146
1.0
273
1
  9

274
1
275
1
276
1
 42
1.0
 72
1
  3

 73
1
 74
1
 75
1
 94
63
  0
MATERIAL
  5
20
102
{ACAD_REACTORS
330
E
102
}
330
E
100
AcDbMaterial
  1
ByLayer
  2

 70
0
 40
1.0
 71
1
 41
1.0
 91
-1023410177
 42
1.0
 72
1
  3

 73
1
 74
1
 75
1
 44
0.5
 73
0
 45
1.0
 46
1.0
 77
1
  4

 78
1
 79
1
170
1
 48
1.0
171
1
  6

172
1
173
1
174
1
140
1.0
141
1.0
175
1
  7

176
1
177
1
178
1
143
1.0
179
1
  8

270
1
271
1
272
1
145
1.0
146
1.0
273
1
  9

274
1
275
1
276
1
 42
1.0
 72
1
  3

 73
1
 74
1
 75
1
 94
63
  0
MATERIAL
  5
21
102
{ACAD_REACTORS
330
E
102
}
330
E
100
AcDbMaterial
  1
Global
  2

 70
0
 40
1.0
 71
1
 41
1.0
 91
-1023410177
 42
1.0
 72
1
  3

 73
1
 74
1
 75
1
 44
0.5
 73
0
 45
1.0
 46
1.0
 77
1
  4

 78
1
 79
1
170
1
 48
1.0
171
1
  6

172
1
173
1
174
1
140
1.0
141
1.0
175
1
  7

176
1
177
1
178
1
143
1.0
179
1
  8

270
1
271
1
272
1
145
1.0
146
1.0
273
1
  9

274
1
275
1
276
1
 42
1.0
 72
1
  3

 73
1
 74
1
 75
1
 94
63
  0
MLINESTYLE
  5
22
102
{ACAD_REACTORS
330
10
102
}
330
10
100
AcDbMlineStyle
  2
Standard
 70
0
  3

 62
256
 51
90.0
 52
90.0
 71
2
 49
0.5
 62
256
  6
BYLAYER
 49
-0.5
 62
256
  6
BYLAYER
  0
MLEADERSTYLE
  5
2C
102
{ACAD_REACTORS
330
F
102
}
330
F
100
AcDbMLeaderStyle
179
2
170
2
171
1
172
0
 90
2
 40
0.0
 41
0.0
173
1
 91
-1056964608
 92
-2
290
1
 42
2.0
291
1
 43
8.0
  3
Standard
 44
4.0
300

342
29
174
1
175
1
176
0
178
1
 93
-1056964608
 45
4.0
292
0
297
0
 46
4.0
 94
-1056964608
 47
1.0
 49
1.0
140
1.0
294
1
141
0.0
177
0
142
1.0
295
0
296
0
143
3.75
271
0
272
9
273
9
  0
DICTIONARY
  5
2D
330
A
100
AcDbDictionary
280
1
281
1
  3
CREATED_BY_EZDXF
350
2E
  3
WRITTEN_BY_EZDXF
350
18B
  0
DICTIONARYVAR
  5
2E
330
2D
100
DictionaryVariables
280
0
  1
1.4.4 @ 2026-08-24T11:02:44.190845+00:00
  0
VISUALSTYLE
  5
5A
102
{ACAD_REACTORS
330
16
102
}
330
16
100
AcDbVisualStyle
  2
2dWireframe
 70
4
177
3
291
0
 70
58
 90
2
176
1
 90
2
176
1
 90
0
176
1
 90
0
176
1
 40
0.6
176
1
 40
30.0
176
1
 62
7
420
16777215
176
1
 90
1
176
1
 90
4
176
1
 62
7
176
1
 62
257
176
1
 90
1
176
1
 90
1
176
1
 40
1.0
176
1
 90
8
176
1
 62
7
176
1
 40
1.0
176
1
 90
1
176
1
 90
6
176
1
 90
2
176
1
 62
7
176
1
 90
5
176
1
 90
0
176
1
 90
0
176
1
290
0
176
1
 90
1
176
1
 40
0.0
176
1
 90
0
176
1
290
1
176
1
290
1
176
1
290
0
176
1
290
0
176
1
290
0
176
1
290
0
176
1
290
0
176
1
290
0
176
1
290
0
176
1
 90
50
176
1
 40
0.0
176
1
 40
1.0
176
1
 90
0
176
1
 62
18
420
0
176
1
 90
50
176
1
 90
3
176
1
 62
5
420
255
176
1
290
0
176
1
 90
50
176
1
 90
50
176
1
 90
50
176
1
290
0
176
1
 90
50
176
1
 62
256
176
0
 40
1.0
176
0
 90
2
176
1
  1
strokes_ogs.tif
176
1
290
0
176
1
 40
1.0
176
1
 40
1.0
176
1
  0
VISUALSTYLE
  5
5B
102
{ACAD_REACTORS
330
16
102
}
330
16
100
AcDbVisualStyle
  2
Basic
 70
7
177
3
291
1
 70
58
 90
2
176
1
 90
2
176
1
 90
0
176
1
 90
1
176
1
 40
0.6
176
1
 40
30.0
176
1
 62
7
420
16777215
176
1
 90
1
176
1
 90
4
176
1
 62
7
176
1
 62
257
176
1
 90
1
176
1
 90
1
176
1
 40
1.0
176
1
 90
8
176
1
 62
7
176
1
 40
1.0
176
1
 90
1
176
1
 90
6
176
1
 90
2
176
1
 62
7
176
1
 90
5
176
1
 90
0
176
1
 90
0
176
1
290
0
176
1
 90
1
176
1
 40
0.0
176
1
 90
0
176
1
290
0
176
1
290
1
176
1
290
1
176
1
290
0
176
1
290
0
176
1
290
0
176
1
290
0
176
1
290
0
176
1
290
0
176
1
 90
50
176
1
 40
0.0
176
1
 40
1.0
176
1
 90
0
176
1
 62
18
420
0
176
1
 90
50
176
1
 90
3
176
1
 62
5
420
255
176
1
290
0
176
1
 90
50
176
1
 90
50
176
1
 90
50
176
1
290
0
176
1
 90
50
176
1
 62
256
176
0
 40
1.0
176
0
 90
2
176
1
  1
strokes_ogs.tif
176
1
290
0
176
1
 40
1.0
176
1
 40
1.0
176
1
  0
VISUALSTYLE
  5
5C
102
{ACAD_REACTORS
330
16
102
}
330
16
100
AcDbVisualStyle
  2
Brighten
 70
12
177
3
291
1
 70
58
 90
2
176
1
 90
2
176
1
 90
0
176
1
 90
2
176
1
 40
0.6
176
1
 40
30.0
176
1
 62
7
420
16777215
176
1
 90
1
176
1
 90
4
176
1
 62
7
176
1
 62
257
176
1
 90
1
176
1
 90
1
176
1
 40
1.0
176
1
 90
8
176
1
 62
7
176
1
 40
1.0
176
1
 90
1
176
1
 90
6
176
1
 90
2
176
1
 62
7
176
1
 90
5
176
1
 90
0
176
1
 90
0
176
1
290
0
176
1
 90
1
176
1
 40
0.0
176
1
 90
0
176
1
290
0
176
1
290
1
176
1
290
1
176
1
290
0
176
1
290
0
176
1
290
0
176
1
290
0
176
1
290
0
176
1
290
0
176
1
 90
50
176
1
 40
0.0
176
1
 40
1.0
176
1
 90
0
176
1
 62
18
420
0
176
1
 90
50
176
1
 90
3
176
1
 62
5
420
255
176
1
290
0
176
1
 90
50
176
1
 90
50
176
1
 90
50
176
1
290
0
176
1
 90
50
176
1
 62
256
176
0
 40
1.0
176
0
 90
2
176
1
  1
strokes_ogs.tif
176
1
290
0
176
1
 40
1.0
176
1
 40
1.0
176
1
  0
VISUALSTYLE
  5
5D
102
{ACAD_REACTORS
330
16
102
}
330
16
100
AcDbVisualStyle
  2
ColorChange
 70
16
177
3
291
1
 70
58
 90
2
176
1
 90
2
176
1
 90
0
176
1
 90
2
176
1
 40
0.6
176
1
 40
30.0
176
1
 62
7
420
16777215
176
1
 90
1
176
1
 90
4
176
1
 62
7
176
1
 62
257
176
1
 90
1
176
1
 90
1
176
1
 40
1.0
176
1
 90
8
176
1
 62
7
176
1
 40
1.0
176
1
 90
1
176
1
 90
6
176
1
 90
2
176
1
 62
7
176
1
 90
5
176
1
 90
0
176
1
 90
0
176
1
290
0
176
1
 90
1
176
1
 40
0.0
176
1
 90
0
176
1
290
0
176
1
290
1
176
1
290
1
176
1
290
0
176
1
290
0
176
1
290
0
176
1
290
0
176
1
290
0
176
1
290
0
176
1
 90
50
176
1
 40
0.0
176
1
 40
1.0
176
1
 90
0
176
1
 62
18
420
0
176
1
 90
50
176
1
 90
3
176
1
 62
5
420
255
176
1
290
0
176
1
 90
50
176
1
 90
50
176
1
 90
50
176
1
290
0
176
1
 90
50
176
1
 62
256
176
0
 40
1.0
176
0
 90
2
176
1
  1
strokes_ogs.tif
176
1
290
0
176
1
 40
1.0
176
1
 40
1.0
176
1
  0
VISUALSTYLE
  5
5E
102
{ACAD_REACTORS
330
16
102
}
330
16
100
AcDbVisualStyle
  2
Conceptual
 70
9
177
3
291
0
 70
58
 90
2
176
1
 90
2
176
1
 90
0
176
1
 90
3
176
1
 40
0.6
176
1
 40
30.0
176
1
 62
7
420
16777215
176
1
 90
1
176
1
 90
4
176
1
 62
7
176
1
 62
257
176
1
 90
1
176
1
 90
1
176
1
 40
1.0
176
1
 90
8
176
1
 62
7
176
1
 40
1.0
176
1
 90
1
176
1
 90
6
176
1
 90
2
176
1
 62
7
176
1
 90
5
176
1
 90
0
176
1
 90
0
176
1
290
0
176
1
 90
1
176
1
 40
0.0
176
1
 90
0
176
1
290
0
176
1
290
1
176
1
290
1
176
1
290
0
176
1
290
0
176
1
290
0
176
1
290
0
176
1
290
0
176
1
290
0
176
1
 90
50
176
1
 40
0.0
176
1
 40
1.0
176
1
 90
0
176
1
 62
18
420
0
176
1
 90
50
176
1
 90
3
176
1
 62
5
420
255
176
1
290
0
176
1
 90
50
176
1
 90
50
176
1
 90
50
176
1
290
0
176
1
 90
50
176
1
 62
256
176
0
 40
1.0
176
0
 90
2
176
1
  1
strokes_ogs.tif
176
1
290
0
176
1
 40
1.0
176
1
 40
1.0
176
1
  0
VISUALSTYLE
  5
5F
102
{ACAD_REACTORS
330
16
102
}
330
16
100
AcDbVisualStyle
  2
Dim
 70
11
177
3
291
1
 70
58
 90
2
176
1
 90
2
176
1
 90
0
176
1
 90
2
176
1
 40
0.6
176
1
 40
30.0
176
1
 62
7
420
16777215
176
1
 90
1
176
1
 90
4
176
1
 62
7
176
1
 62
257
176
1
 90
1
176
1
 90
1
176
1
 40
1.0
176
1
 90
8
176
1
 62
7
176
1
 40
1.0
176
1
 90
1
176
1
 90
6
176
1
 90
2
176
1
 62
7
176
1
 90
5
176
1
 90
0
176
1
 90
0
176
1
290
0
176
1
 90
1
176
1
 40
0.0
176
1
 90
0
176
1
290
0
176
1
290
1
176
1
290
1
176
1
290
0
176
1
290
0
176
1
290
0
176
1
290
0
176
1
290
0
176
1
290
0
176
1
 90
50
176
1
 40
0.0
176
1
 40
1.0
176
1
 90
0
176
1
 62
18
420
0
176
1
 90
50
176
1
 90
3
176
1
 62
5
420
255
176
1
290
0
176
1
 90
50
176
1
 90
50
176
1
 90
50
176
1
290
0
176
1
 90
50
176
1
 62
256
176
0
 40
1.0
176
0
 90
2
176
1
  1
strokes_ogs.tif
176
1
290
0
176
1
 40
1.0
176
1
 40
1.0
176
1
  0
VISUALSTYLE
  5
60
102
{ACAD_REACTORS
330
16
102
}
330
16
100
AcDbVisualStyle
  2
EdgeColorOff
 70
22
177
3
291
1
 70
58
 90
2
176
1
 90
2
176
1
 90
0
176
1
 90
2
176
1
 40
0.6
176
1
 40
30.0
176
1
 62
7
420
16777215
176
1
 90
1
176
1
 90
4
176
1
 62
7
176
1
 62
257
176
1
 90
1
176
1
 90
1
176
1
 40
1.0
176
1
 90
8
176
1
 62
7
176
1
 40
1.0
176
1
 90
1
176
1
 90
6
176
1
 90
2
176
1
 62
7
176
1
 90
5
176
1
 90
0
176
1
 90
0
176
1
290
0
176
1
 90
1
176
1
 40
0.0
176
1
 90
0
176
1
290
0
176
1
290
1
176
1
290
1
176
1
290
0
176
1
290
0
176
1
290
0
176
1
290
0
176
1
290
0
176
1
290
0
176
1
 90
50
176
1
 40
0.0
176
1
 40
1.0
176
1
 90
0
176
1
 62
18
420
0
176
1
 90
50
176
1
 90
3
176
1
 62
5
420
255
176
1
290
0
176
1
 90
50
176
1
 90
50
176
1
 90
50
176
1
290
0
176
1
 90
50
176
1
 62
256
176
0
 40
1.0
176
0
 90
2
176
1
  1
strokes_ogs.tif
176
1
290
0
176
1
 40
1.0
176
1
 40
1.0
176
1
  0
VISUALSTYLE
  5
61
102
{ACAD_REACTORS
330
16
102
}
330
16
100
AcDbVisualStyle
  2
Facepattern
 70
15
177
3
291
1
 70
58
 90
2
176
1
 90
2
176
1
 90
0
176
1
 90
2
176
1
 40
0.6
176
1
 40
30.0
176
1
 62
7
420
16777215
176
1
 90
1
176
1
 90
4
176
1
 62
7
176
1
 62
257
176
1
 90
1
176
1
 90
1
176
1
 40
1.0
176
1
 90
8
176
1
 62
7
176
1
 40
1.0
176
1
 90
1
176
1
 90
6
176
1
 90
2
176
1
 62
7
176
1
 90
5
176
1
 90
0
176
1
 90
0
176
1
290
0
176
1
 90
1
176
1
 40
0.0
176
1
 90
0
176
1
290
0
176
1
290
1
176
1
290
1
176
1
290
0
176
1
290
0
176
1
290
0
176
1
290
0
176
1
290
0
176
1
290
0
176
1
 90
50
176
1
 40
0.0
176
1
 40
1.0
176
1
 90
0
176
1
 62
18
420
0
176
1
 90
50
176
1
 90
3
176
1
 62
5
420
255
176
1
290
0
176
1
 90
50
176
1
 90
50
176
1
 90
50
176
1
290
0
176
1
 90
50
176
1
 62
256
176
0
 40
1.0
176
0
 90
2
176
1
  1
strokes_ogs.tif
176
1
290
0
176
1
 40
1.0
176
1
 40
1.0
176
1
  0
VISUALSTYLE
  5
62
102
{ACAD_REACTORS
330
16
102
}
330
16
100
AcDbVisualStyle
  2
Flat
 70
0
177
3
291
1
 70
58
 90
2
176
1
 90
2
176
1
 90
0
176
1
 90
2
176
1
 40
0.6
176
1
 40
30.0
176
1
 62
7
420
16777215
176
1
 90
1
176
1
 90
4
176
1
 62
7
176
1
 62
257
176
1
 90
1
176
1
 90
1
176
1
 40
1.0
176
1
 90
8
176
1
 62
7
176
1
 40
1.0
176
1
 90
1
176
1
 90
6
176
1
 90
2
176
1
 62
7
176
1
 90
5
176
1
 90
0
176
1
 90
0
176
1
290
0
176
1
 90
1
176
1
 40
0.0
176
1
 90
0
176
1
290
0
176
1
290
1
176
1
290
1
176
1
290
0
176
1
290
0
176
1
290
0
176
1
290
0
176
1
290
0
176
1
290
0
176
1
 90
50
176
1
 40
0.0
176
1
 40
1.0
176
1
 90
0
176
1
 62
18
420
0
176
1
 90
50
176
1
 90
3
176
1
 62
5
420
255
176
1
290
0
176
1
 90
50
176
1
 90
50
176
1
 90
50
176
1
290
0
176
1
 90
50
176
1
 62
256
176
0
 40
1.0
176
0
 90
2
176
1
  1
strokes_ogs.tif
176
1
290
0
176
1
 40
1.0
176
1
 40
1.0
176
1
  0
VISUALSTYLE
  5
63
102
{ACAD_REACTORS
330
16
102
}
330
16
100
AcDbVisualStyle
  2
FlatWithEdges
 70
1
177
3
291
1
 70
58
 90
2
176
1
 90
2
176
1
 90
0
176
1
 90
2
176
1
 40
0.6
176
1
 40
30.0
176
1
 62
7
420
16777215
176
1
 90
1
176
1
 90
4
176
1
 62
7
176
1
 62
257
176
1
 90
1
176
1
 90
1
176
1
 40
1.0
176
1
 90
8
176
1
 62
7
176
1
 40
1.0
176
1
 90
1
176
1
 90
6
176
1
 90
2
176
1
 62
7
176
1
 90
5
176
1
 90
0
176
1
 90
0
176
1
290
0
176
1
 90
1
176
1
 40
0.0
176
1
 90
0
176
1
290
0
176
1
290
1
176
1
290
1
176
1
290
0
176
1
290
0
176
1
290
0
176
1
290
0
176
1
290
0
176
1
290
0
176
1
 90
50
176
1
 40
0.0
176
1
 40
1.0
176
1
 90
0
176
1
 62
18
420
0
176
1
 90
50
176
1
 90
3
176
1
 62
5
420
255
176
1
290
0
176
1
 90
50
176
1
 90
50
176
1
 90
50
176
1
290
0
176
1
 90
50
176
1
 62
256
176
0
 40
1.0
176
0
 90
2
176
1
  1
strokes_ogs.tif
176
1
290
0
176
1
 40
1.0
176
1
 40
1.0
176
1
  0
VISUALSTYLE
  5
64
102
{ACAD_REACTORS
330
16
102
}
330
16
100
AcDbVisualStyle
  2
Gouraud
 70
2
177
3
291
1
 70
58
 90
2
176
1
 90
2
176
1
 90
0
176
1
 90
2
176
1
 40
0.6
176
1
 40
30.0
176
1
 62
7
420
16777215
176
1
 90
1
176
1
 90
4
176
1
 62
7
176
1
 62
257
176
1
 90
1
176
1
 90
1
176
1
 40
1.0
176
1
 90
8
176
1
 62
7
176
1
 40
1.0
176
1
 90
1
176
1
 90
6
176
1
 90
2
176
1
 62
7
176
1
 90
5
176
1
 90
0
176
1
 90
0
176
1
290
0
176
1
 90
1
176
1
 40
0.0
176
1
 90
0
176
1
290
0
176
1
290
1
176
1
290
1
176
1
290
0
176
1
290
0
176
1
290
0
176
1
290
0
176
1
290
0
176
1
290
0
176
1
 90
50
176
1
 40
0.0
176
1
 40
1.0
176
1
 90
0
176
1
 62
18
420
0
176
1
 90
50
176
1
 90
3
176
1
 62
5
420
255
176
1
290
0
176
1
 90
50
176
1
 90
50
176
1
 90
50
176
1
290
0
176
1
 90
50
176
1
 62
256
176
0
 40
1.0
176
0
 90
2
176
1
  1
strokes_ogs.tif
176
1
290
0
176
1
 40
1.0
176
1
 40
1.0
176
1
  0
VISUALSTYLE
  5
65
102
{ACAD_REACTORS
330
16
102
}
330
16
100
AcDbVisualStyle
  2
GouraudWithEdges
 70
3
177
3
291
1
 70
58
 90
2
176
1
 90
2
176
1
 90
0
176
1
 90
2
176
1
 40
0.6
176
1
 40
30.0
176
1
 62
7
420
16777215
176
1
 90
1
176
1
 90
4
176
1
 62
7
176
1
 62
257
176
1
 90
1
176
1
 90
1
176
1
 40
1.0
176
1
 90
8
176
1
 62
7
176
1
 40
1.0
176
1
 90
1
176
1
 90
6
176
1
 90
2
176
1
 62
7
176
1
 90
5
176
1
 90
0
176
1
 90
0
176
1
290
0
176
1
 90
1
176
1
 40
0.0
176
1
 90
0
176
1
290
0
176
1
290
1
176
1
290
1
176
1
290
0
176
1
290
0
176
1
290
0
176
1
290
0
176
1
290
0
176
1
290
0
176
1
 90
50
176
1
 40
0.0
176
1
 40
1.0
176
1
 90
0
176
1
 62
18
420
0
176
1
 90
50
176
1
 90
3
176
1
 62
5
420
255
176
1
290
0
176
1
 90
50
176
1
 90
50
176
1
 90
50
176
1
290
0
176
1
 90
50
176
1
 62
256
176
0
 40
1.0
176
0
 90
2
176
1
  1
strokes_ogs.tif
176
1
290
0
176
1
 40
1.0
176
1
 40
1.0
176
1
  0
VISUALSTYLE
  5
66
102
{ACAD_REACTORS
330
16
102
}
330
16
100
AcDbVisualStyle
  2
Hidden
 70
6
177
3
291
0
 70
58
 90
2
176
1
 90
2
176
1
 90
0
176
1
 90
1
176
1
 40
0.6
176
1
 40
30.0
176
1
 62
7
420
16777215
176
1
 90
1
176
1
 90
4
176
1
 62
7
176
1
 62
257
176
1
 90
1
176
1
 90
1
176
1
 40
1.0
176
1
 90
8
176
1
 62
7
176
1
 40
1.0
176
1
 90
1
176
1
 90
6
176
1
 90
2
176
1
 62
7
176
1
 90
5
176
1
 90
0
176
1
 90
0
176
1
290
0
176
1
 90
1
176
1
 40
0.0
176
1
 90
0
176
1
290
0
176
1
290
1
176
1
290
1
176
1
290
0
176
1
290
0
176
1
290
0
176
1
290
0
176
1
290
0
176
1
290
0
176
1
 90
50
176
1
 40
0.0
176
1
 40
1.0
176
1
 90
0
176
1
 62
18
420
0
176
1
 90
50
176
1
 90
3
176
1
 62
5
420
255
176
1
290
0
176
1
 90
50
176
1
 90
50
176
1
 90
50
176
1
290
0
176
1
 90
50
176
1
 62
256
176
0
 40
1.0
176
0
 90
2
176
1
  1
strokes_ogs.tif
176
1
290
0
176
1
 40
1.0
176
1
 40
1.0
176
1
  0
VISUALSTYLE
  5
67
102
{ACAD_REACTORS
330
16
102
}
330
16
100
AcDbVisualStyle
  2
JitterOff
 70
20
177
3
291
1
 70
58
 90
2
176
1
 90
2
176
1
 90
0
176
1
 90
2
176
1
 40
0.6
176
1
 40
30.0
176
1
 62
7
420
16777215
176
1
 90
1
176
1
 90
4
176
1
 62
7
176
1
 62
257
176
1
 90
1
176
1
 90
1
176
1
 40
1.0
176
1
 90
8
176
1
 62
7
176
1
 40
1.0
176
1
 90
1
176
1
 90
6
176
1
 90
2
176
1
 62
7
176
1
 90
5
176
1
 90
0
176
1
 90
0
176
1
290
0
176
1
 90
1
176
1
 40
0.0
176
1
 90
0
176
1
290
0
176
1
290
1
176
1
290
1
176
1
290
0
176
1
290
0
176
1
290
0
176
1
290
0
176
1
290
0
176
1
290
0
176
1
 90
50
176
1
 40
0.0
176
1
 40
1.0
176
1
 90
0
176
1
 62
18
420
0
176
1
 90
50
176
1
 90
3
176
1
 62
5
420
255
176
1
290
0
176
1
 90
50
176
1
 90
50
176
1
 90
50
176
1
290
0
176
1
 90
50
176
1
 62
256
176
0
 40
1.0
176
0
 90
2
176
1
  1
strokes_ogs.tif
176
1
290
0
176
1
 40
1.0
176
1
 40
1.0
176
1
  0
VISUALSTYLE
  5
68
102
{ACAD_REACTORS
330
16
102
}
330
16
100
AcDbVisualStyle
  2
Linepattern
 70
14
177
3
291
1
 70
58
 90
2
176
1
 90
2
176
1
 90
0
176
1
 90
2
176
1
 40
0.6
176
1
 40
30.0
176
1
 62
7
420
16777215
176
1
 90
1
176
1
 90
4
176
1
 62
7
176
1
 62
257
176
1
 90
1
176
1
 90
1
176
1
 40
1.0
176
1
 90
8
176
1
 62
7
176
1
 40
1.0
176
1
 90
1
176
1
 90
6
176
1
 90
2
176
1
 62
7
176
1
 90
5
176
1
 90
0
176
1
 90
0
176
1
290
0
176
1
 90
1
176
1
 40
0.0
176
1
 90
0
176
1
290
0
176
1
290
1
176
1
290
1
176
1
290
0
176
1
290
0
176
1
290
0
176
1
290
0
176
1
290
0
176
1
290
0
176
1
 90
50
176
1
 40
0.0
176
1
 40
1.0
176
1
 90
0
176
1
 62
18
420
0
176
1
 90
50
176
1
 90
3
176
1
 62
5
420
255
176
1
290
0
176
1
 90
50
176
1
 90
50
176
1
 90
50
176
1
290
0
176
1
 90
50
176
1
 62
256
176
0
 40
1.0
176
0
 90
2
176
1
  1
strokes_ogs.tif
176
1
290
0
176
1
 40
1.0
176
1
 40
1.0
176
1
  0
VISUALSTYLE
  5
69
102
{ACAD_REACTORS
330
16
102
}
330
16
100
AcDbVisualStyle
  2
Modeling
 70
10
177
3
291
0
 70
58
 90
2
176
1
 90
2
176
1
 90
0
176
1
 90
2
176
1
 40
0.6
176
1
 40
30.0
176
1
 62
7
420
16777215
176
1
 90
1
176
1
 90
4
176
1
 62
7
176
1
 62
257
176
1
 90
1
176
1
 90
1
176
1
 40
1.0
176
1
 90
8
176
1
 62
7
176
1
 40
1.0
176
1
 90
1
176
1
 90
6
176
1
 90
2
176
1
 62
7
176
1
 90
5
176
1
 90
0
176
1
 90
0
176
1
290
0
176
1
 90
1
176
1
 40
0.0
176
1
 90
0
176
1
290
0
176
1
290
1
176
1
290
1
176
1
290
0
176
1
290
0
176
1
290
0
176
1
290
0
176
1
290
0
176
1
290
0
176
1
 90
50
176
1
 40
0.0
176
1
 40
1.0
176
1
 90
0
176
1
 62
18
420
0
176
1
 90
50
176
1
 90
3
176
1
 62
5
420
255
176
1
290
0
176
1
 90
50
176
1
 90
50
176
1
 90
50
176
1
290
0
176
1
 90
50
176
1
 62
256
176
0
 40
1.0
176
0
 90
2
176
1
  1
strokes_ogs.tif
176
1
290
0
176
1
 40
1.0
176
1
 40
1.0
176
1
  0
VISUALSTYLE
  5
6A
102
{ACAD_REACTORS
330
16
102
}
330
16
100
AcDbVisualStyle
  2
OverhangOff
 70
21
177
3
291
1
 70
58
 90
2
176
1
 90
2
176
1
 90
0
176
1
 90
2
176
1
 40
0.6
176
1
 40
30.0
176
1
 62
7
420
16777215
176
1
 90
1
176
1
 90
4
176
1
 62
7
176
1
 62
257
176
1
 90
1
176
1
 90
1
176
1
 40
1.0
176
1
 90
8
176
1
 62
7
176
1
 40
1.0
176
1
 90
1
176
1
 90
6
176
1
 90
2
176
1
 62
7
176
1
 90
5
176
1
 90
0
176
1
 90
0
176
1
290
0
176
1
 90
1
176
1
 40
0.0
176
1
 90
0
176
1
290
0
176
1
290
1
176
1
290
1
176
1
290
0
176
1
290
0
176
1
290
0
176
1
290
0
176
1
290
0
176
1
290
0
176
1
 90
50
176
1
 40
0.0
176
1
 40
1.0
176
1
 90
0
176
1
 62
18
420
0
176
1
 90
50
176
1
 90
3
176
1
 62
5
420
255
176
1
290
0
176
1
 90
50
176
1
 90
50
176
1
 90
50
176
1
290
0
176
1
 90
50
176
1
 62
256
176
0
 40
1.0
176
0
 90
2
176
1
  1
strokes_ogs.tif
176
1
290
0
176
1
 40
1.0
176
1
 40
1.0
176
1
  0
VISUALSTYLE
  5
6B
102
{ACAD_REACTORS
330
16
102
}
330
16
100
AcDbVisualStyle
  2
Realistic
 70
8
177
3
291
0
 70
58
 90
2
176
1
 90
2
176
1
 90
0
176
1
 90
2
176
1
 40
0.6
176
1
 40
30.0
176
1
 62
7
420
16777215
176
1
 90
1
176
1
 90
4
176
1
 62
7
176
1
 62
257
176
1
 90
1
176
1
 90
1
176
1
 40
1.0
176
1
 90
8
176
1
 62
7
176
1
 40
1.0
176
1
 90
1
176
1
 90
6
176
1
 90
2
176
1
 62
7
176
1
 90
5
176
1
 90
0
176
1
 90
0
176
1
290
0
176
1
 90
1
176
1
 40
0.0
176
1
 90
0
176
1
290
0
176
1
290
1
176
1
290
1
176
1
290
0
176
1
290
0
176
1
290
0
176
1
290
0
176
1
290
0
176
1
290
0
176
1
 90
50
176
1
 40
0.0
176
1
 40
1.0
176
1
 90
0
176
1
 62
18
420
0
176
1
 90
50
176
1
 90
3
176
1
 62
5
420
255
176
1
290
0
176
1
 90
50
176
1
 90
50
176
1
 90
50
176
1
290
0
176
1
 90
50
176
1
 62
256
176
0
 40
1.0
176
0
 90
2
176
1
  1
strokes_ogs.tif
176
1
290
0
176
1
 40
1.0
176
1
 40
1.0
176
1
  0
VISUALSTYLE
  5
6C
102
{ACAD_REACTORS
330
16
102
}
330
16
100
AcDbVisualStyle
  2
Shaded
 70
27
177
3
291
0
 70
58
 90
2
176
1
 90
2
176
1
 90
0
176
1
 90
2
176
1
 40
0.6
176
1
 40
30.0
176
1
 62
7
420
16777215
176
1
 90
1
176
1
 90
4
176
1
 62
7
176
1
 62
257
176
1
 90
1
176
1
 90
1
176
1
 40
1.0
176
1
 90
8
176
1
 62
7
176
1
 40
1.0
176
1
 90
1
176
1
 90
6
176
1
 90
2
176
1
 62
7
176
1
 90
5
176
1
 90
0
176
1
 90
0
176
1
290
0
176
1
 90
1
176
1
 40
0.0
176
1
 90
0
176
1
290
0
176
1
290
1
176
1
290
1
176
1
290
0
176
1
290
0
176
1
290
0
176
1
290
0
176
1
290
0
176
1
290
0
176
1
 90
50
176
1
 40
0.0
176
1
 40
1.0
176
1
 90
0
176
1
 62
18
420
0
176
1
 90
50
176
1
 90
3
176
1
 62
5
420
255
176
1
290
0
176
1
 90
50
176
1
 90
50
176
1
 90
50
176
1
290
0
176
1
 90
50
176
1
 62
256
176
0
 40
1.0
176
0
 90
2
176
1
  1
strokes_ogs.tif
176
1
290
0
176
1
 40
1.0
176
1
 40
1.0
176
1
  0
VISUALSTYLE
  5
6D
102
{ACAD_REACTORS
330
16
102
}
330
16
100
AcDbVisualStyle
  2
Shaded with edges
 70
26
177
3
291
0
 70
58
 90
2
176
1
 90
2
176
1
 90
0
176
1
 90
2
176
1
 40
0.6
176
1
 40
30.0
176
1
 62
7
420
16777215
176
1
 90
1
176
1
 90
4
176
1
 62
7
176
1
 62
257
176
1
 90
1
176
1
 90
1
176
1
 40
1.0
176
1
 90
8
176
1
 62
7
176
1
 40
1.0
176
1
 90
1
176
1
 90
6
176
1
 90
2
176
1
 62
7
176
1
 90
5
176
1
 90
0
176
1
 90
0
176
1
290
0
176
1
 90
1
176
1
 40
0.0
176
1
 90
0
176
1
290
0
176
1
290
1
176
1
290
1
176
1
290
0
176
1
290
0
176
1
290
0
176
1
290
0
176
1
290
0
176
1
290
0
176
1
 90
50
176
1
 40
0.0
176
1
 40
1.0
176
1
 90
0
176
1
 62
18
420
0
176
1
 90
50
176
1
 90
3
176
1
 62
5
420
255
176
1
290
0
176
1
 90
50
176
1
 90
50
176
1
 90
50
176
1
290
0
176
1
 90
50
176
1
 62
256
176
0
 40
1.0
176
0
 90
2
176
1
  1
strokes_ogs.tif
176
1
290
0
176
1
 40
1.0
176
1
 40
1.0
176
1
  0
VISUALSTYLE
  5
6E
102
{ACAD_REACTORS
330
16
102
}
330
16
100
AcDbVisualStyle
  2
Shades of Gray
 70
23
177
3
291
0
 70
58
 90
2
176
1
 90
2
176
1
 90
0
176
1
 90
2
176
1
 40
0.6
176
1
 40
30.0
176
1
 62
7
420
16777215
176
1
 90
1
176
1
 90
4
176
1
 62
7
176
1
 62
257
176
1
 90
1
176
1
 90
1
176
1
 40
1.0
176
1
 90
8
176
1
 62
7
176
1
 40
1.0
176
1
 90
1
176
1
 90
6
176
1
 90
2
176
1
 62
7
176
1
 90
5
176
1
 90
0
176
1
 90
0
176
1
290
0
176
1
 90
1
176
1
 40
0.0
176
1
 90
0
176
1
290
0
176
1
290
1
176
1
290
1
176
1
290
0
176
1
290
0
176
1
290
0
176
1
290
0
176
1
290
0
176
1
290
0
176
1
 90
50
176
1
 40
0.0
176
1
 40
1.0
176
1
 90
0
176
1
 62
18
420
0
176
1
 90
50
176
1
 90
3
176
1
 62
5
420
255
176
1
290
0
176
1
 90
50
176
1
 90
50
176
1
 90
50
176
1
290
0
176
1
 90
50
176
1
 62
256
176
0
 40
1.0
176
0
 90
2
176
1
  1
strokes_ogs.tif
176
1
290
0
176
1
 40
1.0
176
1
 40
1.0
176
1
  0
VISUALSTYLE
  5
6F
102
{ACAD_REACTORS
330
16
102
}
330
16
100
AcDbVisualStyle
  2
Sketchy
 70
24
177
3
291
0
 70
58
 90
2
176
1
 90
2
176
1
 90
0
176
1
 90
1
176
1
 40
0.6
176
1
 40
30.0
176
1
 62
7
420
16777215
176
1
 90
1
176
1
 90
4
176
1
 62
7
176
1
 62
257
176
1
 90
1
176
1
 90
1
176
1
 40
1.0
176
1
 90
8
176
1
 62
7
176
1
 40
1.0
176
1
 90
1
176
1
 90
6
176
1
 90
2
176
1
 62
7
176
1
 90
5
176
1
 90
0
176
1
 90
0
176
1
290
0
176
1
 90
1
176
1
 40
0.0
176
1
 90
0
176
1
290
0
176
1
290
1
176
1
290
1
176
1
290
0
176
1
290
0
176
1
290
0
176
1
290
0
176
1
290
0
176
1
290
0
176
1
 90
50
176
1
 40
0.0
176
1
 40
1.0
176
1
 90
0
176
1
 62
18
420
0
176
1
 90
50
176
1
 90
3
176
1
 62
5
420
255
176
1
290
0
176
1
 90
50
176
1
 90
50
176
1
 90
50
176
1
290
0
176
1
 90
50
176
1
 62
256
176
0
 40
1.0
176
0
 90
2
176
1
  1
strokes_ogs.tif
176
1
290
0
176
1
 40
1.0
176
1
 40
1.0
176
1
  0
VISUALSTYLE
  5
70
102
{ACAD_REACTORS
330
16
102
}
330
16
100
AcDbVisualStyle
  2
Thicken
 70
13
177
3
291
1
 70
58
 90
2
176
1
 90
2
176
1
 90
0
176
1
 90
2
176
1
 40
0.6
176
1
 40
30.0
176
1
 62
7
420
16777215
176
1
 90
1
176
1
 90
4
176
1
 62
7
176
1
 62
257
176
1
 90
1
176
1
 90
1
176
1
 40
1.0
176
1
 90
8
176
1
 62
7
176
1
 40
1.0
176
1
 90
1
176
1
 90
6
176
1
 90
2
176
1
 62
7
176
1
 90
5
176
1
 90
0
176
1
 90
0
176
1
290
0
176
1
 90
1
176
1
 40
0.0
176
1
 90
0
176
1
290
0
176
1
290
1
176
1
290
1
176
1
290
0
176
1
290
0
176
1
290
0
176
1
290
0
176
1
290
0
176
1
290
0
176
1
 90
50
176
1
 40
0.0
176
1
 40
1.0
176
1
 90
0
176
1
 62
18
420
0
176
1
 90
50
176
1
 90
3
176
1
 62
5
420
255
176
1
290
0
176
1
 90
50
176
1
 90
50
176
1
 90
50
176
1
290
0
176
1
 90
50
176
1
 62
256
176
0
 40
1.0
176
0
 90
2
176
1
  1
strokes_ogs.tif
176
1
290
0
176
1
 40
1.0
176
1
 40
1.0
176
1
  0
VISUALSTYLE
  5
71
102
{ACAD_REACTORS
330
16
102
}
330
16
100
AcDbVisualStyle
  2
Wireframe
 70
5
177
3
291
0
 70
58
 90
2
176
1
 90
2
176
1
 90
0
176
1
 90
0
176
1
 40
0.6
176
1
 40
30.0
176
1
 62
7
420
16777215
176
1
 90
1
176
1
 90
4
176
1
 62
7
176
1
 62
257
176
1
 90
1
176
1
 90
1
176
1
 40
1.0
176
1
 90
8
176
1
 62
7
176
1
 40
1.0
176
1
 90
1
176
1
 90
6
176
1
 90
2
176
1
 62
7
176
1
 90
5
176
1
 90
0
176
1
 90
0
176
1
290
0
176
1
 90
1
176
1
 40
0.0
176
1
 90
0
176
1
290
0
176
1
290
1
176
1
290
1
176
1
290
0
176
1
290
0
176
1
290
0
176
1
290
0
176
1
290
0
176
1
290
0
176
1
 90
50
176
1
 40
0.0
176
1
 40
1.0
176
1
 90
0
176
1
 62
18
420
0
176
1
 90
50
176
1
 90
3
176
1
 62
5
420
255
176
1
290
0
176
1
 90
50
176
1
 90
50
176
1
 90
50
176
1
290
0
176
1
 90
50
176
1
 62
256
176
0
 40
1.0
176
0
 90
2
176
1
  1
strokes_ogs.tif
176
1
290
0
176
1
 40
1.0
176
1
 40
1.0
176
1
  0
VISUALSTYLE
  5
72
102
{ACAD_REACTORS
330
16
102
}
330
16
100
AcDbVisualStyle
  2
X-Ray
 70
25
177
3
291
0
 70
58
 90
2
176
1
 90
2
176
1
 90
0
176
1
 90
2
176
1
 40
0.5
176
1
 40
30.0
176
1
 62
7
420
16777215
176
1
 90
1
176
1
 90
4
176
1
 62
7
176
1
 62
257
176
1
 90
1
176
1
 90
1
176
1
 40
1.0
176
1
 90
8
176
1
 62
7
176
1
 40
1.0
176
1
 90
1
176
1
 90
6
176
1
 90
2
176
1
 62
7
176
1
 90
5
176
1
 90
0
176
1
 90
0
176
1
290
0
176
1
 90
1
176
1
 40
0.0
176
1
 90
0
176
1
290
0
176
1
290
1
176
1
290
1
176
1
290
0
176
1
290
0
176
1
290
0
176
1
290
0
176
1
290
0
176
1
290
0
176
1
 90
50
176
1
 40
0.0
176
1
 40
1.0
176
1
 90
0
176
1
 62
18
420
0
176
1
 90
50
176
1
 90
3
176
1
 62
5
420
255
176
1
290
0
176
1
 90
50
176
1
 90
50
176
1
 90
50
176
1
290
0
176
1
 90
50
176
1
 62
256
176
0
 40
1.0
176
0
 90
2
176
1
  1
strokes_ogs.tif
176
1
290
0
176
1
 40
1.0
176
1
 40
1.0
176
1
  0
DICTIONARYVAR
  5
18B
330
2D
100
DictionaryVariables
280
0
  1
1.4.4 @ 2026-08-24T11:02:44.233308+00:00
  0
ENDSEC
  0
EOF
